SplineFontDB: 3.0
FontName: Mako
FullName: Mako
FamilyName: Mako
Weight: Regular
Copyright: Copyright (c) 2007 by vernon adams. All rights reserved.
Version: 1.000
FONDName: Mako
ItalicAngle: 0
UnderlinePosition: -334
UnderlineWidth: 41
Ascent: 1638
Descent: 410
UFOAscent: 1437
UFODescent: -417
LayerCount: 2
Layer: 0 0 "Back"  1
Layer: 1 0 "Fore"  0
FSType: 0
OS2Version: 0
OS2_WeightWidthSlopeOnly: 0
OS2_UseTypoMetrics: 0
CreationTime: 1383493907
ModificationTime: 1383493907
PfmFamily: 0
TTFWeight: 400
TTFWidth: 0
LineGap: 0
VLineGap: 0
Panose: 2 0 0 0 0 0 0 0 0 0
OS2TypoAscent: 2141
OS2TypoAOffset: 0
OS2TypoDescent: -538
OS2TypoDOffset: 0
OS2TypoLinegap: 0
OS2WinAscent: 2141
OS2WinAOffset: 0
OS2WinDescent: -538
OS2WinDOffset: 0
HheadAscent: 2141
HheadAOffset: 0
HheadDescent: -538
HheadDOffset: 0
OS2SubXSize: 8993
OS2SubYSize: 8348
OS2SubXOff: 0
OS2SubYOff: 1800
OS2SupXSize: 8993
OS2SupYSize: 8348
OS2SupXOff: 0
OS2SupYOff: 6128
OS2StrikeYSize: 102
OS2StrikeYPos: 512
OS2Vendor: 'newt'
OS2CodePages: 20000001.00000000
OS2UnicodeRanges: 800000ef.5000e04b.00000000.00000000
Lookup: 258 0 0 "'kern' Horizontal Kerning lookup 0"  {"'kern' Horizontal Kerning lookup 0 subtable"  } ['kern' ('DFLT' <'dflt' > ) ]
Lookup: 258 0 0 "'kern' Horizontal Kerning in Latin lookup 0"  {"'kern' Horizontal Kerning in Latin lookup 0 subtable"  } ['kern' ('latn' <'dflt' > ) ]
DEI: 91125
LangName: 1033 "" "" "" "vernonadams: Mako: 2007" "" "Version 1.000" "" "Mako is a trademark of vernon adams." "vernon adams" "vernon adams" "Copyright (c) 2007 by vernon adams. All rights reserved." "newtypography.co.uk" "newtypography.co.uk" "" "http://scripts.sil.org/OFL" "" "" "" "Mako" 
PickledData: "(dp1
S'com.typemytype.robofont.compileSettings.autohint'
p2
I1
sS'com.typemytype.robofont.compileSettings.decompose'
p3
I1
sS'com.typemytype.robofont.foreground.layerStrokeColor'
p4
(F0.5
F0
F0.5
F0.69999999999999996
tp5
sS'com.typemytype.robofont.compileSettings.path'
p6

StartChar: A
Encoding: 65 65 2
Width: 1234
VWidth: 0
Flags: W
PickledData: "(dp1
S'org.robofab.postScriptHintData'
p2
(dp3
sS'com.typemytype.robofont.layerData'
p4
(dp5
s."
LayerCount: 2
Fore
SplineSet
335 327 m 1
 236 0 l 1
 41 0 l 1
 517 1437 l 1
 718 1437 l 1
 1193 0 l 1
 997 0 l 1
 899 327 l 1
 335 327 l 1
368 439 m 1
 865 439 l 1
 618 1243 l 1
 368 439 l 1
EndSplineSet
EndChar

StartChar: AE
Encoding: 198 198 3
Width: 1576
VWidth: 0
Flags: W
PickledData: "(dp1
S'org.robofab.postScriptHintData'
p2
(dp3
sS'com.typemytype.robofont.layerData'
p4
(dp5
s."
LayerCount: 2
Fore
SplineSet
706 0 m 1
 706 288 l 1
 351 288 l 1
 240 0 l 1
 19 0 l 1
 581 1409 l 1
 1459 1409 l 1
 1459 1263 l 1
 894 1263 l 1
 894 810 l 1
 1400 810 l 1
 1400 665 l 1
 894 665 l 1
 894 146 l 1
 1471 146 l 1
 1471 0 l 1
 706 0 l 1
387 421 m 1
 706 421 l 1
 706 1276 l 1
 599 960 l 1
 387 421 l 1
EndSplineSet
EndChar

StartChar: B
Encoding: 66 66 10
Width: 1256
VWidth: 0
Flags: W
PickledData: "(dp1
S'org.robofab.postScriptHintData'
p2
(dp3
sS'com.typemytype.robofont.layerData'
p4
(dp5
s."
LayerCount: 2
Fore
SplineSet
367 825 m 1
 600 825 l 2
 715.24 825 791.76 847.8 840 888 c 0
 888.24 928.2 908 987.6 908 1068 c 0
 908 1161.8 883.45 1212.67 826.5 1245.5 c 0
 769.55 1278.33 681.96 1292 556 1292 c 2
 367 1292 l 1
 367 825 l 1
978 417 m 0
 978 529.56 949.64 597.12 888 640 c 0
 826.36 682.88 734.64 698 606 698 c 2
 367 698 l 1
 367 144 l 1
 609 144 l 2
 730.94 144 823.36 156.31 885 194.5 c 0
 946.64 232.69 978 299.08 978 417 c 0
1156 415 m 0
 1156 126.9 992 0 657 0 c 2
 186 0 l 1
 186 1437 l 1
 581 1437 l 2
 767.26 1437 893.6 1410.3 974 1350 c 0
 1054.4 1289.7 1088 1199.36 1088 1060 c 0
 1088 990.32 1068.65 935.54 1038.5 894 c 0
 1008.35 852.46 970.69 820.76 932.5 802 c 0
 894.31 783.24 857.46 774.68 832 772 c 1
 892.97 767.31 946.43 751.8 994 725 c 0
 1034.2 702.22 1075.35 668.41 1105.5 619.5 c 0
 1135.65 570.59 1156 506.12 1156 415 c 0
EndSplineSet
EndChar

StartChar: C
Encoding: 67 67 11
Width: 1164
VWidth: 0
Flags: W
PickledData: "(dp1
S'org.robofab.postScriptHintData'
p2
(dp3
sS'com.typemytype.robofont.layerData'
p4
(dp5
S'b'
(dp6
S'name'
p7
S'C'
sS'lib'
p8
(dp9
sS'unicodes'
p10
(tsS'width'
p11
I1164
sS'contours'
p12
((dp13
S'points'
p14
((dp15
S'segmentType'
p16
S'curve'
p17
sS'x'
F57
sS'smooth'
p18
I01
sS'y'
F721
s(dp19
S'y'
F145
sS'x'
F57
sg18
I00
s(dp20
S'y'
F-16
sS'x'
F371
sg18
I00
s(dp21
g16
S'curve'
p22
sS'x'
F695
sg18
I01
sS'y'
F-24
s(dp23
S'y'
F-28
sS'x'
F883
sg18
I00
s(dp24
S'y'
F9
sS'x'
F952
sg18
I00
s(dp25
g16
S'curve'
p26
sS'x'
F1040
sg18
I00
sS'y'
F43
s(dp27
g16
S'line'
p28
sS'x'
F1057
sg18
I00
sS'y'
F197
s(dp29
S'y'
F160
sS'x'
F962
s(dp30
S'y'
F117
sS'x'
F878
sg7
S'inserted'
p31
s(dp32
g16
S'curve'
p33
sS'x'
F702
sg18
I01
sS'y'
F127
s(dp34
S'y'
F142
sS'x'
F440
sg18
I00
s(dp35
S'y'
F278
sS'x'
F255
sg18
I00
s(dp36
g16
S'curve'
p37
sS'x'
F255
sg18
I01
sS'y'
F721
s(dp38
S'y'
F1164
sS'x'
F255
sg18
I00
s(dp39
S'y'
F1300
sS'x'
F440
sg18
I00
s(dp40
g16
S'curve'
p41
sS'x'
F702
sg18
I01
sS'y'
F1315
s(dp42
S'y'
F1325
sS'x'
F878
sg7
S'inserted'
p43
s(dp44
S'y'
F1282
sS'x'
F962
s(dp45
g16
S'curve'
p46
sS'x'
F1057
sg18
I00
sS'y'
F1245
s(dp47
g16
S'line'
p48
sS'x'
F1040
sg18
I00
sS'y'
F1399
s(dp49
S'y'
F1433
sS'x'
F952
sg18
I00
s(dp50
S'y'
F1470
sS'x'
F883
sg18
I00
s(dp51
g16
S'curve'
p52
sS'x'
F695
sg18
I01
sS'y'
F1466
s(dp53
S'y'
F1458
sS'x'
F371
sg18
I00
s(dp54
S'y'
F1297
sS'x'
F57
sg18
I00
stp55
stp56
sS'components'
p57
(tsS'anchors'
p58
(tsss."
LayerCount: 2
Fore
SplineSet
120 721 m 0
 120 -149 844 -70 1050 43 c 1
 1067 207 l 1
 911 120 316 -40 316 721 c 0
 316 1462 821 1327 1057 1235 c 1
 1040 1399 l 1
 830 1492 120 1631 120 721 c 0
EndSplineSet
EndChar

StartChar: D
Encoding: 68 68 14
Width: 1385
VWidth: 0
Flags: W
PickledData: "(dp1
S'org.robofab.postScriptHintData'
p2
(dp3
sS'com.typemytype.robofont.layerData'
p4
(dp5
s."
LayerCount: 2
Fore
SplineSet
575 144 m 2
 966 144 1069 276 1069 740 c 0
 1069 1117 978 1292 645 1292 c 2
 385 1292 l 1
 385 144 l 1
 575 144 l 2
188 0 m 1
 188 1437 l 1
 601 1437 l 2
 940 1437 1265 1375.28397031 1265 748 c 0
 1265 291.240130184 1146 0 646 0 c 2
 188 0 l 1
EndSplineSet
EndChar

StartChar: Delta
Encoding: 8710 8710 15
Width: 1090
VWidth: 0
Flags: W
PickledData: "(dp1
S'org.robofab.postScriptHintData'
p2
(dp3
sS'com.typemytype.robofont.layerData'
p4
(dp5
s."
LayerCount: 2
Fore
SplineSet
829 99 m 1
 547 973 l 1
 259 99 l 1
 829 99 l 1
52 -2 m 1
 460 1130 l 1
 632 1130 l 1
 1037 -2 l 1
 52 -2 l 1
EndSplineSet
EndChar

StartChar: E
Encoding: 69 69 16
Width: 1091
VWidth: 0
Flags: W
PickledData: "(dp1
S'org.robofab.postScriptHintData'
p2
(dp3
sS'com.typemytype.robofont.layerData'
p4
(dp5
s."
LayerCount: 2
Fore
SplineSet
186 0 m 1
 186 1437 l 1
 1002 1437 l 1
 978 1292 l 1
 375 1292 l 1
 375 809 l 1
 867 809 l 1
 867 670 l 1
 375 670 l 1
 375 145 l 1
 1000 145 l 1
 977 0 l 1
 186 0 l 1
EndSplineSet
EndChar

StartChar: Eth
Encoding: 208 208 21
Width: 1391
VWidth: 0
Flags: W
PickledData: "(dp1
S'org.robofab.postScriptHintData'
p2
(dp3
sS'com.typemytype.robofont.layerData'
p4
(dp5
s."
LayerCount: 2
Fore
SplineSet
194 0 m 1
 194 677 l 1
 45 677 l 1
 45 806 l 1
 194 806 l 1
 194 1437 l 1
 606 1437 l 2
 718.56 1437 827.84 1428.84 927 1394 c 0
 1026.16 1359.16 1111.36 1301.5 1173 1201 c 0
 1234.64 1100.5 1271 964.74 1271 749 c 0
 1271 578.82 1258.35 454.71 1221.5 345.5 c 0
 1184.65 236.29 1126.46 151.13 1034 91.5 c 0
 941.54 31.87 819.5 0 652 0 c 2
 194 0 l 1
588 139 m 2
 717.98 139 816.3 153.82 890 190 c 0
 963.7 226.18 1011.35 283.9 1041.5 371 c 0
 1071.65 458.1 1083 566.8 1083 741 c 0
 1083 935.3 1060.66 1064.88 995 1156 c 0
 929.34 1247.12 824.16 1293 658 1293 c 2
 386 1293 l 1
 386 806 l 1
 612 806 l 1
 612 677 l 1
 386 677 l 1
 386 139 l 1
 588 139 l 2
EndSplineSet
EndChar

StartChar: Euro
Encoding: 8364 8364 22
Width: 1279
VWidth: 0
Flags: W
PickledData: "(dp1
S'org.robofab.postScriptHintData'
p2
(dp3
sS'com.typemytype.robofont.layerData'
p4
(dp5
s."
LayerCount: 2
Fore
SplineSet
80 890 m 1
 204 890 l 1
 229.46 1092.34 298.99 1228.07 401.5 1314.5 c 0
 504.01 1400.93 634.58 1436 786 1436 c 0
 894.54 1436 988.66 1420.74 1057 1406 c 0
 1097.2 1397.29 1132.84 1387.72 1165 1377 c 1
 1180 1226 l 1
 1146.5 1237.39 1110.2 1247.62 1070 1257 c 0
 1001.66 1271.74 910.18 1288 807 1288 c 0
 697.12 1288 606.51 1262.15 537.5 1198.5 c 0
 468.49 1134.85 421.76 1037.4 403 890 c 1
 699 890 l 1
 699 762 l 1
 391 762 l 1
 391 718 l 2
 391 693.88 390.66 671.78 392 649 c 1
 701 649 l 1
 701 521 l 1
 406 521 l 1
 423.42 376.28 464.85 277.32 528.5 213 c 0
 592.15 148.68 678.12 121 788 121 c 0
 897.88 121 993.64 137.24 1066 156 c 0
 1107.54 166.05 1145.16 177.6 1180 191 c 1
 1164 39 l 1
 1131.17 26.27 1094.54 15.05 1053 5 c 0
 981.98 -12.42 883.92 -28 766 -28 c 0
 625.3 -28 498.99 2.41 400.5 87.5 c 0
 302.01 172.59 233.8 307.94 207 521 c 1
 81 521 l 1
 81 649 l 1
 194 649 l 1
 192.66 671.78 192 693.22 192 716 c 0
 192 724.04 191.66 753.96 193 762 c 1
 80 762 l 1
 80 890 l 1
EndSplineSet
EndChar

StartChar: F
Encoding: 70 70 23
Width: 1088
VWidth: 0
Flags: W
PickledData: "(dp1
S'org.robofab.postScriptHintData'
p2
(dp3
sS'com.typemytype.robofont.layerData'
p4
(dp5
s."
LayerCount: 2
Fore
SplineSet
371 0 m 1
 186 0 l 1
 186 1437 l 1
 1020 1437 l 1
 996 1292 l 1
 371 1292 l 1
 371 820 l 1
 926 820 l 1
 926 672 l 1
 371 672 l 1
 371 0 l 1
EndSplineSet
EndChar

StartChar: G
Encoding: 71 71 24
Width: 1360
VWidth: 0
Flags: W
PickledData: "(dp1
S'org.robofab.postScriptHintData'
p2
(dp3
sS'com.typemytype.robofont.layerData'
p4
(dp5
s."
LayerCount: 2
Fore
SplineSet
1108 4 m 1
 1070 125 l 1
 1019 61 912 -24 699 -24 c 0
 373 -24 120 186 120 721 c 0
 120 1298 424 1464 751 1464 c 0
 919 1464 1042 1432 1128 1399 c 1
 1142 1240 l 1
 1057 1273 934 1314 756 1314 c 0
 472 1314 318 1137 318 749 c 0
 318 332 431 127 717 127 c 0
 891 127 997 199 1053 253 c 1
 1053 609 l 1
 782 609 l 1
 763 743 l 1
 1212 743 l 1
 1212 4 l 1
 1108 4 l 1
EndSplineSet
EndChar

StartChar: H
Encoding: 72 72 25
Width: 1451
VWidth: 0
Flags: W
PickledData: "(dp1
S'org.robofab.postScriptHintData'
p2
(dp3
sS'com.typemytype.robofont.layerData'
p4
(dp5
s."
LayerCount: 2
Fore
SplineSet
1066 677 m 1
 385 677 l 1
 385 0 l 1
 188 0 l 1
 188 1437 l 1
 385 1437 l 1
 385 817 l 1
 1066 817 l 1
 1066 1437 l 1
 1263 1437 l 1
 1263 0 l 1
 1066 0 l 1
 1066 677 l 1
EndSplineSet
EndChar

StartChar: I
Encoding: 73 73 26
Width: 561
VWidth: 0
Flags: W
PickledData: "(dp1
S'org.robofab.postScriptHintData'
p2
(dp3
sS'com.typemytype.robofont.layerData'
p4
(dp5
s."
LayerCount: 2
Fore
SplineSet
189 0 m 1
 189 1437 l 1
 372 1437 l 1
 372 0 l 1
 189 0 l 1
EndSplineSet
EndChar

StartChar: J
Encoding: 74 74 31
Width: 706
VWidth: 0
Flags: W
PickledData: "(dp1
S'org.robofab.postScriptHintData'
p2
(dp3
sS'com.typemytype.robofont.layerData'
p4
(dp5
s."
LayerCount: 2
Fore
SplineSet
59 -14 m 1
 35 53 l 1
 127.46 53 190.78 59.9 235 80 c 0
 279.22 100.1 303.6 131.91 317 183.5 c 0
 330.4 235.09 333 303.86 333 399 c 2
 333 1437 l 1
 520 1437 l 1
 516 308 l 2
 516 198.12 497.15 101.68 433.5 32 c 0
 369.85 -37.68 262.56 -81 83 -81 c 1
 59 -14 l 1
EndSplineSet
EndChar

StartChar: K
Encoding: 75 75 32
Width: 1294
VWidth: 0
Flags: W
PickledData: "(dp1
S'org.robofab.postScriptHintData'
p2
(dp3
sS'com.typemytype.robofont.layerData'
p4
(dp5
s."
LayerCount: 2
Fore
SplineSet
1222 1384 m 1
 642 780 l 1
 1274 47 l 1
 1274 0 l 1
 1082 0 l 1
 513 672 l 1
 371 530 l 1
 371 0 l 1
 186 0 l 1
 186 1437 l 1
 371 1437 l 1
 371 740 l 1
 1037 1437 l 1
 1222 1437 l 1
 1222 1384 l 1
EndSplineSet
EndChar

StartChar: L
Encoding: 76 76 33
Width: 987
VWidth: 0
Flags: W
PickledData: "(dp1
S'org.robofab.postScriptHintData'
p2
(dp3
sS'com.typemytype.robofont.layerData'
p4
(dp5
s."
LayerCount: 2
Fore
SplineSet
186 0 m 1
 186 1437 l 1
 371 1437 l 1
 371 142 l 1
 959 142 l 1
 942 0 l 1
 186 0 l 1
EndSplineSet
EndChar

StartChar: Lslash
Encoding: 321 321 34
Width: 1014
VWidth: 0
Flags: W
PickledData: "(dp1
S'org.robofab.postScriptHintData'
p2
(dp3
sS'com.typemytype.robofont.layerData'
p4
(dp5
s."
LayerCount: 2
Fore
SplineSet
197 0 m 1
 197 641 l 1
 49 577 l 1
 49 722 l 1
 197 786 l 1
 197 1408 l 1
 382 1408 l 1
 382 862 l 1
 729 1014 l 1
 729 870 l 1
 382 717 l 1
 382 145 l 1
 970 145 l 1
 953 0 l 1
 197 0 l 1
EndSplineSet
EndChar

StartChar: M
Encoding: 77 77 35
Width: 1798
VWidth: 0
Flags: W
PickledData: "(dp1
S'org.robofab.postScriptHintData'
p2
(dp3
sS'com.typemytype.robofont.layerData'
p4
(dp5
s."
LayerCount: 2
Fore
SplineSet
244 1437 m 1
 518 1437 l 1
 839 380 l 1
 907 149 l 1
 969 380 l 1
 1291 1437 l 1
 1565 1437 l 1
 1618 0 l 1
 1435 0 l 1
 1404 988 l 1
 1403 1286 l 1
 1318 941 l 1
 1023 32 l 1
 786 32 l 1
 491 941 l 1
 407 1286 l 1
 404 987 l 1
 364 0 l 1
 180 0 l 1
 244 1437 l 1
EndSplineSet
EndChar

StartChar: N
Encoding: 78 78 36
Width: 1489
VWidth: 0
Flags: W
PickledData: "(dp1
S'org.robofab.postScriptHintData'
p2
(dp3
sS'com.typemytype.robofont.layerData'
p4
(dp5
s."
LayerCount: 2
Fore
SplineSet
362 1148 m 1
 362 0 l 1
 186 0 l 1
 186 1437 l 1
 376 1437 l 1
 1127 289 l 1
 1127 1437 l 1
 1303 1437 l 1
 1303 0 l 1
 1121 1 l 1
 362 1148 l 1
EndSplineSet
EndChar

StartChar: O
Encoding: 79 79 38
Width: 1399
VWidth: 0
Flags: W
PickledData: "(dp1
S'org.robofab.postScriptHintData'
p2
(dp3
sS'com.typemytype.robofont.layerData'
p4
(dp5
s."
LayerCount: 2
Fore
SplineSet
311 722 m 0
 311 533.06 338.02 386.01 401 283.5 c 0
 463.98 180.99 558.64 127 698 127 c 0
 838.7 127 934.02 180.99 997 283.5 c 0
 1059.98 386.01 1087 533.06 1087 722 c 0
 1087 909.6 1059.98 1056.16 997 1158 c 0
 934.02 1259.84 838.7 1314 698 1314 c 0
 559.98 1314 463.81 1259.84 401.5 1158 c 0
 339.19 1056.16 311 909.6 311 722 c 0
120 722 m 0
 120 1225.84 320.12 1464 698 1464 c 0
 1078.56 1464 1279 1225.84 1279 722 c 0
 1279 212.8 1078.56 -24 698 -24 c 0
 509.06 -24 365.82 35.55 268 159.5 c 0
 170.18 283.45 120 467.4 120 722 c 0
EndSplineSet
EndChar

StartChar: OE
Encoding: 338 338 39
Width: 1988
VWidth: 0
Flags: W
PickledData: "(dp1
S'org.robofab.postScriptHintData'
p2
(dp3
sS'com.typemytype.robofont.layerData'
p4
(dp5
s."
LayerCount: 2
Fore
SplineSet
120 724 m 0
 120 1008.08 184.48 1183.42 289 1300 c 0
 393.52 1416.58 534.22 1464 691 1464 c 0
 770.06 1464 832.91 1451.44 884.5 1430 c 0
 936.09 1408.56 974.52 1382.14 1004 1354 c 0
 1038.17 1321.17 1063.25 1284.54 1080 1243 c 1
 1080 1437 l 1
 1878 1437 l 1
 1878 1292 l 1
 1265 1292 l 1
 1265 826 l 1
 1795 826 l 1
 1795 681 l 1
 1265 681 l 1
 1265 146 l 1
 1888 146 l 1
 1888 0 l 1
 1080 0 l 1
 1080 216 l 1
 1062.58 163.74 1037.17 125.13 1003 99 c 1
 973.52 69.52 935.09 40.61 883.5 18.5 c 0
 831.91 -3.61 768.72 -18 691 -18 c 0
 534.22 -18 392.52 30.25 288 147.5 c 0
 183.48 264.75 120 445.28 120 724 c 0
318 724 m 0
 318 493.52 355.34 349.46 421 257 c 0
 486.66 164.54 578.44 130 691 130 c 0
 804.9 130 898.34 164.54 964 257 c 0
 1029.66 349.46 1066 493.52 1066 724 c 0
 1066 962.52 1029.66 1100.88 964 1192 c 0
 898.34 1283.12 804.9 1317 691 1317 c 0
 578.44 1317 486.66 1283.12 421 1192 c 0
 355.34 1100.88 318 962.52 318 724 c 0
EndSplineSet
EndChar

StartChar: Oslash
Encoding: 216 216 44
Width: 1398
VWidth: 0
Flags: W
PickledData: "(dp1
S'org.robofab.postScriptHintData'
p2
(dp3
sS'com.typemytype.robofont.layerData'
p4
(dp5
s."
LayerCount: 2
Fore
SplineSet
289 -106 m 1
 365 62 l 1
 200.85 175.23 120 392.37 120 720 c 0
 120 1226.52 319.12 1466 697 1466 c 0
 802.86 1466 896.6 1444.88 977 1402 c 1
 1060 1586 l 1
 1117 1554 l 1
 1033 1370 l 1
 1200.5 1256.1 1278 1040.26 1278 720 c 0
 1278 208.12 1077.56 -30 697 -30 c 0
 590.47 -30 499.39 -10.86 421 28 c 1
 346 -135 l 1
 289 -106 l 1
697 117 m 0
 837.7 117 933.02 171.82 996 275 c 0
 1058.98 378.18 1086 529.72 1086 720 c 0
 1086 939.76 1053.46 1109.48 961 1214 c 1
 488 176 l 1
 544.28 136.47 613.25 117 697 117 c 0
311 720 m 0
 311 489.52 349.22 325.18 439 222 c 1
 911 1257 l 1
 852.04 1301.22 781.42 1319 697 1319 c 0
 558.98 1319 463.81 1264.01 401.5 1161.5 c 0
 339.19 1058.99 311 910.28 311 720 c 0
EndSplineSet
EndChar

StartChar: P
Encoding: 80 80 46
Width: 1226
VWidth: 0
Flags: W
PickledData: "(dp1
S'org.robofab.postScriptHintData'
p2
(dp3
sS'com.typemytype.robofont.layerData'
p4
(dp5
s."
LayerCount: 2
Fore
SplineSet
545 717 m 2
 707.14 717 809.19 736.44 871.5 782 c 0
 933.81 827.56 955 894.14 955 1000 c 0
 955 1125.96 935.32 1196.29 871 1238.5 c 0
 806.68 1280.71 698.9 1293 518 1293 c 2
 371 1293 l 1
 371 717 l 1
 545 717 l 2
1148 998 m 0
 1148 834.52 1101.67 732 1000.5 665 c 0
 899.33 598 746.08 571 529 571 c 2
 434 571 l 2
 413.9 571 393.11 571.33 371 572 c 1
 371 0 l 1
 186 0 l 1
 186 1437 l 1
 495 1437 l 2
 754.96 1437 915.84 1411.34 1015 1343 c 0
 1114.16 1274.66 1148 1168.18 1148 998 c 0
EndSplineSet
EndChar

StartChar: Q
Encoding: 81 81 47
Width: 1395
VWidth: 0
Flags: W
PickledData: "(dp1
S'org.robofab.postScriptHintData'
p2
(dp3
sS'com.typemytype.robofont.layerData'
p4
(dp5
s."
LayerCount: 2
Fore
SplineSet
120 722 m 0
 120 983.3 174.5 1169.23 275 1290.5 c 0
 375.5 1411.77 517.78 1464 696 1464 c 0
 876.9 1464 1019.5 1411.77 1120 1290.5 c 0
 1220.5 1169.23 1275 983.3 1275 722 c 0
 1275 484.82 1228.08 312.6 1145 192 c 0
 1061.92 71.4 944.38 6.1 801 -14 c 1
 835.84 -42.14 884.7 -82.44 945 -128 c 0
 1005.3 -173.56 1074.62 -219.44 1151 -265 c 1
 1151 -266.34 1140.4 -281.07 1127 -300.5 c 0
 1113.6 -319.93 1096.4 -342.73 1083 -363.5 c 0
 1069.6 -384.27 1059 -398.66 1059 -400 c 1
 958.5 -345.06 866.89 -279 788.5 -212 c 0
 710.11 -145 645.56 -78.96 600 -20 c 1
 448.58 -1.24 330.08 65.89 247 188.5 c 0
 163.92 311.11 120 486.16 120 722 c 0
311 722 m 0
 311 534.4 338.02 385.01 401 282.5 c 0
 463.98 179.99 558.64 127 698 127 c 0
 836.02 127 932.19 179.99 994.5 282.5 c 0
 1056.81 385.01 1084 534.4 1084 722 c 0
 1084 908.26 1055.81 1057.5 993.5 1158 c 0
 931.19 1258.5 834.68 1314 698 1314 c 0
 559.98 1314 463.81 1258.5 401.5 1158 c 0
 339.19 1057.5 311 908.26 311 722 c 0
EndSplineSet
EndChar

StartChar: R
Encoding: 82 82 48
Width: 1235
VWidth: 0
Flags: W
PickledData: "(dp1
S'org.robofab.postScriptHintData'
p2
(dp3
sS'com.typemytype.robofont.layerData'
p4
(dp5
s."
LayerCount: 2
Fore
SplineSet
1165 0 m 1
 984 0 l 1
 574 600 l 1
 374 600 l 1
 374 0 l 1
 186 0 l 1
 186 1437 l 1
 616 1437 l 2
 775.46 1437 900.07 1419.47 986.5 1358.5 c 0
 1072.93 1297.53 1119 1198.18 1119 1028 c 0
 1119 872.56 1073.17 777.47 1005.5 716.5 c 0
 937.83 655.53 849.44 628.72 761 618 c 1
 1165 57 l 1
 1165 0 l 1
374 740 m 1
 598 740 l 2
 732 740 817.23 756.12 871.5 799 c 0
 925.77 841.88 946 907.82 946 1011 c 0
 946 1135.62 924.79 1205.63 866.5 1246.5 c 0
 808.21 1287.37 713.4 1299 566 1299 c 2
 374 1299 l 1
 374 740 l 1
EndSplineSet
EndChar

StartChar: S
Encoding: 83 83 49
Width: 1118
VWidth: 0
Flags: W
PickledData: "(dp1
S'org.robofab.postScriptHintData'
p2
(dp3
sS'com.typemytype.robofont.layerData'
p4
(dp5
s."
LayerCount: 2
Fore
SplineSet
586 1465 m 0
 705 1465 828 1443 936 1408 c 1
 957 1244 l 1
 881 1275 728 1313 584 1313 c 0
 400 1313 276 1266 276 1091 c 1
 280 964 341 910 586 835 c 1
 885 736 1024 673 1024 376 c 0
 1024 130 881 -24 533 -24 c 0
 336 -24 218 18 143 55 c 1
 117 213 l 1
 204 170 336 127 515 127 c 0
 719 127 838 181 838 380 c 0
 838 551 764 599 490 686 c 1
 206 770 94 863 96 1097 c 1
 103 1372 314 1465 586 1465 c 0
EndSplineSet
EndChar

StartChar: T
Encoding: 84 84 51
Width: 1072
VWidth: 0
Flags: W
PickledData: "(dp1
S'org.robofab.postScriptHintData'
p2
(dp3
sS'com.typemytype.robofont.layerData'
p4
(dp5
s."
LayerCount: 2
Fore
SplineSet
628 1293 m 1
 628 0 l 1
 441 0 l 1
 441 1293 l 1
 29 1293 l 1
 29 1437 l 1
 1043 1437 l 1
 1019 1293 l 1
 628 1293 l 1
EndSplineSet
EndChar

StartChar: Thorn
Encoding: 222 222 52
Width: 1226
VWidth: 0
Flags: W
PickledData: "(dp1
S'org.robofab.postScriptHintData'
p2
(dp3
sS'com.typemytype.robofont.layerData'
p4
(dp5
s."
LayerCount: 2
Fore
SplineSet
544 512 m 2
 706.14 512 808.19 531.61 870.5 576.5 c 0
 932.81 621.39 954 689.18 954 787 c 0
 954 906.26 934.32 976.46 870 1018 c 0
 805.68 1059.54 697.9 1071 517 1071 c 2
 370 1071 l 1
 370 512 l 1
 544 512 l 2
1147 785 m 0
 1147 629.56 1100.67 526.83 999.5 460.5 c 0
 898.33 394.17 745.08 367 528 367 c 2
 433 367 l 2
 412.9 367 392.11 367.33 370 368 c 1
 370 0 l 1
 185 0 l 1
 185 1409 l 1
 370 1409 l 1
 371 1216 l 1
 494 1216 l 2
 753.96 1216 914.84 1190.17 1014 1122.5 c 0
 1113.16 1054.83 1147 948.48 1147 785 c 0
EndSplineSet
EndChar

StartChar: U
Encoding: 85 85 53
Width: 1436
VWidth: 0
Flags: W
PickledData: "(dp1
S'org.robofab.postScriptHintData'
p2
(dp3
sS'com.typemytype.robofont.layerData'
p4
(dp5
s."
LayerCount: 2
Fore
SplineSet
720 127 m 0
 837.92 127 925.04 150.38 984 208 c 0
 1042.96 265.62 1073 362.92 1073 513 c 2
 1073 1437 l 1
 1263 1437 l 1
 1263 500 l 2
 1263 292.3 1206.65 163.23 1109.5 83.5 c 0
 1012.35 3.77 877.78 -24 721 -24 c 0
 558.86 -24 422.65 4.43 325.5 85.5 c 0
 228.35 166.57 173 295.98 173 501 c 2
 173 1437 l 1
 364 1437 l 1
 364 513 l 2
 364 362.92 390.21 265.62 448.5 208 c 0
 506.79 150.38 595.38 127 720 127 c 0
EndSplineSet
EndChar

StartChar: V
Encoding: 86 86 58
Width: 1189
VWidth: 0
Flags: W
PickledData: "(dp1
S'org.robofab.postScriptHintData'
p2
(dp3
sS'com.typemytype.robofont.layerData'
p4
(dp5
s."
LayerCount: 2
Fore
SplineSet
459 0 m 1
 45 1437 l 1
 256 1437 l 1
 520 421 l 1
 598 94 l 1
 672 421 l 1
 929 1437 l 1
 1143 1437 l 1
 731 0 l 1
 459 0 l 1
EndSplineSet
EndChar

StartChar: W
Encoding: 87 87 59
Width: 1858
VWidth: 0
Flags: W
PickledData: "(dp1
S'org.robofab.postScriptHintData'
p2
(dp3
sS'com.typemytype.robofont.layerData'
p4
(dp5
s."
LayerCount: 2
Fore
SplineSet
1218 0 m 1
 994 943 l 1
 929 1262 l 1
 866 942 l 1
 642 0 l 1
 366 0 l 1
 79 1437 l 1
 272 1437 l 1
 476 325 l 1
 512 124 l 1
 550 322 l 1
 794 1376 l 1
 1066 1376 l 1
 1311 321 l 1
 1350 124 l 1
 1386 325 l 1
 1588 1437 l 1
 1777 1437 l 1
 1494 0 l 1
 1218 0 l 1
EndSplineSet
EndChar

StartChar: X
Encoding: 88 88 60
Width: 1120
VWidth: 0
Flags: W
PickledData: "(dp1
S'org.robofab.postScriptHintData'
p2
(dp3
sS'com.typemytype.robofont.layerData'
p4
(dp5
s."
LayerCount: 2
Fore
SplineSet
494 484 m 1
 269 0 l 1
 61 0 l 1
 419 728 l 1
 64 1437 l 1
 272 1437 l 1
 494 953 l 1
 560 809 l 1
 626 953 l 1
 848 1437 l 1
 1057 1437 l 1
 697 728 l 1
 1059 0 l 1
 851 0 l 1
 626 485 l 1
 560 626 l 1
 494 484 l 1
EndSplineSet
EndChar

StartChar: Y
Encoding: 89 89 61
Width: 1133
VWidth: 0
Flags: W
PickledData: "(dp1
S'org.robofab.postScriptHintData'
p2
(dp3
sS'com.typemytype.robofont.layerData'
p4
(dp5
s."
LayerCount: 2
Fore
SplineSet
899 1437 m 1
 1107 1437 l 1
 667 450 l 1
 667 0 l 1
 465 0 l 1
 465 449 l 1
 27 1437 l 1
 237 1437 l 1
 467 871 l 1
 565 609 l 1
 572 609 l 1
 666 871 l 1
 899 1437 l 1
EndSplineSet
EndChar

StartChar: Z
Encoding: 90 90 64
Width: 1104
VWidth: 0
Flags: W
PickledData: "(dp1
S'org.robofab.postScriptHintData'
p2
(dp3
sS'com.typemytype.robofont.layerData'
p4
(dp5
s."
LayerCount: 2
Fore
SplineSet
92 156 m 1
 619 972 l 1
 840 1292 l 1
 638 1287 l 1
 88 1287 l 1
 112 1437 l 1
 1004 1437 l 1
 1020 1273 l 1
 392 291 l 1
 281 141 l 1
 484 147 l 1
 1006 147 l 1
 983 0 l 1
 107 0 l 1
 92 156 l 1
EndSplineSet
EndChar

StartChar: a
Encoding: 97 97 66
Width: 1108
VWidth: 0
Flags: W
PickledData: "(dp1
S'org.robofab.postScriptHintData'
p2
(dp3
sS'com.typemytype.robofont.layerData'
p4
(dp5
s."
LayerCount: 2
Fore
SplineSet
611 453 m 1
 493 453 296 447 296 272 c 0
 296 169 361 117 482 117 c 0
 618 117 695 164 749 204 c 1
 749 447 l 1
 700 450 l 1
 611 453 l 1
933 221 m 2
 933 143 945 136 993 136 c 0
 1008 136 1025 137 1039 137 c 1
 1025 2 l 1
 1025 2 945 -3 914 -3 c 0
 800 -3 763 80 763 117 c 1
 720 58 639 -18 421 -18 c 0
 243 -18 123 96 123 275 c 0
 123 514 349 568 581 568 c 0
 628 568 659 564 694 561 c 1
 749 553 l 1
 749 666 l 2
 749 879 689 912 518 912 c 0
 384 912 269 875 190 845 c 1
 210 996 l 1
 273 1023 370 1053 532 1053 c 0
 856 1053 933 935 933 611 c 2
 933 221 l 2
EndSplineSet
EndChar

StartChar: acute
Encoding: 180 180 69
Width: 393
VWidth: 0
Flags: W
PickledData: "(dp1
S'org.robofab.postScriptHintData'
p2
(dp3
sS'com.typemytype.robofont.layerData'
p4
(dp5
s."
LayerCount: 2
Fore
SplineSet
162 1707 m 1
 387 1707 l 1
 147 1155 l 1
 75 1155 l 1
 162 1707 l 1
EndSplineSet
EndChar

StartChar: ae
Encoding: 230 230 71
Width: 1648
VWidth: 0
Flags: W
PickledData: "(dp1
S'org.robofab.postScriptHintData'
p2
(dp3
sS'com.typemytype.robofont.layerData'
p4
(dp5
s."
LayerCount: 2
Fore
SplineSet
1486 20 m 1
 1461.21 11.29 1433.49 3.37 1402 -4 c 0
 1348.4 -16.06 1275.76 -28 1190 -28 c 0
 1035.23 -28 920.39 19.52 842 116 c 1
 821.9 95.9 777.04 60.99 702 29.5 c 0
 626.96 -1.99 524.02 -28 386 -28 c 0
 294.88 -28 219.6 -1.75 166 48.5 c 0
 112.4 98.75 82 172.86 82 268 c 0
 82 359.12 116.4 421.78 170 466 c 0
 223.6 510.22 296.28 532.94 374 545 c 0
 451.72 557.06 532.98 557.68 604 555 c 1
 632.14 552.32 661.22 551.68 684 549 c 0
 696.73 547.66 709.27 546.67 722 546 c 1
 722 651 l 2
 722 739.44 710.63 796.65 684.5 833.5 c 0
 658.37 870.35 615.64 886.64 554 892 c 0
 421.34 904.06 288.96 880.22 163 836 c 1
 183 969 l 1
 240.62 998.48 305 1017.62 372 1027 c 0
 439 1036.38 507.68 1037.36 572 1032 c 0
 718.06 1019.94 814.54 964.96 840 839 c 1
 877.52 914.04 927.55 962.18 984.5 993 c 0
 1041.45 1023.82 1104 1035 1171 1035 c 0
 1298.3 1035 1390.85 991.83 1454.5 925.5 c 0
 1518.15 859.17 1549.32 771.46 1552 679 c 0
 1552 650.86 1549.85 612.01 1546.5 576.5 c 0
 1543.15 540.99 1539.68 509.4 1537 496 c 1
 914 496 l 1
 914 460 l 2
 914 340.74 938.29 260.77 980.5 206.5 c 0
 1022.71 152.23 1081.66 126.38 1150 117 c 1
 1223.7 108.96 1295.02 114.62 1358 124 c 0
 1420.98 133.38 1473.82 145.96 1510 154 c 1
 1486 20 l 1
570 445 m 0
 498.98 445 419.81 442.12 357.5 418 c 0
 295.19 393.88 251 348.1 251 261 c 0
 251 151.12 319.06 106 441 106 c 0
 528.1 106 604.21 128.71 662.5 153.5 c 0
 720.79 178.29 759.6 206.28 773 217 c 1
 759.6 247.82 749.21 286.97 740.5 326.5 c 0
 731.79 366.03 727.34 406.84 726 439 c 1
 708.58 439.67 691.42 440.66 674 442 c 0
 643.18 443.34 604.84 445 570 445 c 0
1176 898 m 0
 1109 898 1049.73 880.56 1003.5 835 c 0
 957.27 789.44 925.04 717.88 917 608 c 1
 1392 608 l 1
 1393.34 606.66 1393 634.56 1393 656 c 0
 1390.32 741.76 1367.86 800.97 1329 840.5 c 0
 1290.14 880.03 1237.64 898 1176 898 c 0
EndSplineSet
EndChar

StartChar: ampersand
Encoding: 38 38 73
Width: 1464
VWidth: 0
Flags: W
PickledData: "(dp1
S'org.robofab.postScriptHintData'
p2
(dp3
sS'com.typemytype.robofont.layerData'
p4
(dp5
s."
LayerCount: 2
Fore
SplineSet
1318 -20 m 1
 1112 164 l 1
 1007.48 36.7 846.56 -24 600 -24 c 0
 408.38 -24 283.06 19.32 204 89 c 0
 124.94 158.68 94 253.84 94 353 c 0
 94 440.1 123.06 525.3 178 599 c 0
 232.94 672.7 321.5 740.42 422 790 c 1
 363.04 843.6 302.69 897.7 264.5 958 c 0
 226.31 1018.3 203 1083.94 203 1163 c 0
 203 1259.48 233.68 1325.06 298 1380 c 0
 362.32 1434.94 457.34 1464 590 1464 c 0
 722.66 1464 813.21 1432.6 871.5 1379 c 0
 929.79 1325.4 955 1263.1 955 1176 c 0
 955 1084.88 924.77 1008.83 870.5 942.5 c 0
 816.23 876.17 742.16 823.6 643 770 c 1
 1080 371 l 1
 1106.8 435.32 1121.62 528.39 1131 617.5 c 0
 1140.38 706.61 1144.98 802.12 1149 912 c 1
 1295 923 l 1
 1295 656.34 1269.38 446.46 1193 287 c 1
 1418 85 l 1
 1318 -20 l 1
603 123 m 0
 805.34 123 926.62 171.9 1003 259 c 1
 514 708 l 1
 347.84 616.88 269 516.04 269 374 c 0
 269 304.32 285.25 243.56 335.5 198 c 0
 385.75 152.44 469 123 603 123 c 0
367 1149 m 0
 367 1096.74 389.99 1042.58 425.5 993 c 0
 461.01 943.42 506.78 891.86 551 853 c 1
 611.3 889.18 673.76 931.27 722 977.5 c 0
 770.24 1023.73 803 1079.3 803 1153 c 0
 803 1214.64 790.01 1260.01 754.5 1291.5 c 0
 718.99 1322.99 664.42 1338 580 1338 c 0
 502.28 1338 449.67 1320.5 415.5 1287 c 0
 381.33 1253.5 367 1209.3 367 1149 c 0
EndSplineSet
EndChar

StartChar: approxequal
Encoding: 8776 8776 74
Width: 1014
VWidth: 0
Flags: W
PickledData: "(dp1
S'org.robofab.postScriptHintData'
p2
(dp3
sS'com.typemytype.robofont.layerData'
p4
(dp5
s."
LayerCount: 2
Fore
SplineSet
860 782 m 1
 860 747.83 854.06 717.8 842 691 c 0
 831.28 668.22 813.8 646.42 787 629 c 0
 760.2 611.58 724.58 601 675 601 c 0
 617.38 601 552.3 626.54 492 652 c 0
 431.7 677.46 376.2 703 336 703 c 0
 297.14 703 279.38 682.76 270 664 c 0
 264.64 652.61 261.67 640.07 261 626 c 1
 152 626 l 1
 154.01 658.83 161.93 688.2 176 715 c 0
 188.06 737.78 205.2 759.58 232 777 c 0
 258.8 794.42 292.76 805 341 805 c 0
 401.3 805 465.04 780.12 524 756 c 0
 582.96 731.88 637.46 707 679 707 c 0
 713.84 707 731.79 720.92 740.5 737 c 0
 749.21 753.08 749 771.28 749 782 c 1
 860 782 l 1
860 566 m 1
 860 532.5 854.06 502.8 842 476 c 0
 831.28 453.22 813.8 431.42 787 414 c 0
 760.2 396.58 724.58 386 675 386 c 0
 617.38 386 552.3 411.71 492 436.5 c 0
 431.7 461.29 376.2 487 336 487 c 0
 297.14 487 279.38 466.76 270 448 c 0
 264.64 436.61 261.67 424.07 261 410 c 1
 152 410 l 1
 154.01 443.5 161.93 473.2 176 500 c 0
 188.06 522.78 205.2 544.58 232 562 c 0
 258.8 579.42 292.76 590 341 590 c 0
 401.3 590 465.04 565.29 524 540.5 c 0
 582.96 515.71 637.46 491 679 491 c 0
 713.84 491 731.79 503.92 740.5 520 c 0
 749.21 536.08 749 555.28 749 566 c 1
 860 566 l 1
EndSplineSet
EndChar

StartChar: asciicircum
Encoding: 94 94 76
Width: 889
VWidth: 0
Flags: W
PickledData: "(dp1
S'org.robofab.postScriptHintData'
p2
(dp3
sS'com.typemytype.robofont.layerData'
p4
(dp5
s."
LayerCount: 2
Fore
SplineSet
836 279 m 1
 662 279 l 1
 653.96 297.76 630.65 363.92 600.5 447 c 0
 570.35 530.08 534.48 627.92 505 711 c 0
 475.52 794.08 450.7 859.9 444 880 c 1
 438.64 865.26 422.93 825.11 403.5 769.5 c 0
 384.07 713.89 360.29 647.34 335.5 579 c 0
 310.71 510.66 286.93 442.77 267.5 388.5 c 0
 248.07 334.23 233.36 292.4 228 279 c 1
 52 279 l 1
 57.36 289.72 77.52 338.83 107 406.5 c 0
 136.48 474.17 172.65 560.07 209.5 646.5 c 0
 246.35 732.93 282.52 818.83 312 886.5 c 0
 341.48 954.17 361.64 1002.28 367 1013 c 1
 522 1013 l 1
 836 279 l 1
EndSplineSet
EndChar

StartChar: asciitilde
Encoding: 126 126 77
Width: 893
VWidth: 0
Flags: W
PickledData: "(dp1
S'org.robofab.postScriptHintData'
p2
(dp3
sS'com.typemytype.robofont.layerData'
p4
(dp5
s."
LayerCount: 2
Fore
SplineSet
562 617 m 1
 579.42 612.98 592.95 614.63 603 622 c 0
 623.1 636.74 627.66 670.16 629 705 c 1
 760 705 l 1
 761.34 625.94 741.31 574.5 712.5 541 c 0
 683.69 507.5 645.18 492.34 609 491 c 0
 595.6 489.66 582.74 490.32 568 493 c 0
 522.44 498.36 475.88 522.88 433 547 c 0
 390.12 571.12 350.48 593.66 321 595 c 0
 300.9 595 287.04 583.59 279 565.5 c 0
 270.96 547.41 268 523.46 268 498 c 1
 136 498 l 1
 134.66 585.1 156.67 641.33 189.5 675.5 c 0
 222.33 709.67 266.78 722.34 311 721 c 1
 360.58 718.32 407.12 695.12 450 671 c 0
 492.88 646.88 529.84 622.36 562 617 c 1
EndSplineSet
EndChar

StartChar: asterisk
Encoding: 42 42 78
Width: 875
VWidth: 0
Flags: W
PickledData: "(dp1
S'org.robofab.postScriptHintData'
p2
(dp3
sS'com.typemytype.robofont.layerData'
p4
(dp5
s."
LayerCount: 2
Fore
SplineSet
309 722 m 1
 212 777 l 1
 357 1017 l 1
 94 1008 l 1
 94 1118 l 1
 359 1110 l 1
 225 1348 l 1
 322 1403 l 1
 438 1163 l 1
 569 1409 l 1
 666 1351 l 1
 516 1109 l 1
 782 1118 l 1
 782 1008 l 1
 519 1017 l 1
 655 776 l 1
 551 719 l 1
 438 964 l 1
 309 722 l 1
EndSplineSet
EndChar

StartChar: at
Encoding: 64 64 79
Width: 1603
VWidth: 0
Flags: W
PickledData: "(dp1
S'org.robofab.postScriptHintData'
p2
(dp3
sS'com.typemytype.robofont.layerData'
p4
(dp5
s."
LayerCount: 2
Fore
SplineSet
1035 896 m 1
 1030.98 896 1003.84 901.64 969 907 c 0
 934.16 912.36 893.48 918.34 864 917 c 0
 770.2 912.98 686.98 868 624 801 c 0
 561.02 734 521.02 646.78 517 557 c 1
 506.28 380.12 572.32 299 709 299 c 0
 800.12 299 867.25 333.34 917.5 399 c 0
 967.75 464.66 997.26 560.4 1012 681 c 1
 1035 896 l 1
1511 685 m 0
 1511 540.28 1480.73 437.04 1434.5 362 c 0
 1388.27 286.96 1328.3 241.46 1268 216 c 0
 1207.7 190.54 1150.54 183 1109 183 c 0
 1058.08 183 1031.57 200.69 1017.5 229.5 c 0
 1003.43 258.31 1002.98 299.44 1007 345 c 0
 1008.34 349.02 1012.98 375.54 1017 401 c 2
 1025 449 l 1
 1016 450 l 1
 1003.94 399.75 984.47 355.2 957 315 c 1
 932.88 281.5 901.05 246.29 857.5 221.5 c 0
 813.95 196.71 759.34 180 691 180 c 0
 594.52 180 519.6 213.19 466 275.5 c 0
 412.4 337.81 384 424.46 384 533 c 0
 384 620.1 410.1 705.45 457 782.5 c 0
 503.9 859.55 570.43 925.78 651.5 970 c 0
 732.57 1014.22 825.82 1035.4 929 1022 c 0
 961.16 1017.98 1006.31 1011.53 1044.5 1005.5 c 0
 1082.69 999.47 1112.66 994 1114 994 c 1
 1160 895 l 1
 1105 287 l 1
 1135.82 287 1176.63 291.9 1217.5 312 c 0
 1258.37 332.1 1298.35 367.87 1328.5 427.5 c 0
 1358.65 487.13 1378 568.74 1378 688 c 0
 1378 862.2 1323.48 988.58 1227 1073 c 0
 1130.52 1157.42 994.5 1198 827 1198 c 0
 644.76 1198 501.84 1125.24 400 1010 c 0
 298.16 894.76 240.04 739.5 232 572 c 1
 222.62 400.48 270.67 260.33 370.5 160.5 c 0
 470.33 60.67 620.02 3 817 3 c 0
 968.42 3 1072.66 35.48 1141 73 c 1
 1181.2 93.1 1213.87 115.54 1240 141 c 1
 1248.04 134.3 1260.43 118.08 1274.5 102 c 0
 1288.57 85.92 1300.96 70.04 1309 62 c 1
 1282.2 28.5 1245.9 -0.54 1199 -26 c 0
 1158.8 -47.44 1108.49 -70.75 1043.5 -87.5 c 0
 978.51 -104.25 900.8 -115 807 -115 c 0
 591.26 -115 410.3 -51.26 283 68 c 0
 155.7 187.26 85.96 354.92 94 572 c 0
 102.04 785.06 183.85 971.17 314.5 1104.5 c 0
 445.15 1237.83 621.34 1317 821 1317 c 0
 1017.98 1317 1189.55 1261.86 1313.5 1156 c 0
 1437.45 1050.14 1511 891.36 1511 685 c 0
EndSplineSet
EndChar

StartChar: b
Encoding: 98 98 81
Width: 1125
VWidth: 0
Flags: W
PickledData: "(dp1
S'org.robofab.postScriptHintData'
p2
(dp3
sS'com.typemytype.robofont.layerData'
p4
(dp5
s."
LayerCount: 2
Fore
SplineSet
152 0 m 1
 152 1418 l 1
 337 1437 l 1
 337 956 l 1
 361.12 972.08 388.18 986.27 419 999 c 0
 471.26 1021.78 543 1043 631 1043 c 0
 842 1043 1025 889 1025 510 c 0
 1025 117 813 -18 610 -18 c 0
 514 -18 440.92 10.18 390 41 c 0
 360.52 58.42 335.44 78.22 314 101 c 1
 288 -9 l 1
 152 0 l 1
337 217 m 1
 357.1 198.91 379.54 183.07 405 169 c 0
 447.88 144.88 508 122 582 122 c 0
 721 122 840 225 840 506 c 0
 840 759 758 901 595 901 c 0
 521 901 458.9 881.1 412 861 c 0
 385.2 848.94 360.45 836.07 337 822 c 1
 337 217 l 1
EndSplineSet
EndChar

StartChar: backslash
Encoding: 92 92 82
Width: 698
VWidth: 0
Flags: W
PickledData: "(dp1
S'org.robofab.postScriptHintData'
p2
(dp3
sS'com.typemytype.robofont.layerData'
p4
(dp5
s."
LayerCount: 2
Fore
SplineSet
238 1533 m 1
 620 -179 l 1
 461 -220 l 1
 78 1492 l 1
 238 1533 l 1
EndSplineSet
EndChar

StartChar: bar
Encoding: 124 124 83
Width: 533
VWidth: 0
Flags: W
PickledData: "(dp1
S'org.robofab.postScriptHintData'
p2
(dp3
sS'com.typemytype.robofont.layerData'
p4
(dp5
s."
LayerCount: 2
Fore
SplineSet
173 -131 m 1
 173 1473 l 1
 361 1473 l 1
 361 -131 l 1
 173 -131 l 1
EndSplineSet
EndChar

StartChar: blacksun
Encoding: 9728 9728 84
Width: 1355
VWidth: 0
Flags: W
PickledData: "(dp1
S'org.robofab.postScriptHintData'
p2
(dp3
sS'com.typemytype.robofont.layerData'
p4
(dp5
s."
LayerCount: 2
Fore
SplineSet
988 529 m 1
 1156 189 l 1
 808 350 l 1
 679 -10 l 1
 551 348 l 1
 205 182 l 1
 368 528 l 1
 5 655 l 1
 366 783 l 1
 200 1123 l 1
 549 961 l 1
 677 1323 l 1
 806 963 l 1
 1150 1130 l 1
 988 783 l 1
 1351 657 l 1
 988 529 l 1
384 625 m 1
 393.38 544.6 433.7 475.41 494 426.5 c 0
 554.3 377.59 631.58 351.62 716 361 c 1
 801.76 369.04 873.76 411.7 922 472 c 0
 970.24 532.3 993.38 609.6 984 690 c 1
 975.96 775.76 933.47 846.1 872.5 893 c 0
 811.53 939.9 733.74 964.38 652 955 c 0
 564.9 945.62 495.24 904.3 447 844 c 0
 398.76 783.7 375.96 706.74 384 625 c 1
EndSplineSet
EndChar

StartChar: braceleft
Encoding: 123 123 85
Width: 608
VWidth: 0
Flags: W
PickledData: "(dp1
S'org.robofab.postScriptHintData'
p2
(dp3
sS'com.typemytype.robofont.layerData'
p4
(dp5
s."
LayerCount: 2
Fore
SplineSet
74 657 m 1
 199 752 l 1
 199 938.26 207.73 1071.18 228.5 1169 c 0
 249.27 1266.82 281.59 1326.82 330.5 1363 c 0
 379.41 1399.18 442.92 1410.66 526 1412 c 1
 526 1322 l 1
 476.42 1322 443.61 1312.33 421.5 1279.5 c 0
 399.39 1246.67 388.53 1192.12 382.5 1101 c 0
 376.47 1009.88 377 883.54 377 708 c 1
 211 605 l 1
 377 497 l 1
 377 321.46 376.47 196.12 382.5 105 c 0
 388.53 13.88 399.39 -40.67 421.5 -73.5 c 0
 443.61 -106.33 476.42 -116 526 -116 c 1
 526 -206 l 1
 442.92 -204.66 379.41 -193.18 330.5 -157 c 0
 281.59 -120.82 249.27 -60.82 228.5 37 c 0
 207.73 134.82 199 267.74 199 454 c 1
 74 550 l 1
 74 657 l 1
EndSplineSet
EndChar

StartChar: braceright
Encoding: 125 125 86
Width: 608
VWidth: 0
Flags: W
PickledData: "(dp1
S'org.robofab.postScriptHintData'
p2
(dp3
sS'com.typemytype.robofont.layerData'
p4
(dp5
s."
LayerCount: 2
Fore
SplineSet
535 550 m 1
 409 454 l 1
 409 267.74 400.27 134.82 379.5 37 c 0
 358.73 -60.82 326.41 -120.82 277.5 -157 c 0
 228.59 -193.18 165.08 -204.66 82 -206 c 1
 82 -116 l 1
 131.58 -116 164.39 -106.33 186.5 -73.5 c 0
 208.61 -40.67 218.47 13.88 224.5 105 c 0
 230.53 196.12 230 321.46 230 497 c 1
 397 605 l 1
 230 708 l 1
 230 883.54 230.53 1009.88 224.5 1101 c 0
 218.47 1192.12 208.61 1246.67 186.5 1279.5 c 0
 164.39 1312.33 131.58 1322 82 1322 c 1
 82 1412 l 1
 165.08 1410.66 228.59 1399.18 277.5 1363 c 0
 326.41 1326.82 358.73 1266.82 379.5 1169 c 0
 400.27 1071.18 409 938.26 409 752 c 1
 535 657 l 1
 535 550 l 1
EndSplineSet
EndChar

StartChar: bracketleft
Encoding: 91 91 87
Width: 646
VWidth: 0
Flags: W
PickledData: "(dp1
S'org.robofab.postScriptHintData'
p2
(dp3
sS'com.typemytype.robofont.layerData'
p4
(dp5
s."
LayerCount: 2
Fore
SplineSet
172 -218 m 1
 172 1437 l 1
 578 1437 l 1
 578 1319 l 1
 341 1319 l 1
 347 966 l 1
 347 337 l 1
 341 -102 l 1
 578 -102 l 1
 578 -218 l 1
 172 -218 l 1
EndSplineSet
EndChar

StartChar: bracketright
Encoding: 93 93 88
Width: 646
VWidth: 0
Flags: W
PickledData: "(dp1
S'org.robofab.postScriptHintData'
p2
(dp3
sS'com.typemytype.robofont.layerData'
p4
(dp5
s."
LayerCount: 2
Fore
SplineSet
69 -218 m 1
 69 -102 l 1
 306 -102 l 1
 300 337 l 1
 300 966 l 1
 306 1319 l 1
 69 1319 l 1
 69 1437 l 1
 475 1437 l 1
 475 -218 l 1
 69 -218 l 1
EndSplineSet
EndChar

StartChar: breve
Encoding: 728 728 89
Width: 861
VWidth: 0
Flags: W
PickledData: "(dp1
S'org.robofab.postScriptHintData'
p2
(dp3
sS'com.typemytype.robofont.layerData'
p4
(dp5
s."
LayerCount: 2
Fore
SplineSet
431 1190 m 0
 342.56 1190 269.62 1214.65 212 1251.5 c 0
 154.38 1288.35 113.14 1337.1 85 1384 c 1
 162 1456 l 1
 220.96 1379.62 306.38 1322 431 1322 c 0
 495.32 1322 548.61 1337.71 593.5 1362.5 c 0
 638.39 1387.29 673.2 1421.16 700 1456 c 1
 775 1384 l 1
 750.88 1341.12 713.45 1293.69 656.5 1255.5 c 0
 599.55 1217.31 526.14 1190 431 1190 c 0
EndSplineSet
EndChar

StartChar: brokenbar
Encoding: 166 166 90
Width: 534
VWidth: 0
Flags: W
PickledData: "(dp1
S'org.robofab.postScriptHintData'
p2
(dp3
sS'com.typemytype.robofont.layerData'
p4
(dp5
s."
LayerCount: 2
Fore
SplineSet
177 -138 m 1
 177 576 l 1
 357 576 l 1
 357 -138 l 1
 177 -138 l 1
177 815 m 1
 177 1473 l 1
 357 1473 l 1
 357 815 l 1
 177 815 l 1
EndSplineSet
EndChar

StartChar: bullet
Encoding: 8226 8226 91
Width: 926
VWidth: 0
Flags: W
PickledData: "(dp1
S'org.robofab.postScriptHintData'
p2
(dp3
sS'com.typemytype.robofont.layerData'
p4
(dp5
s."
LayerCount: 2
Fore
SplineSet
811 607 m 0
 811 491.76 766 407.62 699 350 c 0
 632 292.38 545.74 264 464 264 c 0
 356.8 264 271.47 303.02 210.5 366 c 0
 149.53 428.98 116 513.88 116 605 c 0
 116 701.48 152.19 786.19 214.5 848.5 c 0
 276.81 910.81 363.5 949 464 949 c 0
 564.5 949 650.19 909.81 712.5 847.5 c 0
 774.81 785.19 811 699.46 811 607 c 0
EndSplineSet
EndChar

StartChar: c
Encoding: 99 99 92
Width: 931
VWidth: 0
Flags: W
PickledData: "(dp1
S'org.robofab.postScriptHintData'
p2
(dp3
sS'com.typemytype.robofont.layerData'
p4
(dp5
S'b'
(dp6
S'name'
p7
S'c'
sS'lib'
p8
(dp9
sS'unicodes'
p10
(tsS'width'
p11
I931
sS'contours'
p12
((dp13
S'points'
p14
((dp15
S'segmentType'
p16
S'curve'
p17
sS'x'
F567
sS'smooth'
p18
I00
sS'y'
F122
s(dp19
S'y'
F122
sS'x'
F767.36512314696597
sg18
I00
s(dp20
S'y'
F283.47589861923916
sS'x'
F834
sg18
I00
s(dp21
g16
S'curve'
p22
sS'x'
F834
sg18
I00
sS'y'
F512
s(dp23
S'y'
F763.43561429291572
sS'x'
F834
sg18
I00
s(dp24
S'y'
F901
sS'x'
F765.70279698398087
sg18
I00
s(dp25
g16
S'curve'
p26
sS'x'
F567
sg18
I00
sS'y'
F901
s(dp27
S'y'
F901
sS'x'
F364.22571121215833
sg18
I00
s(dp28
S'y'
F761.73480352134118
sS'x'
F300
sg18
I00
s(dp29
g16
S'curve'
p30
sS'x'
F300
sg18
I00
sS'y'
F512
s(dp31
S'y'
F284.9195271001052
sS'x'
F300
sg18
I00
s(dp32
S'y'
F122
sS'x'
F365.36108701697572
sg18
I00
stp33
s(dp34
g14
((dp35
g16
S'curve'
p36
sS'x'
F567
sg18
I00
sS'y'
F1043
s(dp37
S'y'
F1043
sS'x'
F876.20612768550893
sg18
I00
s(dp38
S'y'
F835.89955347553723
sS'x'
F1020
sg18
I00
s(dp39
g16
S'curve'
p40
sS'x'
F1020
sg18
I00
sS'y'
F510
s(dp41
S'y'
F198.10512337809536
sS'x'
F1020
sg18
I00
s(dp42
S'y'
F-18
sS'x'
F874.20039876792441
sg18
I00
s(dp43
g16
S'curve'
p44
sS'x'
F567
sg18
I00
sS'y'
F-18
s(dp45
S'y'
F-18
sS'x'
F257.12829341670243
sg18
I00
s(dp46
S'y'
F198.1051233780953
sS'x'
F113
sg18
I00
s(dp47
g16
S'curve'
p48
sS'x'
F113
sg18
I00
sS'y'
F510
s(dp49
S'y'
F835.89955347553712
sS'x'
F113
sg18
I00
s(dp50
S'y'
F1043
sS'x'
F255.1051233780953
sg18
I00
stp51
stp52
sS'components'
p53
(tsS'anchors'
p54
(tsss."
LayerCount: 2
Fore
SplineSet
579 -18 m 0
 677 -18 764 6 812 35 c 1
 824 180 l 1
 758 148 671 121 587 121 c 0
 434 121 289 209 289 513 c 0
 289 817 430 900 581 900 c 0
 666 900 755 874 824 846 c 1
 812 991 l 1
 762 1018 669 1043 566 1043 c 0
 354 1043 100 936 100 513 c 0
 100 96 364 -18 579 -18 c 0
EndSplineSet
EndChar

StartChar: caron
Encoding: 711 711 93
Width: 703
VWidth: 0
Flags: W
PickledData: "(dp1
S'org.robofab.postScriptHintData'
p2
(dp3
sS'com.typemytype.robofont.layerData'
p4
(dp5
s."
LayerCount: 2
Fore
SplineSet
60 1681 m 1
 246 1681 l 1
 344 1309 l 1
 358 1309 l 1
 458 1681 l 1
 642 1681 l 1
 443 1186 l 1
 260 1186 l 1
 60 1681 l 1
EndSplineSet
EndChar

StartChar: cedilla
Encoding: 184 184 95
Width: 537
VWidth: 0
Flags: W
PickledData: "(dp1
S'org.robofab.postScriptHintData'
p2
(dp3
sS'com.typemytype.robofont.layerData'
p4
(dp5
s."
LayerCount: 2
Fore
SplineSet
498 -340 m 0
 498 -402.98 475.03 -452.33 435.5 -486.5 c 0
 395.97 -520.67 343.3 -538 283 -538 c 0
 229.4 -538 187.82 -526.06 157 -514 c 0
 139.58 -506.63 124.4 -498.71 111 -490 c 1
 101 -394 l 1
 120.43 -402.04 140.23 -409.3 161 -416 c 0
 195.84 -426.72 239.14 -437 278 -437 c 0
 326.24 -437 352.09 -420.93 367.5 -401.5 c 0
 382.91 -382.07 386 -359.74 386 -345 c 0
 386 -298.1 359.73 -272.74 313.5 -258 c 0
 267.27 -243.26 202.06 -238.7 123 -232 c 1
 123 -225.3 125.98 -207.95 130 -184.5 c 0
 134.02 -161.05 138.98 -133.14 143 -105 c 0
 148.36 -72.84 154.3 -37.53 161 2 c 1
 263 2 l 1
 256.97 -23.46 251.36 -46.89 246 -69 c 0
 236.62 -106.52 228.68 -144.28 226 -155 c 1
 258.16 -155 298.63 -157.62 339.5 -167 c 0
 380.37 -176.38 419.52 -193.03 449 -220.5 c 0
 478.48 -247.97 498 -286.4 498 -340 c 0
EndSplineSet
EndChar

StartChar: cent
Encoding: 162 162 96
Width: 981
VWidth: 0
Flags: W
PickledData: "(dp1
S'org.robofab.postScriptHintData'
p2
(dp3
sS'com.typemytype.robofont.layerData'
p4
(dp5
s."
LayerCount: 2
Fore
SplineSet
562 -129 m 1
 500 -129 l 1
 528 1161 l 1
 588 1161 l 1
 562 -129 l 1
97 504 m 0
 97 705 155.73 836.92 243.5 920 c 0
 331.27 1003.08 443.78 1036.34 555 1035 c 1
 648.8 1035 733.36 1010.41 795 961.5 c 0
 856.64 912.59 891.7 840.48 885 744 c 1
 733 750 l 1
 734.34 853.18 669.9 894.34 556 893 c 0
 475.6 891.66 409.24 868.3 361 808 c 0
 312.76 747.7 286 651.72 286 507 c 0
 286 360.94 310.76 261.98 359 199 c 0
 407.24 136.02 477.22 109 567 109 c 0
 646.06 109 718.23 126.58 772.5 144 c 0
 826.77 161.42 860 179 860 179 c 1
 834 42 l 1
 817.92 31.28 784.41 14.91 735.5 -0.5 c 0
 686.59 -15.91 623.36 -28 551 -28 c 0
 477.3 -28 403 -13.67 336 20.5 c 0
 269 54.67 208.88 106.77 166 186.5 c 0
 123.12 266.23 97 368.66 97 504 c 0
EndSplineSet
EndChar

StartChar: circumflex
Encoding: 710 710 97
Width: 754
VWidth: 0
Flags: W
PickledData: "(dp1
S'org.robofab.postScriptHintData'
p2
(dp3
sS'com.typemytype.robofont.layerData'
p4
(dp5
s."
LayerCount: 2
Fore
SplineSet
281 1665 m 1
 470 1665 l 1
 692 1172 l 1
 496 1172 l 1
 381 1539 l 1
 369 1539 l 1
 257 1172 l 1
 62 1172 l 1
 281 1665 l 1
EndSplineSet
EndChar

StartChar: colon
Encoding: 58 58 98
Width: 501
VWidth: 0
Flags: W
PickledData: "(dp1
S'org.robofab.postScriptHintData'
p2
(dp3
sS'com.typemytype.robofont.layerData'
p4
(dp5
s."
LayerCount: 2
Fore
SplineSet
353 306 m 1
 353 94 l 1
 147 94 l 1
 147 306 l 1
 353 306 l 1
353 805 m 1
 353 591 l 1
 148 591 l 1
 148 805 l 1
 353 805 l 1
EndSplineSet
EndChar

StartChar: comma
Encoding: 44 44 99
Width: 507
VWidth: 0
Flags: W
PickledData: "(dp1
S'org.robofab.postScriptHintData'
p2
(dp3
sS'com.typemytype.robofont.layerData'
p4
(dp5
s."
LayerCount: 2
Fore
SplineSet
138 200 m 1
 364 216 l 1
 365.34 199.92 366.99 182.76 369 164 c 0
 371.68 131.84 375 89.9 375 43 c 0
 375 -19.98 362.82 -71.95 332 -115.5 c 0
 301.18 -159.05 251.72 -191.56 174 -213 c 1
 147 -133 l 1
 222.04 -124.96 258 -71.02 258 0 c 1
 138 0 l 1
 138 200 l 1
EndSplineSet
EndChar

StartChar: copyright
Encoding: 169 169 100
Width: 1612
VWidth: 0
Flags: W
PickledData: "(dp1
S'org.robofab.postScriptHintData'
p2
(dp3
sS'com.typemytype.robofont.layerData'
p4
(dp5
s."
LayerCount: 2
Fore
SplineSet
1402 708 m 0
 1402 812.52 1376.9 914.54 1330 1007 c 0
 1283.1 1099.46 1214.44 1179.38 1126 1237 c 0
 1037.56 1294.62 931.28 1329 808 1329 c 0
 636.48 1329 489.03 1261.56 382.5 1149 c 0
 275.97 1036.44 212 882.2 212 708 c 0
 212 531.12 272.97 378.22 379.5 267 c 0
 486.03 155.78 632.46 89 808 89 c 0
 968.8 89 1116.29 150.46 1225.5 259 c 0
 1334.71 367.54 1402 520.4 1402 708 c 0
1520 708 m 0
 1520 559.26 1481.83 430.37 1415.5 322.5 c 0
 1349.17 214.63 1257.86 130.79 1152 72.5 c 0
 1046.14 14.21 926.6 -17 806 -17 c 0
 672 -17 550.03 17.53 443.5 78.5 c 0
 336.97 139.47 250.81 227.63 188.5 335.5 c 0
 126.19 443.37 92 568.64 92 708 c 0
 92 846.02 127.02 970.46 190 1079 c 0
 252.98 1187.54 339.97 1275.19 446.5 1337.5 c 0
 553.03 1399.81 674.68 1435 806 1435 c 0
 949.38 1435 1074.97 1395.83 1181.5 1329.5 c 0
 1288.03 1263.17 1371.04 1170.54 1430 1062 c 0
 1488.96 953.46 1520 832.62 1520 708 c 0
1047 313 m 1
 1041.64 310.32 1013.54 293.91 972 278.5 c 0
 930.46 263.09 874.96 248 816 248 c 0
 671.28 248 572.98 304.07 510 390.5 c 0
 447.02 476.93 421 591.42 421 708 c 0
 421 840.66 454.17 955.26 520.5 1037 c 0
 586.83 1118.74 684.68 1167 816 1167 c 0
 873.62 1167 928.12 1154.57 971 1140.5 c 0
 1013.88 1126.43 1042.98 1112.68 1047 1110 c 1
 1053 1013 l 1
 1032.23 1021.04 1010.12 1028.63 986 1036 c 0
 943.12 1048.06 887.32 1060 823 1060 c 0
 718.48 1060 648.88 1020.32 606 956 c 0
 563.12 891.68 546 804.48 546 708 c 0
 546 604.82 561.95 517.98 605.5 455 c 0
 649.05 392.02 717.14 355 823 355 c 0
 887.32 355 942.46 369.26 984 384 c 0
 1025.54 398.74 1050.32 414.32 1053 417 c 1
 1047 313 l 1
EndSplineSet
EndChar

StartChar: currency
Encoding: 164 164 101
Width: 1184
VWidth: 0
Flags: W
PickledData: "(dp1
S'org.robofab.postScriptHintData'
p2
(dp3
sS'com.typemytype.robofont.layerData'
p4
(dp5
s."
LayerCount: 2
Fore
SplineSet
591 1354 m 0
 699.54 1354 779.68 1326.56 844 1281 c 1
 970 1409 l 1
 1040 1337 l 1
 916 1213 l 1
 977.64 1137.96 1005 1044.16 1005 945 c 0
 1005 847.18 979.3 755.7 919 682 c 1
 1040 560 l 1
 973 490 l 1
 850 613 l 1
 785.68 564.76 702.22 536 591 536 c 0
 479.78 536 396.66 565.1 331 612 c 1
 211 490 l 1
 145 560 l 1
 262 679 l 1
 201.7 754.04 175 847.18 175 945 c 0
 175 1045.5 202.02 1139.96 265 1215 c 1
 145 1337 l 1
 215 1409 l 1
 338 1283 l 1
 402.32 1327.22 482.46 1354 591 1354 c 0
591 677 m 0
 684.8 677 748.46 709.25 790 759.5 c 0
 831.54 809.75 849 875.32 849 945 c 0
 849 1013.34 831.37 1079.42 790.5 1129 c 0
 749.63 1178.58 684.8 1211 591 1211 c 0
 495.86 1211 431.37 1178.58 390.5 1129 c 0
 349.63 1079.42 332 1013.34 332 945 c 0
 332 875.32 349.46 809.75 391 759.5 c 0
 432.54 709.25 495.86 677 591 677 c 0
EndSplineSet
EndChar

StartChar: cycle
Encoding: 10091 10091 102
Width: 1551
VWidth: 0
Flags: W
PickledData: "(dp1
S'org.robofab.postScriptHintData'
p2
(dp3
sS'com.typemytype.robofont.layerData'
p4
(dp5
s."
LayerCount: 2
Fore
SplineSet
1021 143 m 1
 674 -82 l 1
 674 81 l 1
 136 81 l 1
 136 888 l 1
 467 889 l 1
 467 762 l 1
 304 763 l 1
 304 210 l 1
 674 210 l 1
 674 363 l 1
 1021 143 l 1
869 1053 m 1
 868 889 l 1
 1416 889 l 1
 1416 81 l 1
 1083 81 l 1
 1083 211 l 1
 1246 210 l 1
 1245 760 l 1
 869 762 l 1
 869 607 l 1
 525 840 l 1
 869 1053 l 1
EndSplineSet
EndChar

StartChar: d
Encoding: 100 100 103
Width: 1125
VWidth: 0
Flags: W
PickledData: "(dp1
S'org.robofab.postScriptHintData'
p2
(dp3
sS'com.typemytype.robofont.layerData'
p4
(dp5
s."
LayerCount: 2
Fore
SplineSet
522 -18 m 0
 323 -18 100 116.892254789 100 507 c 0
 100 883.817717112 295 1043 513 1043 c 0
 648 1043 720.231914037 1004.55604751 790 966 c 1
 790 1418 l 1
 973 1437 l 1
 973 0 l 1
 830 -8 l 1
 798 102 l 1
 742.837910884 39.4829656682 680 -18 522 -18 c 0
551 122 m 0
 670 122 731.984401411 168.236351235 790 219 c 1
 790 833 l 1
 721.177367422 868.341351865 659 901 542 901 c 0
 381 901 284 757.6 284 503 c 0
 284 223.944538717 414 122 551 122 c 0
EndSplineSet
EndChar

StartChar: dagger
Encoding: 8224 8224 104
Width: 853
VWidth: 0
Flags: W
PickledData: "(dp1
S'org.robofab.postScriptHintData'
p2
(dp3
sS'com.typemytype.robofont.layerData'
p4
(dp5
s."
LayerCount: 2
Fore
SplineSet
790 1008 m 1
 790 883 l 1
 507 883 l 1
 507 0 l 1
 346 0 l 1
 346 883 l 1
 63 883 l 1
 63 1008 l 1
 346 1008 l 1
 346 1334 l 1
 507 1334 l 1
 507 1008 l 1
 790 1008 l 1
EndSplineSet
EndChar

StartChar: daggerdbl
Encoding: 8225 8225 105
Width: 831
VWidth: 0
Flags: W
PickledData: "(dp1
S'org.robofab.postScriptHintData'
p2
(dp3
sS'com.typemytype.robofont.layerData'
p4
(dp5
s."
LayerCount: 2
Fore
SplineSet
117 410 m 1
 117 522 l 1
 332 522 l 1
 332 867 l 1
 117 867 l 1
 117 979 l 1
 332 979 l 1
 332 1252 l 1
 497 1252 l 1
 497 979 l 1
 714 979 l 1
 714 867 l 1
 497 867 l 1
 497 522 l 1
 714 522 l 1
 714 410 l 1
 497 410 l 1
 497 129 l 1
 332 129 l 1
 332 410 l 1
 117 410 l 1
EndSplineSet
EndChar

StartChar: degree
Encoding: 176 176 106
Width: 675
VWidth: 0
Flags: W
PickledData: "(dp1
S'org.robofab.postScriptHintData'
p2
(dp3
sS'com.typemytype.robofont.layerData'
p4
(dp5
s."
LayerCount: 2
Fore
SplineSet
456 985 m 0
 456 1053.34 412.04 1103 337 1103 c 0
 264.64 1103 218 1054.68 218 985 c 0
 218 916.66 260.62 869 337 869 c 0
 409.36 869 456 915.32 456 985 c 0
570 985 m 0
 570 919.34 545.37 862.54 504.5 821 c 0
 463.63 779.46 405.34 755 337 755 c 0
 270 755 212.54 779.63 171 820.5 c 0
 129.46 861.37 106 918 106 985 c 0
 106 1050.66 129.46 1107.63 171 1148.5 c 0
 212.54 1189.37 270 1213 337 1213 c 0
 405.34 1213 463.63 1188.37 504.5 1147.5 c 0
 545.37 1106.63 570 1050.66 570 985 c 0
EndSplineSet
EndChar

StartChar: dieresis
Encoding: 168 168 107
Width: 847
VWidth: 0
Flags: W
PickledData: "(dp1
S'org.robofab.postScriptHintData'
p2
(dp3
sS'com.typemytype.robofont.layerData'
p4
(dp5
s."
LayerCount: 2
Fore
SplineSet
322 1331 m 1
 322 1164 l 1
 149 1164 l 1
 149 1331 l 1
 322 1331 l 1
698 1331 m 1
 698 1164 l 1
 524 1164 l 1
 524 1331 l 1
 698 1331 l 1
EndSplineSet
EndChar

StartChar: divide
Encoding: 247 247 108
Width: 1022
VWidth: 0
Flags: W
PickledData: "(dp1
S'org.robofab.postScriptHintData'
p2
(dp3
sS'com.typemytype.robofont.layerData'
p4
(dp5
s."
LayerCount: 2
Fore
SplineSet
427 731 m 1
 427 908 l 1
 602 908 l 1
 602 731 l 1
 427 731 l 1
127 521 m 1
 127 641 l 1
 896 641 l 1
 896 521 l 1
 127 521 l 1
427 243 m 1
 427 421 l 1
 602 421 l 1
 602 243 l 1
 427 243 l 1
EndSplineSet
EndChar

StartChar: dollar
Encoding: 36 36 109
Width: 1014
VWidth: 0
Flags: W
PickledData: "(dp1
S'org.robofab.postScriptHintData'
p2
(dp3
sS'com.typemytype.robofont.layerData'
p4
(dp5
s."
LayerCount: 2
Fore
SplineSet
473 32 m 1
 463.62 32 444.04 33 436 33 c 0
 343.54 37.02 268.26 54.58 216 72 c 0
 185.18 82.05 158.45 92.61 135 104 c 1
 110 254 l 1
 139.48 240.6 171.49 228.39 207 217 c 0
 267.3 198.24 346.88 179.02 438 175 c 0
 444.7 175 461.96 174 470 174 c 1
 458 651 l 1
 440.58 656.36 425.08 661.64 409 667 c 0
 301.8 703.18 224.43 742.06 171.5 797 c 0
 118.57 851.94 93 922.84 93 1022 c 0
 93 1121.16 128.36 1197.72 190 1254 c 0
 251.64 1310.28 338.82 1342.28 442 1353 c 1
 437 1593 l 1
 544 1593 l 1
 549 1356 l 1
 634.76 1353.32 709.06 1340.06 764 1328 c 0
 796.16 1320.63 824.87 1313.04 851 1305 c 1
 871 1154 l 1
 842.19 1164.05 811.17 1172.96 777 1181 c 0
 718.04 1195.74 640.44 1208.98 552 1213 c 1
 563 787 l 1
 683.6 748.14 775.36 716.11 837 660.5 c 0
 898.64 604.89 930 527.98 930 398 c 0
 930 297.5 905.28 214.98 849 152 c 0
 792.72 89.02 705.96 48.4 580 35 c 1
 586 -201 l 1
 478 -201 l 1
 473 32 l 1
754 381 m 0
 754 445.32 743.31 489.82 714.5 526 c 0
 685.69 562.18 638.36 587.54 566 613 c 1
 577 184 l 1
 631.94 193.38 676.18 211.84 707 244 c 0
 737.82 276.16 754 319.36 754 381 c 0
257 1016 m 0
 257 966.42 269.18 931.65 300 901.5 c 0
 330.82 871.35 378.96 847.46 454 822 c 1
 446 1206 l 1
 391.06 1197.96 344.67 1178.82 310.5 1148 c 0
 276.33 1117.18 257 1073.62 257 1016 c 0
EndSplineSet
EndChar

StartChar: dotaccent
Encoding: 729 729 110
Width: 421
VWidth: 0
Flags: W
PickledData: "(dp1
S'org.robofab.postScriptHintData'
p2
(dp3
sS'com.typemytype.robofont.layerData'
p4
(dp5
s."
LayerCount: 2
Fore
SplineSet
293 1304 m 0
 305.06 1281.22 305.7 1256.61 299 1234.5 c 0
 292.3 1212.39 277.44 1192.38 256 1183 c 0
 210.44 1161.56 157.78 1179.1 135 1226 c 1
 122.94 1247.44 122.13 1273.39 129.5 1295.5 c 0
 136.87 1317.61 151.22 1336.28 174 1347 c 0
 216.88 1368.44 270.22 1350.9 293 1304 c 0
EndSplineSet
EndChar

StartChar: dotlessi
Encoding: 305 305 111
Width: 492
VWidth: 0
Flags: W
PickledData: "(dp1
S'org.robofab.postScriptHintData'
p2
(dp3
sS'com.typemytype.robofont.layerData'
p4
(dp5
s."
LayerCount: 2
Fore
SplineSet
158 0 m 1
 158 1021 l 1
 334 1021 l 1
 334 0 l 1
 158 0 l 1
EndSplineSet
EndChar

StartChar: e
Encoding: 101 101 112
Width: 1020
VWidth: 0
Flags: W
PickledData: "(dp1
S'org.robofab.postScriptHintData'
p2
(dp3
sS'com.typemytype.robofont.layerData'
p4
(dp5
S'b'
(dp6
S'name'
p7
S'e'
sS'lib'
p8
(dp9
sS'unicodes'
p10
(tsS'width'
p11
I1020
sS'contours'
p12
((dp13
S'points'
p14
((dp15
S'y'
F96
sS'x'
F100
sS'smooth'
p16
I00
s(dp17
S'y'
F-18
sS'x'
F364
sg16
I00
s(dp18
S'segmentType'
p19
S'curve'
p20
sS'x'
F579
sg16
I01
sS'y'
F-18
s(dp21
S'y'
F-18
sS'x'
F677
sg16
I00
s(dp22
S'y'
F6
sS'x'
F764
sg16
I00
s(dp23
g19
S'curve'
p24
sS'x'
F812
sg16
I00
sS'y'
F35
s(dp25
g19
S'line'
p26
sS'x'
F824
sg16
I00
sS'y'
F180
s(dp27
S'y'
F148
sS'x'
F758
sg16
I00
s(dp28
S'y'
F121
sS'x'
F671
sg16
I00
s(dp29
g19
S'curve'
p30
sS'x'
F587
sg16
I01
sS'y'
F121
s(dp31
S'y'
F121
sS'x'
F434
sg16
I00
s(dp32
S'y'
F209
sS'x'
F289
sg16
I00
s(dp33
g19
S'curve'
p34
sS'x'
F289
sg16
I00
sS'y'
F513
s(dp35
S'y'
F817
sS'x'
F289
sg16
I00
s(dp36
S'y'
F900
sS'x'
F430
sg16
I00
s(dp37
g19
S'curve'
p38
sS'x'
F581
sg16
I01
sS'y'
F900
s(dp39
S'y'
F900
sS'x'
F666
sg16
I00
s(dp40
S'y'
F874
sS'x'
F755
sg16
I00
s(dp41
g19
S'curve'
p42
sS'x'
F824
sg16
I00
sS'y'
F846
s(dp43
g19
S'line'
p44
sS'x'
F812
sg16
I00
sS'y'
F991
s(dp45
S'y'
F1018
sS'x'
F762
sg16
I00
s(dp46
S'y'
F1043
sS'x'
F669
sg16
I00
s(dp47
g19
S'curve'
p48
sS'x'
F566
sg16
I01
sS'y'
F1043
s(dp49
S'y'
F1043
sS'x'
F354
sg16
I00
s(dp50
S'y'
F936
sS'x'
F100
sg16
I00
s(dp51
g19
S'curve'
p52
sS'x'
F100
sg16
I00
sS'y'
F513
stp53
stp54
sS'components'
p55
(tsS'anchors'
p56
(tsss."
LayerCount: 2
Fore
SplineSet
289 503 m 0
 289 252 396 121 594 121 c 0
 714 121 810 154 880 181 c 1
 867 34 l 1
 801 10 714 -18 586 -18 c 0
 262 -18 100 197 100 501 c 0
 100 890 307 1043 562 1043 c 0
 815 1043 923 871 928 687 c 1
 928 630.128631558 920 517 912 491 c 1
 197 491 l 1
 197 603 l 1
 767 603 l 1
 797 794 705 906 571 906 c 0
 445 906 289 856 289 503 c 0
EndSplineSet
EndChar

StartChar: eight
Encoding: 56 56 117
Width: 1155
VWidth: 0
Flags: W
PickledData: "(dp1
S'org.robofab.postScriptHintData'
p2
(dp3
sS'com.typemytype.robofont.layerData'
p4
(dp5
s."
LayerCount: 2
Fore
SplineSet
123 345 m 0
 123 437.46 144.5 505.74 178 558 c 0
 211.5 610.26 254.12 642.71 297 667.5 c 0
 339.88 692.29 381.18 702.96 412 711 c 1
 346.34 727.08 286.22 761.25 242 811.5 c 0
 197.78 861.75 170 927.24 170 1013 c 0
 170 1112.16 201 1198.51 268 1263.5 c 0
 335 1328.49 436.3 1367 577 1367 c 0
 719.04 1367 822 1327.49 889 1262.5 c 0
 956 1197.51 988 1110.82 988 1013 c 0
 988 925.9 956.07 859.41 908.5 810.5 c 0
 860.93 761.59 797.32 727.08 733 711 c 1
 789.28 698.94 863.53 670.94 924.5 616 c 0
 985.47 561.06 1031 474.98 1031 345 c 0
 1031 205.64 972.93 114.79 886.5 56.5 c 0
 800.07 -1.79 686.88 -24 577 -24 c 0
 468.46 -24 354.93 -1.79 268.5 56.5 c 0
 182.07 114.79 123 205.64 123 345 c 0
579 785 m 1
 621.21 796.39 658.17 812.23 691 833 c 0
 719.14 850.42 746.56 875.18 768 906 c 0
 789.44 936.82 803 976.1 803 1023 c 0
 803 1100.72 778.2 1148.01 738 1179.5 c 0
 697.8 1210.99 641.98 1222 579 1222 c 0
 520.04 1222 463.54 1210.99 422 1179.5 c 0
 380.46 1148.01 354 1100.72 354 1023 c 0
 354 976.1 367.56 935.82 389 905 c 0
 410.44 874.18 437.86 849.42 466 832 c 0
 498.83 811.23 536.12 795.72 579 785 c 1
314 364 m 0
 314 274.22 341.27 215.52 387.5 178 c 0
 433.73 140.48 499.28 126 577 126 c 0
 653.38 126 720.76 139.48 769 177 c 0
 817.24 214.52 846 272.88 846 364 c 0
 846 421.62 829.46 469.65 804 506.5 c 0
 778.54 543.35 745.5 573.9 712 594 c 0
 672.47 618.12 628.25 635.28 578 646 c 1
 528.42 633.94 484.86 616.12 446 592 c 0
 412.5 571.9 380.29 542.52 355.5 505 c 0
 330.71 467.48 314 420.28 314 364 c 0
EndSplineSet
EndChar

StartChar: ellipsis
Encoding: 8230 8230 118
Width: 1187
VWidth: 0
Flags: W
PickledData: "(dp1
S'org.robofab.postScriptHintData'
p2
(dp3
sS'com.typemytype.robofont.layerData'
p4
(dp5
s."
LayerCount: 2
Fore
SplineSet
688 185 m 1
 688 -4 l 1
 495 -4 l 1
 495 185 l 1
 688 185 l 1
1053 185 m 1
 1053 -4 l 1
 860 -4 l 1
 860 185 l 1
 1053 185 l 1
324 185 m 1
 324 -4 l 1
 134 -4 l 1
 134 185 l 1
 324 185 l 1
EndSplineSet
EndChar

StartChar: emdash
Encoding: 8212 8212 119
Width: 1235
VWidth: 0
Flags: W
PickledData: "(dp1
S'org.robofab.postScriptHintData'
p2
(dp3
sS'com.typemytype.robofont.layerData'
p4
(dp5
s."
LayerCount: 2
Fore
SplineSet
134 704 m 1
 134 844 l 1
 1100 844 l 1
 1100 704 l 1
 134 704 l 1
EndSplineSet
EndChar

StartChar: endash
Encoding: 8211 8211 120
Width: 1046
VWidth: 0
Flags: W
PickledData: "(dp1
S'org.robofab.postScriptHintData'
p2
(dp3
sS'com.typemytype.robofont.layerData'
p4
(dp5
s."
LayerCount: 2
Fore
SplineSet
135 758 m 1
 135 903 l 1
 909 903 l 1
 909 758 l 1
 135 758 l 1
EndSplineSet
EndChar

StartChar: equal
Encoding: 61 61 121
Width: 939
VWidth: 0
Flags: W
PickledData: "(dp1
S'org.robofab.postScriptHintData'
p2
(dp3
sS'com.typemytype.robofont.layerData'
p4
(dp5
s."
LayerCount: 2
Fore
SplineSet
159 615 m 1
 779 615 l 1
 779 487 l 1
 159 487 l 1
 159 615 l 1
160 534 m 1
 779 534 l 1
 779 405 l 1
 160 405 l 1
 160 534 l 1
EndSplineSet
EndChar

StartChar: eth
Encoding: 240 240 122
Width: 1202
VWidth: 0
Flags: W
PickledData: "(dp1
S'org.robofab.postScriptHintData'
p2
(dp3
sS'com.typemytype.robofont.layerData'
p4
(dp5
s."
LayerCount: 2
Fore
SplineSet
607 947 m 1
 571 1057 l 1
 766 1122 l 1
 741.88 1171.58 705.69 1224.27 667.5 1270.5 c 0
 629.31 1316.73 591.48 1354.58 562 1372 c 1
 726 1371 l 1
 805.06 1314.72 865.1 1247.72 912 1170 c 1
 1113 1240 l 1
 1149 1129 l 1
 971 1067 l 1
 1051.4 904.86 1086 739.86 1086 567 c 0
 1086 394.14 1044.74 249.35 963 145.5 c 0
 881.26 41.65 761.14 -18 599 -18 c 0
 426.14 -18 304.4 35.92 224 119 c 0
 143.6 202.08 106 313.76 106 429 c 0
 106 542.9 135.66 642.64 204 715 c 0
 272.34 787.36 377.9 831 532 831 c 0
 628.48 831 711.68 804.31 776 775.5 c 0
 840.32 746.69 882.94 715.06 895 703 c 1
 893.66 753.92 886.4 810.06 873 865 c 0
 859.6 919.94 840.46 972.78 815 1017 c 1
 607 947 l 1
546 693 m 0
 454.88 693 389.71 666.73 347.5 620.5 c 0
 305.29 574.27 286 507.74 286 426 c 0
 286 219.64 391.34 125 591 125 c 0
 704.9 125 778.93 169.64 826.5 242 c 0
 874.07 314.36 893 413.12 893 523 c 2
 893 582 l 1
 859.5 602.1 824.52 620.25 787 637 c 0
 722.68 665.14 635.78 693 546 693 c 0
EndSplineSet
EndChar

StartChar: exclam
Encoding: 33 33 123
Width: 523
VWidth: 0
Flags: W
PickledData: "(dp1
S'org.robofab.postScriptHintData'
p2
(dp3
sS'com.typemytype.robofont.layerData'
p4
(dp5
s."
LayerCount: 2
Fore
SplineSet
348 -14 m 1
 173 -14 l 1
 173 165 l 1
 348 165 l 1
 348 -14 l 1
217 355 m 1
 213.65 402.57 209.36 463.62 204 540 c 0
 194.62 669.98 181.76 869.88 163 1162 c 0
 163 1171.38 162.34 1190.31 161 1228.5 c 0
 159.66 1266.69 159.34 1322.26 158 1404 c 1
 362 1404 l 1
 360.66 1322.26 359.17 1266.69 358.5 1228.5 c 0
 357.83 1190.31 357 1171.38 357 1162 c 0
 338.24 869.88 325.38 669.98 316 540 c 0
 310.64 463.62 306.35 402.57 303 355 c 1
 217 355 l 1
EndSplineSet
EndChar

StartChar: f
Encoding: 102 102 125
Width: 721
VWidth: 0
Flags: W
PickledData: "(dp1
S'org.robofab.postScriptHintData'
p2
(dp3
sS'com.typemytype.robofont.layerData'
p4
(dp5
s."
LayerCount: 2
Fore
SplineSet
229 0 m 1
 229 924 l 1
 53 924 l 1
 53 1028 l 1
 230 1028 l 1
 230 1063 l 2
 230 1441 461 1477 713 1398 c 1
 720 1261 l 1
 535 1310 412 1309 412 1054 c 2
 412 1028 l 1
 685 1028 l 1
 685 924 l 1
 412 924 l 1
 412 0 l 1
 229 0 l 1
EndSplineSet
EndChar

StartChar: fi
Encoding: 64257 64257 126
Width: 1102
VWidth: 0
Flags: W
PickledData: "(dp1
S'org.robofab.postScriptHintData'
p2
(dp3
sS'com.typemytype.robofont.layerData'
p4
(dp5
s."
LayerCount: 2
Fore
SplineSet
760 0 m 1
 760 917 l 1
 411 917 l 1
 411 0 l 1
 228 0 l 1
 228 917 l 1
 52 917 l 1
 52 1021 l 1
 229 1021 l 1
 229 1068 l 1
 231.68 1210.04 254.27 1310.34 300.5 1376 c 0
 346.73 1441.66 416.84 1471 516 1471 c 0
 573.62 1471 619.84 1461.72 652 1451 c 0
 670.76 1444.97 687.26 1438.7 702 1432 c 1
 710 1312 l 1
 695.93 1316.69 681.41 1320.98 666 1325 c 0
 639.2 1331.7 603.84 1338 569 1338 c 0
 508.7 1338 469.12 1327.5 445 1294 c 0
 420.88 1260.5 411 1202.8 411 1109 c 2
 411 1021 l 1
 944 1021 l 1
 944 0 l 1
 760 0 l 1
947 1369 m 1
 947 1187 l 1
 755 1187 l 1
 755 1369 l 1
 947 1369 l 1
EndSplineSet
EndChar

StartChar: five
Encoding: 53 53 127
Width: 1028
VWidth: 0
Flags: W
PickledData: "(dp1
S'org.robofab.postScriptHintData'
p2
(dp3
sS'com.typemytype.robofont.layerData'
p4
(dp5
s."
LayerCount: 2
Fore
SplineSet
197 667 m 0
 195.66 667 183.4 680.6 170 694 c 2
 143 721 l 1
 163 1339 l 1
 839 1339 l 1
 824 1209 l 1
 319 1209 l 1
 301 809 l 1
 321.77 813.02 343.55 816.65 367 820 c 0
 407.2 826.7 459.72 832 516 832 c 0
 631.24 832 731.64 802 804 735 c 0
 876.36 668 920 565.7 920 425 c 0
 920 276.26 893.36 164.21 821 88.5 c 0
 748.64 12.79 633.88 -24 457 -24 c 0
 377.94 -24 307.6 -11.74 254 3 c 0
 222.51 11.04 194.13 20.28 168 31 c 1
 149 183 l 1
 177.14 173.62 207.17 165.04 240 157 c 0
 296.28 143.6 369.6 132 450 132 c 0
 563.9 132 638.27 150.61 684.5 195.5 c 0
 730.73 240.39 748 312.78 748 424 c 0
 748 500.38 726.22 565.1 682 612 c 0
 637.78 658.9 571.78 689 482 689 c 0
 366.76 689 259.98 677.72 197 667 c 0
EndSplineSet
EndChar

StartChar: florin
Encoding: 402 402 129
Width: 771
VWidth: 0
Flags: W
PickledData: "(dp1
S'org.robofab.postScriptHintData'
p2
(dp3
sS'com.typemytype.robofont.layerData'
p4
(dp5
s."
LayerCount: 2
Fore
SplineSet
110 0 m 1
 270 886 l 1
 93 886 l 1
 112 991 l 1
 289 991 l 1
 321.16 1170.56 362.53 1286.64 423.5 1359 c 0
 484.47 1431.36 561.48 1459 666 1459 c 0
 723.62 1459 767.18 1449.72 798 1439 c 0
 815.42 1432.97 830.93 1426.37 845 1419 c 1
 839 1296 l 1
 824.26 1300.69 808.42 1304.98 791 1309 c 0
 761.52 1315.7 724.86 1322 686 1322 c 0
 623.02 1322 582.82 1311.67 552 1277.5 c 0
 521.18 1243.33 502.42 1185.8 485 1092 c 1
 468 991 l 1
 744 991 l 1
 725 886 l 1
 449 886 l 1
 290 0 l 1
 110 0 l 1
EndSplineSet
EndChar

StartChar: four
Encoding: 52 52 130
Width: 1082
VWidth: 0
Flags: W
PickledData: "(dp1
S'org.robofab.postScriptHintData'
p2
(dp3
sS'com.typemytype.robofont.layerData'
p4
(dp5
s."
LayerCount: 2
Fore
SplineSet
570 1335 m 1
 836 1328 l 1
 837 397 l 1
 1004 397 l 1
 1004 257 l 1
 837 257 l 1
 837 -14 l 1
 662 -19 l 1
 662 257 l 1
 84 257 l 1
 38 379 l 1
 570 1335 l 1
662 397 m 1
 662 839 l 1
 672 1217 l 1
 488 853 l 1
 233 393 l 1
 424 397 l 1
 662 397 l 1
EndSplineSet
EndChar

StartChar: foursuperior
Encoding: 8308 8308 131
Width: 935
VWidth: 0
Flags: W
PickledData: "(dp1
S'org.robofab.postScriptHintData'
p2
(dp3
sS'com.typemytype.robofont.layerData'
p4
(dp5
s."
LayerCount: 2
Fore
SplineSet
469 963 m 1
 705 956 l 1
 705 335 l 1
 865 335 l 1
 865 215 l 1
 705 215 l 1
 705 0 l 1
 548 -6 l 1
 548 215 l 1
 88 215 l 1
 45 320 l 1
 469 963 l 1
548 335 m 1
 548 613 l 1
 552 853 l 1
 396 601 l 1
 222 332 l 1
 408 335 l 1
 548 335 l 1
EndSplineSet
EndChar

StartChar: fraction
Encoding: 8260 8260 132
Width: 832
VWidth: 0
Flags: W
PickledData: "(dp1
S'org.robofab.postScriptHintData'
p2
(dp3
sS'com.typemytype.robofont.layerData'
p4
(dp5
s."
LayerCount: 2
Fore
SplineSet
827 1381 m 1
 146 13 l 1
 7 67 l 1
 686 1432 l 1
 827 1381 l 1
EndSplineSet
EndChar

StartChar: g
Encoding: 103 103 133
Width: 1110
VWidth: 0
Flags: W
PickledData: "(dp1
S'org.robofab.postScriptHintData'
p2
(dp3
sS'com.typemytype.robofont.layerData'
p4
(dp5
S'b'
(dp6
S'name'
p7
S'g'
sS'lib'
p8
(dp9
sS'unicodes'
p10
(tsS'width'
p11
I1110
sS'contours'
p12
((dp13
S'points'
p14
((dp15
S'segmentType'
p16
S'line'
p17
sS'x'
F275
sS'smooth'
p18
I00
sS'y'
F-283
s(dp19
S'y'
F-304.78859513678748
sS'x'
F336.73435288756423
sg18
I00
s(dp20
S'y'
F-325
sS'x'
F414.69565494995072
sg18
I00
s(dp21
g16
S'curve'
p22
sS'x'
F523
sg18
I00
sS'y'
F-325
s(dp23
S'y'
F-325
sS'x'
F725.24115258919335
sg18
I00
s(dp24
S'y'
F-275.31107505263219
sS'x'
F774.33634682158777
sg18
I00
s(dp25
g16
S'curve'
p26
sS'x'
F777
sg18
I00
sS'y'
F39
s(dp27
g16
S'line'
p28
sS'x'
F777
sg18
I00
sS'y'
F72
s(dp29
S'y'
F35.605227593841043
sS'x'
F718.76836415014554
sg18
I00
s(dp30
S'y'
F0
sS'x'
F638.0984999942757
sg18
I00
s(dp31
g16
S'curve'
p32
sS'x'
F496
sg18
I00
sS'y'
F0
s(dp33
S'y'
F0
sS'x'
F289.70677777578391
sg18
I00
s(dp34
S'y'
F149.76371406536316
sS'x'
F98
sg18
I00
s(dp35
g16
S'curve'
p36
sS'x'
F98
sg18
I00
sS'y'
F509
s(dp37
S'y'
F883.15142030119387
sS'x'
F98
sg18
I00
s(dp38
S'y'
F1043
sS'x'
F244.37199628366056
sg18
I00
s(dp39
g16
S'curve'
p40
sS'x'
F497
sg18
I00
sS'y'
F1043
s(dp41
S'y'
F1043
sS'x'
F671.20000000000005
sg18
I00
s(dp42
S'y'
F964.16000000000008
sS'x'
F769.79999999999995
sg18
I00
s(dp43
g16
S'curve'
p44
sS'x'
F810
sg18
I00
sS'y'
F932
s(dp45
g16
S'line'
p46
sS'x'
F843
sg18
I00
sS'y'
F1031
s(dp47
g16
S'line'
p48
sS'x'
F963
sg18
I00
sS'y'
F1031
s(dp49
g16
S'line'
p50
sS'x'
F963
sg18
I01
sS'y'
F67
s(dp51
S'y'
F-323
sS'x'
F963
sg18
I00
s(dp52
S'y'
F-461
sS'x'
F866.16945055883593
sg18
I00
s(dp53
g16
S'curve'
p54
sS'x'
F538
sg18
I00
sS'y'
F-461
s(dp55
S'y'
F-461
sS'x'
F411.30432930965975
sg7
S'inserted'
p56
s(dp57
S'y'
F-439.00277428020672
sS'x'
F340.83911308376383
s(dp58
g16
S'curve'
p59
sS'x'
F295
sg18
I00
sS'y'
F-417
stp60
s(dp61
g14
((dp62
g16
S'curve'
p63
sS'x'
F519
sg18
I00
sS'y'
F140
s(dp64
g16
S'line'
p65
sS'x'
F531
sg18
I00
sS'y'
F140
s(dp66
S'y'
F142.12181279343139
sS'x'
F654.06514201902087
sg7
S'inserted'
p67
s(dp68
S'y'
F170.90629197080216
sS'x'
F726.08601094890378
s(dp69
g16
S'curve'
p70
sS'x'
F777
sg18
I00
sS'y'
F200
s(dp71
g16
S'line'
p72
sS'x'
F777
sg18
I00
sS'y'
F822
s(dp73
S'y'
F859.95593763064062
sS'x'
F717.35495515185073
sg18
I00
s(dp74
S'y'
F901
sS'x'
F639.98362297613949
sg18
I00
s(dp75
g16
S'curve'
p76
sS'x'
F525
sg18
I00
sS'y'
F901
s(dp77
S'y'
F901
sS'x'
F342.1706167290244
sg18
I00
s(dp78
S'y'
F747.0680056045544
sS'x'
F283
sg18
I00
s(dp79
g16
S'curve'
p80
sS'x'
F283
sg18
I00
sS'y'
F520
s(dp81
S'y'
F288.22332029853681
sS'x'
F283
sg18
I00
s(dp82
S'y'
F142.66509009520084
sS'x'
F353.76441409754881
sg18
I00
stp83
stp84
sS'components'
p85
(tsS'anchors'
p86
(tsss."
LayerCount: 2
Fore
SplineSet
285 520 m 0
 285 747 355 901 538 901 c 0
 653 901 717 860 777 822 c 1
 777 200 l 1
 574 83 285 78 285 520 c 0
256 -427 m 1
 647 -501 963 -532.418502203 963 127 c 2
 963 1031 l 1
 843 1031 l 1
 810 932 l 1
 770 964 684 1043 510 1043 c 0
 257 1043 100 883 100 509 c 0
 100 -97 645 -41 777 72 c 1
 777 39 l 2
 777 -392.731034483 586 -351 236 -273 c 1
 256 -427 l 1
EndSplineSet
EndChar

StartChar: germandbls
Encoding: 223 223 134
Width: 1334
VWidth: 0
Flags: W
PickledData: "(dp1
S'org.robofab.postScriptHintData'
p2
(dp3
sS'com.typemytype.robofont.layerData'
p4
(dp5
s."
LayerCount: 2
Fore
SplineSet
571 1402 m 0
 487.92 1402 438.48 1372.92 409 1322 c 0
 379.52 1271.08 372 1199.1 372 1112 c 2
 372 -4 l 1
 185 -4 l 1
 185 1110 l 2
 185 1406.14 311.04 1549 571 1549 c 0
 694.28 1549 777.55 1527.01 834.5 1491.5 c 0
 891.45 1455.99 920.94 1406.45 933 1349.5 c 0
 945.06 1292.55 939.06 1229.64 927 1168 c 1
 927 1155.94 919.72 1130.16 909 1098 c 0
 898.28 1065.84 883.4 1026.52 870 989 c 0
 853.25 944.78 834.77 896.93 814 844 c 1
 929.24 835.96 1037.6 785.93 1118 699.5 c 0
 1198.4 613.07 1250 491.76 1250 339 c 0
 1250 174.18 1204.38 53.74 1128 -28 c 0
 1051.62 -109.74 946.28 -149.68 823 -147 c 0
 758.68 -145.66 706.52 -136.72 669 -126 c 0
 646.89 -119.97 627.75 -113.7 611 -107 c 1
 591 34 l 1
 607.75 26.63 626.23 20.36 647 15 c 0
 681.84 5.62 730.7 -3 791 -3 c 0
 891.5 -3 957.29 35.68 999.5 100 c 0
 1041.71 164.32 1058 252.82 1058 356 c 0
 1058 504.74 1015.55 602.36 938.5 664 c 0
 861.45 725.64 750.36 750.66 611 752 c 1
 636.46 822.35 659.23 885.05 680 942 c 0
 697.42 990.24 714.6 1039.14 728 1078 c 0
 741.4 1116.86 750 1144.96 750 1153 c 1
 767.42 1217.32 773.95 1279.27 750.5 1325.5 c 0
 727.05 1371.73 674.18 1402 571 1402 c 0
EndSplineSet
EndChar

StartChar: grave
Encoding: 96 96 135
Width: 378
VWidth: 0
Flags: W
PickledData: "(dp1
S'org.robofab.postScriptHintData'
p2
(dp3
sS'com.typemytype.robofont.layerData'
p4
(dp5
s."
LayerCount: 2
Fore
SplineSet
302 1184 m 1
 229 1184 l 1
 9 1713 l 1
 222 1735 l 1
 302 1184 l 1
EndSplineSet
EndChar

StartChar: greater
Encoding: 62 62 136
Width: 988
VWidth: 0
Flags: W
PickledData: "(dp1
S'org.robofab.postScriptHintData'
p2
(dp3
sS'com.typemytype.robofont.layerData'
p4
(dp5
s."
LayerCount: 2
Fore
SplineSet
909 506 m 1
 181 138 l 1
 132 301 l 1
 702 561 l 1
 132 823 l 1
 181 987 l 1
 909 623 l 1
 909 506 l 1
EndSplineSet
EndChar

StartChar: greaterequal
Encoding: 8805 8805 137
Width: 1007
VWidth: 0
Flags: W
PickledData: "(dp1
S'org.robofab.postScriptHintData'
p2
(dp3
sS'com.typemytype.robofont.layerData'
p4
(dp5
s."
LayerCount: 2
Fore
SplineSet
155 -6 m 1
 155 121 l 1
 880 121 l 1
 880 -6 l 1
 155 -6 l 1
158 280 m 1
 158 446 l 1
 172.74 452.7 227.32 474.03 297 501.5 c 0
 366.68 528.97 448.49 561.03 517.5 588.5 c 0
 586.51 615.97 641.26 637.64 656 643 c 1
 626.52 655.06 571.15 676.54 507.5 702 c 0
 443.85 727.46 371.32 755.71 307 780.5 c 0
 242.68 805.29 187.48 827.94 158 840 c 1
 158 1008 l 1
 167.38 1003.98 214.34 983.48 280 954 c 0
 345.66 924.52 429.58 887.52 514 850 c 0
 598.42 812.48 682.17 775.31 748.5 746.5 c 0
 814.83 717.69 861.28 696.02 872 692 c 1
 872 600 l 1
 158 280 l 1
EndSplineSet
EndChar

StartChar: guillemotleft
Encoding: 171 171 138
Width: 1150
VWidth: 0
Flags: W
PickledData: "(dp1
S'org.robofab.postScriptHintData'
p2
(dp3
sS'com.typemytype.robofont.layerData'
p4
(dp5
s."
LayerCount: 2
Fore
SplineSet
603 189 m 1
 529 76 l 1
 58 552 l 1
 529 1026 l 1
 605 914 l 1
 243 552 l 1
 603 189 l 1
964 1011 m 1
 1039 900 l 1
 666 552 l 1
 1040 205 l 1
 966 93 l 1
 478 552 l 1
 964 1011 l 1
EndSplineSet
EndChar

StartChar: guillemotright
Encoding: 187 187 139
Width: 1150
VWidth: 0
Flags: W
PickledData: "(dp1
S'org.robofab.postScriptHintData'
p2
(dp3
sS'com.typemytype.robofont.layerData'
p4
(dp5
s."
LayerCount: 2
Fore
SplineSet
545 914 m 1
 620 1026 l 1
 1092 552 l 1
 620 76 l 1
 546 189 l 1
 907 552 l 1
 545 914 l 1
185 93 m 1
 110 205 l 1
 483 552 l 1
 111 900 l 1
 186 1011 l 1
 673 552 l 1
 185 93 l 1
EndSplineSet
EndChar

StartChar: guilsinglleft
Encoding: 8249 8249 140
Width: 709
VWidth: 0
Flags: W
PickledData: "(dp1
S'org.robofab.postScriptHintData'
p2
(dp3
sS'com.typemytype.robofont.layerData'
p4
(dp5
s."
LayerCount: 2
Fore
SplineSet
603 189 m 1
 529 76 l 1
 57 552 l 1
 529 1026 l 1
 604 914 l 1
 242 552 l 1
 603 189 l 1
EndSplineSet
EndChar

StartChar: guilsinglright
Encoding: 8250 8250 141
Width: 710
VWidth: 0
Flags: W
PickledData: "(dp1
S'org.robofab.postScriptHintData'
p2
(dp3
sS'com.typemytype.robofont.layerData'
p4
(dp5
s."
LayerCount: 2
Fore
SplineSet
105 914 m 1
 181 1026 l 1
 652 552 l 1
 181 76 l 1
 106 189 l 1
 467 552 l 1
 105 914 l 1
EndSplineSet
EndChar

StartChar: h
Encoding: 104 104 142
Width: 1138
VWidth: 0
Flags: W
PickledData: "(dp1
S'org.robofab.postScriptHintData'
p2
(dp3
sS'com.typemytype.robofont.layerData'
p4
(dp5
s."
LayerCount: 2
Fore
SplineSet
302 922 m 1
 366 970 492 1043 662 1043 c 0
 875 1043 995 931 995 624 c 2
 995 0 l 1
 810 0 l 1
 810 584 l 2
 810 804 768 901 626 901 c 0
 508 901 412 856 331 808 c 1
 302 922 l 1
152 1419 m 1
 337 1437 l 1
 337 0 l 1
 152 0 l 1
 152 1419 l 1
EndSplineSet
EndChar

StartChar: hungarumlaut
Encoding: 733 733 143
Width: 714
VWidth: 0
Flags: W
PickledData: "(dp1
S'org.robofab.postScriptHintData'
p2
(dp3
sS'com.typemytype.robofont.layerData'
p4
(dp5
s."
LayerCount: 2
Fore
SplineSet
466 1687 m 1
 660 1687 l 1
 458 1183 l 1
 358 1183 l 1
 466 1687 l 1
174 1687 m 1
 359 1687 l 1
 222 1183 l 1
 118 1183 l 1
 174 1687 l 1
EndSplineSet
EndChar

StartChar: hyphen
Encoding: 45 45 144
Width: 805
VWidth: 0
Flags: W
PickledData: "(dp1
S'org.robofab.postScriptHintData'
p2
(dp3
sS'com.typemytype.robofont.layerData'
p4
(dp5
s."
LayerCount: 2
Fore
SplineSet
146 448 m 1
 146 578 l 1
 659 578 l 1
 659 448 l 1
 146 448 l 1
EndSplineSet
EndChar

StartChar: i
Encoding: 105 105 145
Width: 495
VWidth: 0
Flags: W
PickledData: "(dp1
S'org.robofab.postScriptHintData'
p2
(dp3
sS'com.typemytype.robofont.layerData'
p4
(dp5
s."
LayerCount: 2
Fore
SplineSet
156 0 m 1
 156 1028 l 1
 340 1028 l 1
 340 0 l 1
 156 0 l 1
344 1408 m 1
 344 1226 l 1
 151 1226 l 1
 151 1408 l 1
 344 1408 l 1
EndSplineSet
EndChar

StartChar: infinity
Encoding: 8734 8734 150
Width: 1972
VWidth: 0
Flags: W
PickledData: "(dp1
S'org.robofab.postScriptHintData'
p2
(dp3
sS'com.typemytype.robofont.layerData'
p4
(dp5
s."
LayerCount: 2
Fore
SplineSet
911 643 m 1
 890.9 665.78 860.86 707.44 822 753 c 0
 783.14 798.56 737.92 846.31 687 884.5 c 0
 636.08 922.69 582.28 949 526 949 c 0
 450.96 949 386.9 924.92 340 874 c 0
 293.1 823.08 266 747.18 266 644 c 0
 266 536.8 293.44 460.09 339 408.5 c 0
 384.56 356.91 447.96 332 523 332 c 0
 587.32 332 643.42 356.82 693 393 c 0
 742.58 429.18 784.82 476.27 821 522.5 c 0
 857.18 568.73 886.88 613.52 911 643 c 1
1703 645 m 0
 1703 748.18 1672.24 823.25 1624 873.5 c 0
 1575.76 923.75 1511.02 948 1440 948 c 0
 1381.04 948 1328.24 923.01 1280 887.5 c 0
 1231.76 851.99 1190.35 804.56 1153.5 759 c 0
 1116.65 713.44 1086.78 669.14 1064 641 c 1
 1088.12 611.52 1118.48 568.39 1156 523.5 c 0
 1193.52 478.61 1236.76 433.01 1285 397.5 c 0
 1333.24 361.99 1385.06 339 1440 339 c 0
 1515.04 339 1579.93 363.08 1627.5 414 c 0
 1675.07 464.92 1703 540.48 1703 645 c 0
1842 645 m 0
 1842 512.34 1800.68 404.87 1731 330.5 c 0
 1661.32 256.13 1565.56 215 1453 215 c 0
 1341.78 215 1264.51 248.38 1195.5 306 c 0
 1126.49 363.62 1066.04 444.2 991 538 c 1
 914.62 441.52 849.7 361.62 776 304 c 0
 702.3 246.38 623.18 213 520 213 c 0
 402.08 213 305.51 254.13 236.5 328.5 c 0
 167.49 402.87 129 510 129 644 c 0
 129 767.28 167.66 872.62 236 949 c 0
 304.34 1025.38 400.76 1070 516 1070 c 0
 627.22 1070 706.98 1034.79 778 976.5 c 0
 849.02 918.21 910.62 837.46 987 745 c 1
 1064.72 842.82 1125.32 923.38 1195 981 c 0
 1264.68 1038.62 1341.46 1072 1450 1072 c 0
 1569.26 1072 1666.66 1028.38 1735 952 c 0
 1803.34 875.62 1842 769.62 1842 645 c 0
EndSplineSet
EndChar

StartChar: integral
Encoding: 8747 8747 151
Width: 882
VWidth: 0
Flags: W
PickledData: "(dp1
S'org.robofab.postScriptHintData'
p2
(dp3
sS'com.typemytype.robofont.layerData'
p4
(dp5
s."
LayerCount: 2
Fore
SplineSet
526 886 m 1
 526 111 l 2
 526 -29.7 511.09 -151.58 459.5 -236 c 0
 407.91 -320.42 321.06 -365.4 175 -352 c 1
 134.8 -349.32 102.78 -340.04 80 -332 c 0
 66.6 -327.31 55.05 -322.36 45 -317 c 1
 28 -195 l 1
 43.41 -200.36 59.58 -204.65 77 -208 c 0
 106.48 -214.7 146.14 -220 185 -220 c 0
 247.98 -220 287.71 -209.67 312.5 -175.5 c 0
 337.29 -141.33 346 -84.8 346 9 c 2
 345 886 l 1
 168 886 l 1
 168 991 l 1
 345 991 l 1
 349.02 1145.1 363.91 1265.26 415.5 1347 c 0
 467.09 1428.74 551.28 1467.4 696 1454 c 0
 734.86 1451.32 768.22 1443.04 791 1435 c 0
 804.4 1430.31 815.95 1425.03 826 1419 c 1
 842 1296 l 1
 826.59 1300.69 810.42 1304.98 793 1309 c 0
 763.52 1315.7 724.86 1322 686 1322 c 0
 625.7 1322 585.46 1311.67 560 1277.5 c 0
 534.54 1243.33 525 1185.8 525 1092 c 2
 525 991 l 1
 799 991 l 1
 799 886 l 1
 526 886 l 1
EndSplineSet
EndChar

StartChar: j
Encoding: 106 106 152
Width: 532
VWidth: 0
Flags: W
PickledData: "(dp1
S'org.robofab.postScriptHintData'
p2
(dp3
sS'com.typemytype.robofont.layerData'
p4
(dp5
s."
LayerCount: 2
Fore
SplineSet
377 1028 m 1
 377 133 l 2
 377 24.46 355.6 -63.79 302 -139.5 c 0
 248.4 -215.21 164.3 -276.42 37 -326 c 1
 -18 -203 l 1
 61.06 -158.78 113.5 -118.77 147 -64.5 c 0
 180.5 -10.23 194 55.52 194 152 c 2
 194 1028 l 1
 377 1028 l 1
381 1408 m 1
 381 1226 l 1
 189 1226 l 1
 189 1408 l 1
 381 1408 l 1
EndSplineSet
EndChar

StartChar: k
Encoding: 107 107 153
Width: 1062
VWidth: 0
Flags: W
PickledData: "(dp1
S'org.robofab.postScriptHintData'
p2
(dp3
sS'com.typemytype.robofont.layerData'
p4
(dp5
s."
LayerCount: 2
Fore
SplineSet
1025 0 m 1
 835 0 l 1
 415 486 l 1
 337 415 l 1
 337 0 l 1
 152 0 l 1
 152 1419 l 1
 337 1437 l 1
 337 564 l 1
 806 1028 l 1
 1001 1028 l 1
 1001 989 l 1
 568 558 l 1
 1025 35 l 1
 1025 0 l 1
EndSplineSet
EndChar

StartChar: l
Encoding: 108 108 154
Width: 496
VWidth: 0
Flags: W
PickledData: "(dp1
S'org.robofab.postScriptHintData'
p2
(dp3
sS'com.typemytype.robofont.layerData'
p4
(dp5
s."
LayerCount: 2
Fore
SplineSet
163 1419 m 1
 347 1437 l 1
 347 0 l 1
 163 0 l 1
 163 1419 l 1
EndSplineSet
EndChar

StartChar: less
Encoding: 60 60 155
Width: 989
VWidth: 0
Flags: W
PickledData: "(dp1
S'org.robofab.postScriptHintData'
p2
(dp3
sS'com.typemytype.robofont.layerData'
p4
(dp5
s."
LayerCount: 2
Fore
SplineSet
79 623 m 1
 808 987 l 1
 857 823 l 1
 285 561 l 1
 857 301 l 1
 808 138 l 1
 79 506 l 1
 79 623 l 1
EndSplineSet
EndChar

StartChar: lessequal
Encoding: 8804 8804 156
Width: 1007
VWidth: 0
Flags: W
PickledData: "(dp1
S'org.robofab.postScriptHintData'
p2
(dp3
sS'com.typemytype.robofont.layerData'
p4
(dp5
s."
LayerCount: 2
Fore
SplineSet
127 -6 m 1
 127 121 l 1
 852 121 l 1
 852 -6 l 1
 127 -6 l 1
849 280 m 1
 838.28 284.02 791.66 305.52 726 335 c 0
 660.34 364.48 576.42 401.31 492 439.5 c 0
 407.58 477.69 323.66 515.52 258 545 c 0
 192.34 574.48 144.38 595.98 135 600 c 1
 135 692 l 1
 144.38 696.02 192.34 717.69 258 746.5 c 0
 323.66 775.31 407.58 812.48 492 850 c 0
 576.42 887.52 660.34 924.52 726 954 c 0
 791.66 983.48 838.28 1003.98 849 1008 c 1
 849 840 l 1
 819.52 827.94 764.15 806.46 700.5 781 c 0
 636.85 755.54 564.15 727.46 500.5 702 c 0
 436.85 676.54 381.48 655.06 352 643 c 1
 366.74 637.64 421.49 615.97 490.5 588.5 c 0
 559.51 561.03 641.32 528.97 711 501.5 c 0
 780.68 474.03 834.26 451.36 849 446 c 1
 849 280 l 1
EndSplineSet
EndChar

StartChar: logicalnot
Encoding: 172 172 157
Width: 1386
VWidth: 0
Flags: W
PickledData: "(dp1
S'org.robofab.postScriptHintData'
p2
(dp3
sS'com.typemytype.robofont.layerData'
p4
(dp5
s."
LayerCount: 2
Fore
SplineSet
1025 119 m 1
 1025 692 l 1
 104 692 l 1
 104 836 l 1
 1205 836 l 1
 1205 119 l 1
 1025 119 l 1
EndSplineSet
EndChar

StartChar: lozenge
Encoding: 9674 9674 158
Width: 978
VWidth: 0
Flags: W
PickledData: "(dp1
S'org.robofab.postScriptHintData'
p2
(dp3
sS'com.typemytype.robofont.layerData'
p4
(dp5
s."
LayerCount: 2
Fore
SplineSet
235 554 m 1
 489 101 l 1
 742 554 l 1
 489 1001 l 1
 235 554 l 1
391 1119 m 1
 583 1119 l 1
 922 554 l 1
 587 -6 l 1
 387 -6 l 1
 56 554 l 1
 391 1119 l 1
EndSplineSet
EndChar

StartChar: lslash
Encoding: 322 322 159
Width: 683
VWidth: 0
Flags: W
PickledData: "(dp1
S'org.robofab.postScriptHintData'
p2
(dp3
sS'com.typemytype.robofont.layerData'
p4
(dp5
s."
LayerCount: 2
Fore
SplineSet
261 713 m 1
 37 605 l 1
 37 750 l 1
 261 858 l 1
 261 1470 l 1
 445 1496 l 1
 445 949 l 1
 664 1055 l 1
 664 911 l 1
 445 805 l 1
 445 0 l 1
 261 0 l 1
 261 713 l 1
EndSplineSet
EndChar

StartChar: m
Encoding: 109 109 160
Width: 1660
VWidth: 0
Flags: W
PickledData: "(dp1
S'org.robofab.postScriptHintData'
p2
(dp3
sS'com.typemytype.robofont.layerData'
p4
(dp5
S'b'
(dp6
S'name'
p7
S'm'
sS'lib'
p8
(dp9
sS'unicodes'
p10
(tsS'width'
p11
I1660
sS'contours'
p12
(tsS'components'
p13
(tsS'anchors'
p14
(tsss."
LayerCount: 2
Fore
SplineSet
327 808 m 1
 404 856 473 901 585 901 c 0
 699 901 747 834 747 644 c 2
 747 0 l 1
 922 0 l 1
 922 810 l 1
 992 851 1074 901 1167 901 c 0
 1301 901 1342 804 1342 584 c 2
 1342 0 l 1
 1517 0 l 1
 1517 624 l 2
 1517 931 1402 1043 1201 1043 c 0
 1045 1043 931 967 869 919 c 1
 815 1001 738 1043 627 1043 c 0
 466 1043 360 970 300 922 c 1
 274 1037 l 1
 152 1025 l 1
 152 0 l 1
 327 0 l 1
 327 808 l 1
EndSplineSet
EndChar

StartChar: macron
Encoding: 175 175 161
Width: 890
VWidth: 0
Flags: W
PickledData: "(dp1
S'org.robofab.postScriptHintData'
p2
(dp3
sS'com.typemytype.robofont.layerData'
p4
(dp5
s."
LayerCount: 2
Fore
SplineSet
150 1185 m 1
 150 1319 l 1
 741 1319 l 1
 741 1185 l 1
 150 1185 l 1
EndSplineSet
EndChar

StartChar: minus
Encoding: 8722 8722 162
Width: 984
VWidth: 0
Flags: W
PickledData: "(dp1
S'org.robofab.postScriptHintData'
p2
(dp3
sS'com.typemytype.robofont.layerData'
p4
(dp5
s."
LayerCount: 2
Fore
SplineSet
825 455 m 1
 159 455 l 1
 159 591 l 1
 825 591 l 1
 825 455 l 1
EndSplineSet
EndChar

StartChar: mu
Encoding: 181 181 163
Width: 1161
VWidth: 0
Flags: W
PickledData: "(dp1
S'org.robofab.postScriptHintData'
p2
(dp3
sS'com.typemytype.robofont.layerData'
p4
(dp5
s."
LayerCount: 2
Fore
SplineSet
1020 3 m 1
 887 -8 l 1
 862 132 l 1
 838.55 101.85 811.16 75.45 779 52 c 0
 722.72 11.8 642.54 -28 534 -28 c 0
 473.7 -28 427.67 -11.8 393.5 15 c 0
 359.33 41.8 338.04 78.46 330 120 c 1
 326 -300 l 1
 171 -300 l 1
 171 1019 l 1
 354 1019 l 1
 354 435 l 2
 354 318.42 366.18 239.26 397 187 c 0
 427.82 134.74 475.96 113 551 113 c 0
 635.42 113 704.08 141.18 755 172 c 0
 784.48 189.42 810.88 208.89 835 231 c 1
 835 1019 l 1
 1020 1019 l 1
 1020 3 l 1
EndSplineSet
EndChar

StartChar: multiply
Encoding: 215 215 164
Width: 865
VWidth: 0
Flags: W
PickledData: "(dp1
S'org.robofab.postScriptHintData'
p2
(dp3
sS'com.typemytype.robofont.layerData'
p4
(dp5
s."
LayerCount: 2
Fore
SplineSet
529 524 m 1
 731 323 l 1
 633 226 l 1
 432 427 l 1
 231 226 l 1
 134 323 l 1
 334 524 l 1
 134 725 l 1
 231 823 l 1
 432 622 l 1
 633 823 l 1
 731 725 l 1
 529 524 l 1
EndSplineSet
EndChar

StartChar: n
Encoding: 110 110 165
Width: 1144
VWidth: 0
Flags: W
PickledData: "(dp1
S'org.robofab.postScriptHintData'
p2
(dp3
sS'com.typemytype.robofont.layerData'
p4
(dp5
s."
LayerCount: 2
Fore
SplineSet
152 1025 m 1
 281 1037 l 1
 308 922 l 1
 371.86396707 969.897975302 497.94569455 1043 668 1043 c 0
 880.627982965 1043 1001 930.889493133 1001 624 c 2
 1001 0 l 1
 816 0 l 1
 816 584 l 2
 816 803.76 774.04 901 632 901 c 0
 514.146960877 901 418.150688308 855.952679454 337 808 c 1
 337 0 l 1
 152 0 l 1
 152 1025 l 1
EndSplineSet
EndChar

StartChar: nine
Encoding: 57 57 166
Width: 1196
VWidth: 0
Flags: W
PickledData: "(dp1
S'org.robofab.postScriptHintData'
p2
(dp3
sS'com.typemytype.robofont.layerData'
p4
(dp5
s."
LayerCount: 2
Fore
SplineSet
255 142 m 1
 371.58 127.26 465.92 126.28 549 137 c 1
 665.58 150.4 745.74 197.43 798 278.5 c 0
 850.26 359.57 873.66 474.9 875 629 c 1
 848.2 604.88 804.47 573.31 743.5 544.5 c 0
 682.53 515.69 606.46 496 514 496 c 0
 394.74 496 288.72 532.98 211 604 c 0
 133.28 675.02 86 778.34 86 911 c 0
 86 1028.92 123.43 1140.24 204.5 1226 c 0
 285.57 1311.76 407.14 1365 580 1365 c 0
 738.12 1365 858.09 1309.71 940.5 1200.5 c 0
 1022.91 1091.29 1066 937.34 1066 735 c 0
 1066 507.2 1034.06 330.79 955 205.5 c 0
 875.94 80.21 751.94 9.42 563 -8 c 1
 478.58 -21.4 387.88 -20.72 278 -10 c 1
 255 142 l 1
548 642 m 0
 640.46 642 720.04 671.2 779 698 c 0
 813.17 714.08 844.19 732.23 873 753 c 1
 873 757.02 874 770.94 874 783 c 0
 874 795.06 874 805.98 874 810 c 0
 874 941.32 847.92 1040.98 797 1112 c 0
 746.08 1183.02 670.5 1220 570 1220 c 0
 370.34 1220 267 1123.38 267 913 c 0
 267 828.58 287.44 761.73 333 715.5 c 0
 378.56 669.27 447.5 642 548 642 c 0
EndSplineSet
EndChar

StartChar: notequal
Encoding: 8800 8800 167
Width: 874
VWidth: 0
Flags: W
PickledData: "(dp1
S'org.robofab.postScriptHintData'
p2
(dp3
sS'com.typemytype.robofont.layerData'
p4
(dp5
s."
LayerCount: 2
Fore
SplineSet
448 334 m 1
 390 181 l 1
 268 229 l 1
 310 334 l 1
 106 336 l 1
 106 449 l 1
 348 449 l 1
 387 548 l 1
 104 548 l 1
 104 663 l 1
 425 663 l 1
 488 830 l 1
 613 788 l 1
 563 663 l 1
 769 663 l 1
 769 548 l 1
 526 548 l 1
 486 449 l 1
 771 449 l 1
 771 334 l 1
 448 334 l 1
EndSplineSet
EndChar

StartChar: numbersign
Encoding: 35 35 169
Width: 1226
VWidth: 0
Flags: W
PickledData: "(dp1
S'org.robofab.postScriptHintData'
p2
(dp3
sS'com.typemytype.robofont.layerData'
p4
(dp5
s."
LayerCount: 2
Fore
SplineSet
429 430 m 1
 395 103 l 1
 245 103 l 1
 278 430 l 1
 88 430 l 1
 98 559 l 1
 290 559 l 1
 334 992 l 1
 139 992 l 1
 153 1119 l 1
 348 1119 l 1
 382 1462 l 1
 533 1462 l 1
 498 1119 l 1
 809 1119 l 1
 841 1460 l 1
 993 1460 l 1
 960 1119 l 1
 1139 1119 l 1
 1124 992 l 1
 945 992 l 1
 901 559 l 1
 1092 559 l 1
 1082 430 l 1
 888 430 l 1
 856 102 l 1
 703 102 l 1
 739 430 l 1
 429 430 l 1
749 559 m 1
 792 992 l 1
 486 992 l 1
 443 559 l 1
 749 559 l 1
EndSplineSet
EndChar

StartChar: o
Encoding: 111 111 170
Width: 1107
VWidth: 0
Flags: W
PickledData: "(dp1
S'org.robofab.postScriptHintData'
p2
(dp3
sS'com.typemytype.robofont.layerData'
p4
(dp5
s."
LayerCount: 2
Fore
SplineSet
554 1043 m 0
 863.206127686 1043 1007 835.899553476 1007 510 c 0
 1007 198.105123378 861.200398768 -18 554 -18 c 0
 244.128293417 -18 100 198.105123378 100 510 c 0
 100 835.899553476 242.105123378 1043 554 1043 c 0
554 122 m 0
 754.365123147 122 821 283.475898619 821 512 c 0
 821 763.435614293 752.702796984 901 554 901 c 0
 351.225711212 901 287 761.734803521 287 512 c 0
 287 284.9195271 352.361087017 122 554 122 c 0
EndSplineSet
EndChar

StartChar: ogonek
Encoding: 731 731 175
Width: 591
VWidth: 0
Flags: W
PickledData: "(dp1
S'org.robofab.postScriptHintData'
p2
(dp3
sS'com.typemytype.robofont.layerData'
p4
(dp5
s."
LayerCount: 2
Fore
SplineSet
526 -428 m 1
 515.28 -435.37 502.08 -441.97 486 -448 c 0
 459.2 -458.72 420.28 -468 364 -468 c 0
 264.84 -468 195.9 -438.73 149 -392.5 c 0
 102.1 -346.27 81 -285 81 -218 c 0
 81 -129.56 118.89 -66.07 174.5 -18.5 c 0
 230.11 29.07 301.98 57.58 373 75 c 1
 373 12 l 1
 260.44 -30.88 202 -104.56 202 -193 c 0
 202 -305.56 256.42 -351 373 -351 c 0
 422.58 -351 462.18 -340.72 493 -330 c 0
 510.42 -323.97 525.93 -317.04 540 -309 c 1
 526 -428 l 1
EndSplineSet
EndChar

StartChar: one
Encoding: 49 49 177
Width: 659
VWidth: 0
Flags: W
PickledData: "(dp1
S'org.robofab.postScriptHintData'
p2
(dp3
sS'com.typemytype.robofont.layerData'
p4
(dp5
s."
LayerCount: 2
Fore
SplineSet
296 972 m 1
 299 1158 l 1
 204 1106 l 1
 97 1050 l 1
 39 1191 l 1
 338 1336 l 1
 471 1309 l 1
 471 0 l 1
 295 0 l 1
 296 972 l 1
EndSplineSet
EndChar

StartChar: onesuperior
Encoding: 185 185 180
Width: 613
VWidth: 0
Flags: W
PickledData: "(dp1
S'org.robofab.postScriptHintData'
p2
(dp3
sS'com.typemytype.robofont.layerData'
p4
(dp5
s."
LayerCount: 2
Fore
SplineSet
289 599 m 1
 289 798 l 1
 203 751 l 1
 98 697 l 1
 43 829 l 1
 326 966 l 1
 448 939 l 1
 448 0 l 1
 289 0 l 1
 289 599 l 1
EndSplineSet
EndChar

StartChar: ordfeminine
Encoding: 170 170 181
Width: 953
VWidth: 0
Flags: W
PickledData: "(dp1
S'org.robofab.postScriptHintData'
p2
(dp3
sS'com.typemytype.robofont.layerData'
p4
(dp5
s."
LayerCount: 2
Fore
SplineSet
198 375 m 1
 798 375 l 1
 798 297 l 1
 198 297 l 1
 198 375 l 1
EndSplineSet
Refer: 66 97 N 0.736217 0 0 0.735715 59 527 2
EndChar

StartChar: ordmasculine
Encoding: 186 186 182
Width: 930
VWidth: 0
Flags: W
PickledData: "(dp1
S'org.robofab.postScriptHintData'
p2
(dp3
sS'com.typemytype.robofont.layerData'
p4
(dp5
s."
LayerCount: 2
Fore
SplineSet
190 375 m 1
 739 375 l 1
 739 297 l 1
 190 297 l 1
 190 375 l 1
EndSplineSet
Refer: 170 111 N 0.733966 0 0 0.735104 53 528 2
EndChar

StartChar: oslash
Encoding: 248 248 183
Width: 1119
VWidth: 0
Flags: W
PickledData: "(dp1
S'org.robofab.postScriptHintData'
p2
(dp3
sS'com.typemytype.robofont.layerData'
p4
(dp5
s."
LayerCount: 2
Fore
SplineSet
560 1035 m 0
 628.34 1035 688.74 1024.12 741 1000 c 1
 841 1226 l 1
 923 1183 l 1
 917.64 1172.28 903.76 1143.37 885 1102.5 c 0
 866.24 1061.63 842.78 1010.92 820 960 c 1
 951.32 868.88 1013 705 1013 504 c 0
 1013 352.58 977.04 220.31 902 124.5 c 0
 826.96 28.69 715.44 -28 560 -28 c 0
 495.68 -28 441.58 -17.42 392 0 c 1
 349.12 -100.5 316.72 -172.88 306 -197 c 1
 221 -157 l 1
 311 38 l 1
 241.32 83.56 190.67 148.6 156.5 229 c 0
 122.33 309.4 106 402.16 106 504 c 0
 106 656.76 141.96 787.69 217 883.5 c 0
 292.04 979.31 404.56 1035 560 1035 c 0
293 506 m 0
 293 374.68 318.68 263.02 383 192 c 1
 682 868 l 1
 647.16 886.76 608.24 896 560 896 c 0
 459.5 896 393.71 856.68 351.5 787 c 0
 309.29 717.32 293 621.24 293 506 c 0
560 109 m 0
 660.5 109 726.29 152.81 768.5 224.5 c 0
 810.71 296.19 827 394.78 827 506 c 0
 827 631.96 802.62 734.66 745 803 c 1
 449 131 l 1
 480.49 116.26 517.12 109 560 109 c 0
EndSplineSet
EndChar

StartChar: p
Encoding: 112 112 185
Width: 1120
VWidth: 0
Flags: W
PickledData: "(dp1
S'org.robofab.postScriptHintData'
p2
(dp3
sS'com.typemytype.robofont.layerData'
p4
(dp5
S'b'
(dp6
S'name'
p7
S'p'
sS'lib'
p8
(dp9
sS'unicodes'
p10
(tsS'width'
p11
I1120
sS'contours'
p12
((dp13
S'points'
p14
((dp15
S'segmentType'
p16
S'line'
p17
sS'x'
F337
sS'smooth'
p18
I00
sS'y'
F198
s(dp19
S'y'
F183.93000000000001
sS'x'
F360.44999999999999
sg7
S'inserted'
p20
s(dp21
S'y'
F171.38999999999999
sS'x'
F385.52999999999997
s(dp22
g16
S'curve'
p23
sS'x'
F413
sg18
I00
sS'y'
F160
s(dp24
S'y'
F141.24000000000001
sS'x'
F459.89999999999998
sg18
I00
s(dp25
S'y'
F122
sS'x'
F524.96000000000004
sg18
I00
s(dp26
g16
S'curve'
p27
sS'x'
F600
sg18
I00
sS'y'
F122
s(dp28
S'y'
F122
sS'x'
F679.05999999999995
sg18
I00
s(dp29
S'y'
F148.50999999999999
sS'x'
F737.79999999999995
sg18
I00
s(dp30
g16
S'curve'
p31
sS'x'
F778
sg18
I01
sg7
S'inserted'
p32
sS'y'
F213.5
s(dp33
S'y'
F278.49000000000001
sS'x'
F818.20000000000005
sg18
I00
s(dp34
S'y'
F379.27999999999997
sS'x'
F838
sg18
I00
s(dp35
g16
S'curve'
p36
sS'x'
F838
sg18
I00
sS'y'
F524
s(dp37
S'y'
F789.31999999999994
sS'x'
F838
sg18
I00
s(dp38
S'y'
F901
sS'x'
F767.03999999999996
sg18
I00
s(dp39
g16
S'curve'
p40
sS'x'
F625
sg18
I00
sS'y'
F901
s(dp41
S'y'
F901
sS'x'
F544.60000000000002
sg18
I00
s(dp42
S'y'
F879.44000000000005
sS'x'
F474.25999999999999
sg18
I00
s(dp43
g16
S'curve'
p44
sS'x'
F422
sg18
I00
sS'y'
F858
s(dp45
S'y'
F845.94000000000005
sS'x'
F391.18000000000001
sg7
S'inserted'
p46
s(dp47
S'y'
F832.08000000000004
sS'x'
F363.13
s(dp48
g16
S'curve'
p49
sS'x'
F337
sg18
I00
sS'y'
F816
stp50
s(dp51
g14
((dp52
g16
S'line'
p53
sS'x'
F272
sg18
I00
sS'y'
F1036
s(dp54
g16
S'line'
p55
sS'x'
F305
sg18
I00
sS'y'
F927
s(dp56
S'y'
F959.15999999999997
sS'x'
F349.22000000000003
sg18
I00
s(dp57
S'y'
F988.73000000000002
sS'x'
F396.38
sg18
I00
s(dp58
g16
S'curve'
p59
sS'x'
F454
sg18
I01
sg7
S'inserted'
p60
sS'y'
F1009.5
s(dp61
S'y'
F1030.27
sS'x'
F511.62
sg18
I00
s(dp62
S'y'
F1043
sS'x'
F576.91999999999996
sg18
I00
s(dp63
g16
S'curve'
p64
sS'x'
F660
sg18
I00
sS'y'
F1043
s(dp65
S'y'
F1043
sS'x'
F775.24000000000001
sg18
I00
s(dp66
S'y'
F1001.9300000000001
sS'x'
F865.01999999999998
sg18
I00
s(dp67
g16
S'curve'
p68
sS'x'
F928
sg18
I01
sg7
S'inserted'
p69
sS'y'
F915.5
s(dp70
S'y'
F829.06999999999994
sS'x'
F990.98000000000002
sg18
I00
s(dp71
S'y'
F697.58000000000004
sS'x'
F1024
sg18
I00
s(dp72
g16
S'curve'
p73
sS'x'
F1024
sg18
I00
sS'y'
F514
s(dp74
S'y'
F326.39999999999998
sS'x'
F1024
sg18
I00
s(dp75
S'y'
F192.93000000000001
sS'x'
F983.16999999999996
sg18
I00
s(dp76
g16
S'curve'
p77
sS'x'
F915.5
sg18
I01
sg7
S'inserted'
p78
sS'y'
F106.5
s(dp79
S'y'
F20.069999999999993
sS'x'
F847.83000000000004
sg18
I00
s(dp80
S'y'
F-18
sS'x'
F754.86000000000001
sg18
I00
s(dp81
g16
S'curve'
p82
sS'x'
F649
sg18
I00
sS'y'
F-18
s(dp83
S'y'
F-18
sS'x'
F556.53999999999996
sg18
I00
s(dp84
S'y'
F3.2199999999999989
sS'x'
F480.27999999999997
sg18
I00
s(dp85
g16
S'curve'
p86
sS'x'
F424
sg18
I00
sS'y'
F26
s(dp87
S'y'
F38.730000000000004
sS'x'
F391.83999999999997
sg7
S'inserted'
p88
s(dp89
S'y'
F53.579999999999998
sS'x'
F363.13
s(dp90
g16
S'curve'
p91
sS'x'
F337
sg18
I00
sS'y'
F71
s(dp92
g16
S'line'
p93
sS'x'
F337
sg18
I00
sS'y'
F-399
s(dp94
g16
S'line'
p95
sS'x'
F152
sg18
I00
sS'y'
F-415
s(dp96
g16
S'line'
p97
sS'x'
F152
sg18
I00
sS'y'
F1025
stp98
stp99
sS'components'
p100
(tsS'anchors'
p101
(tsss."
LayerCount: 2
Fore
SplineSet
272 1036 m 1
 305 927 l 1
 393.20111295 991.146263964 476 1043 643 1043 c 0
 874 1043 1020 880 1020 514 c 0
 1020 136 835 -18 625 -18 c 0
 480 -18 408.929019182 23.0473205455 337 71 c 1
 337 -399 l 1
 152 -415 l 1
 152 1025 l 1
 272 1036 l 1
337 198 m 1
 401.225561092 159.464663345 463 122 581 122 c 0
 738 122 834 233 834 524 c 0
 834 789 750 901 608 901 c 0
 480 901 407.212741521 859.207840936 337 816 c 1
 337 198 l 1
EndSplineSet
EndChar

StartChar: paragraph
Encoding: 182 182 186
Width: 1182
VWidth: 0
Flags: W
PickledData: "(dp1
S'org.robofab.postScriptHintData'
p2
(dp3
sS'com.typemytype.robofont.layerData'
p4
(dp5
s."
LayerCount: 2
Fore
SplineSet
440 878 m 1
 324.76 873.98 232.49 887.29 167.5 929.5 c 0
 102.51 971.71 67 1040.8 67 1148 c 1
 68.34 1282 117.71 1354.14 209.5 1393 c 0
 301.29 1431.86 432.82 1437 603 1437 c 2
 1101 1437 l 1
 1126 1298 l 1
 901 1298 l 1
 901 -3 l 1
 733 -3 l 1
 733 1298 l 1
 608 1298 l 1
 608 -3 l 1
 440 -3 l 1
 440 878 l 1
EndSplineSet
EndChar

StartChar: parenleft
Encoding: 40 40 187
Width: 598
VWidth: 0
Flags: W
PickledData: "(dp1
S'org.robofab.postScriptHintData'
p2
(dp3
sS'com.typemytype.robofont.layerData'
p4
(dp5
s."
LayerCount: 2
Fore
SplineSet
107 619 m 0
 107 766.4 128.67 888.82 161.5 992 c 0
 194.33 1095.18 236.78 1176.68 281 1241 c 0
 332.59 1316.71 390.34 1376.77 456 1423 c 1
 541 1326 l 1
 492.76 1283.12 450.52 1229 413 1162 c 0
 380.84 1104.38 348.95 1033.12 325.5 942 c 0
 302.05 850.88 286 744.3 286 617 c 0
 286 489.7 302.05 382.95 325.5 292.5 c 0
 348.95 202.05 380.84 129.28 413 73 c 0
 450.52 6.67 492.76 -47.12 541 -90 c 1
 456 -186 l 1
 390.34 -139.77 332.59 -79.71 281 -4 c 0
 236.78 60.32 194.33 141.82 161.5 245 c 0
 128.67 348.18 107 471.6 107 619 c 0
EndSplineSet
EndChar

StartChar: parenright
Encoding: 41 41 188
Width: 596
VWidth: 0
Flags: W
PickledData: "(dp1
S'org.robofab.postScriptHintData'
p2
(dp3
sS'com.typemytype.robofont.layerData'
p4
(dp5
s."
LayerCount: 2
Fore
SplineSet
489 619 m 0
 489 471.6 467.33 348.18 434.5 245 c 0
 401.67 141.82 359.22 60.32 315 -4 c 0
 263.41 -79.71 205.99 -139.77 141 -186 c 1
 55 -90 l 1
 103.24 -47.12 145.48 6.67 183 73 c 0
 215.16 129.28 246.88 202.05 271 292.5 c 0
 295.12 382.95 311 489.7 311 617 c 0
 311 744.3 295.12 850.88 271 942 c 0
 246.88 1033.12 215.16 1104.38 183 1162 c 0
 145.48 1229 103.24 1283.12 55 1326 c 1
 141 1423 l 1
 205.99 1376.77 263.41 1316.71 315 1241 c 0
 359.22 1176.68 401.67 1095.18 434.5 992 c 0
 467.33 888.82 489 766.4 489 619 c 0
EndSplineSet
EndChar

StartChar: partialdiff
Encoding: 8706 8706 189
Width: 1105
VWidth: 0
Flags: W
PickledData: "(dp1
S'org.robofab.postScriptHintData'
p2
(dp3
sS'com.typemytype.robofont.layerData'
p4
(dp5
s."
LayerCount: 2
Fore
SplineSet
533 1539 m 0
 654.94 1539 743.34 1495.36 809 1423 c 0
 874.66 1350.64 915.71 1249.41 940.5 1133.5 c 0
 965.29 1017.59 974 888.32 974 757 c 0
 974 444.78 936.55 250.26 859.5 131 c 0
 782.45 11.74 668.1 -29 514 -29 c 0
 442.98 -29 373.98 -17.16 311 15 c 0
 248.02 47.16 194.03 97.77 154.5 177.5 c 0
 114.97 257.23 92 362.96 92 505 c 0
 92 660.44 125.83 791.86 193.5 887 c 0
 261.17 982.14 361.66 1038 497 1038 c 0
 593.48 1038 668.4 1001.18 722 965 c 0
 753.49 943.56 780.88 919.8 805 893 c 1
 800.98 969.38 797.23 1052.94 784.5 1132 c 0
 771.77 1211.06 749.05 1283.4 705.5 1337 c 0
 661.95 1390.6 598.14 1424 503 1424 c 0
 444.04 1424 392.86 1412.72 354 1402 c 0
 331.89 1395.3 311.76 1388.37 293 1381 c 1
 293 1390.38 296.49 1413.22 298.5 1436 c 0
 300.51 1458.78 304 1481.28 304 1492 c 1
 322.76 1500.04 343.55 1507.63 367 1515 c 0
 407.2 1527.06 463.32 1539 533 1539 c 0
525 109 m 0
 586.64 109 637.29 119.16 679.5 154 c 0
 721.71 188.84 753.56 245.52 775 342 c 0
 796.44 438.48 806 569.42 806 753 c 1
 779.87 779.13 751.82 802.56 721 824 c 0
 668.74 860.18 598.38 894.66 522 896 c 0
 429.54 897.34 365.54 853.34 324 785 c 0
 282.46 716.66 264 626.8 264 533 c 0
 264 384.26 285.12 278.51 328 209.5 c 0
 370.88 140.49 436.56 109 525 109 c 0
EndSplineSet
EndChar

StartChar: percent
Encoding: 37 37 190
Width: 1394
VWidth: 0
Flags: W
PickledData: "(dp1
S'org.robofab.postScriptHintData'
p2
(dp3
sS'com.typemytype.robofont.layerData'
p4
(dp5
s."
LayerCount: 2
Fore
SplineSet
351 864 m 0
 408.62 864 444.39 886.63 466.5 927.5 c 0
 488.61 968.37 496 1026.64 496 1099 c 0
 496 1172.7 488.61 1230.63 466.5 1271.5 c 0
 444.39 1312.37 408.62 1335 351 1335 c 0
 292.04 1335 256.61 1312.37 234.5 1271.5 c 0
 212.39 1230.63 205 1172.7 205 1099 c 0
 205 1026.64 212.39 968.37 234.5 927.5 c 0
 256.61 886.63 292.04 864 351 864 c 0
83 1099 m 0
 83 1328.14 176.8 1438 351 1438 c 0
 527.88 1438 619 1328.14 619 1099 c 0
 619 872.54 530.56 761 351 761 c 0
 174.12 761 83 869.86 83 1099 c 0
205 -12 m 1
 1083 1490 l 1
 1196 1423 l 1
 314 -77 l 1
 205 -12 l 1
1187 321 m 0
 1187 393.36 1179.61 452.63 1157.5 493.5 c 0
 1135.39 534.37 1099.62 557 1042 557 c 0
 983.04 557 946.61 534.37 924.5 493.5 c 0
 902.39 452.63 895 393.36 895 321 c 0
 895 248.64 902.39 189.37 924.5 148.5 c 0
 946.61 107.63 983.04 85 1042 85 c 0
 1099.62 85 1135.39 107.63 1157.5 148.5 c 0
 1179.61 189.37 1187 248.64 1187 321 c 0
774 321 m 0
 774 550.14 863.78 660 1042 660 c 0
 1218.88 660 1310 550.14 1310 321 c 0
 1310 93.87 1221.56 -18 1042 -18 c 0
 865.12 -18 774 91.86 774 321 c 0
EndSplineSet
EndChar

StartChar: period
Encoding: 46 46 191
Width: 469
VWidth: 0
Flags: W
PickledData: "(dp1
S'org.robofab.postScriptHintData'
p2
(dp3
sS'com.typemytype.robofont.layerData'
p4
(dp5
s."
LayerCount: 2
Fore
SplineSet
329 202 m 1
 329 -9 l 1
 139 -9 l 1
 139 202 l 1
 329 202 l 1
EndSplineSet
EndChar

StartChar: periodcentered
Encoding: 183 183 192
Width: 469
VWidth: 0
Flags: W
PickledData: "(dp1
S'org.robofab.postScriptHintData'
p2
(dp3
sS'com.typemytype.robofont.layerData'
p4
(dp5
s."
LayerCount: 2
Fore
SplineSet
321 672 m 1
 321 477 l 1
 148 477 l 1
 148 672 l 1
 321 672 l 1
EndSplineSet
EndChar

StartChar: perthousand
Encoding: 8240 8240 193
Width: 2025
VWidth: 0
Flags: W
PickledData: "(dp1
S'org.robofab.postScriptHintData'
p2
(dp3
sS'com.typemytype.robofont.layerData'
p4
(dp5
s."
LayerCount: 2
Fore
SplineSet
1073 1481 m 1
 1186 1414 l 1
 305 -87 l 1
 196 -21 l 1
 1073 1481 l 1
84 1098 m 0
 84 1211.9 111.76 1295.55 160 1352.5 c 0
 208.24 1409.45 274.28 1437 352 1437 c 0
 432.4 1437 498.93 1409.45 546.5 1352.5 c 0
 594.07 1295.55 621 1211.9 621 1098 c 0
 621 984.1 593.9 900.28 547 844 c 0
 500.1 787.72 433.74 760 352 760 c 0
 272.94 760 206.07 787.72 158.5 844 c 0
 110.93 900.28 84 984.1 84 1098 c 0
498 1098 m 0
 498 1171.7 487.95 1229.63 464.5 1270.5 c 0
 441.05 1311.37 405.6 1334 352 1334 c 0
 299.74 1334 262.95 1311.37 239.5 1270.5 c 0
 216.05 1229.63 206 1171.7 206 1098 c 0
 206 1025.64 216.05 967.37 239.5 926.5 c 0
 262.95 885.63 299.74 863 352 863 c 0
 457.86 863 498 951.94 498 1098 c 0
1423 310 m 0
 1423 423.9 1448.93 507.72 1496.5 564 c 0
 1544.07 620.28 1609.6 648 1690 648 c 0
 1770.4 648 1837.1 620.28 1884 564 c 0
 1930.9 507.72 1958 423.9 1958 310 c 0
 1958 196.1 1931.9 112.45 1885 55.5 c 0
 1838.1 -1.45 1771.74 -29 1690 -29 c 0
 1610.94 -29 1544.9 -1.45 1498 55.5 c 0
 1451.1 112.45 1423 196.1 1423 310 c 0
1835 310 m 0
 1835 382.36 1825.95 440.63 1802.5 481.5 c 0
 1779.05 522.37 1743.6 545 1690 545 c 0
 1637.74 545 1600.95 522.37 1577.5 481.5 c 0
 1554.05 440.63 1544 382.36 1544 310 c 0
 1544 236.3 1554.05 178.37 1577.5 137.5 c 0
 1600.95 96.63 1637.74 74 1690 74 c 0
 1743.6 74 1779.05 96.63 1802.5 137.5 c 0
 1825.95 178.37 1835 236.3 1835 310 c 0
754 310 m 0
 754 423.9 781.1 507.72 828 564 c 0
 874.9 620.28 941.6 648 1022 648 c 0
 1102.4 648 1168.1 620.28 1215 564 c 0
 1261.9 507.72 1289 423.9 1289 310 c 0
 1289 196.1 1262.9 112.45 1216 55.5 c 0
 1169.1 -1.45 1102.4 -29 1022 -29 c 0
 942.94 -29 877.07 -1.45 829.5 55.5 c 0
 781.93 112.45 754 196.1 754 310 c 0
1167 310 m 0
 1167 382.36 1156.78 440.63 1134 481.5 c 0
 1111.22 522.37 1075.6 545 1022 545 c 0
 968.4 545 932.95 522.37 909.5 481.5 c 0
 886.05 440.63 876 382.36 876 310 c 0
 876 236.3 886.05 178.37 909.5 137.5 c 0
 932.95 96.63 968.4 74 1022 74 c 0
 1127.86 74 1167 162.6 1167 310 c 0
EndSplineSet
EndChar

StartChar: pi
Encoding: 960 960 194
Width: 1204
VWidth: 0
Flags: W
PickledData: "(dp1
S'org.robofab.postScriptHintData'
p2
(dp3
sS'com.typemytype.robofont.layerData'
p4
(dp5
s."
LayerCount: 2
Fore
SplineSet
805 866 m 1
 570 866 l 1
 462 421 l 1
 427.16 284.32 387.05 191.98 343.5 129 c 0
 299.95 66.02 254.9 33.42 208 16 c 0
 161.1 -1.42 115.22 -3 71 -3 c 1
 68.32 9.06 60.87 39.52 53.5 69 c 0
 46.13 98.48 38.68 127.94 36 140 c 1
 100.32 140 150.29 154.1 192.5 201 c 0
 234.71 247.9 269.16 325.02 304 455 c 0
 320.08 516.64 339.07 587.47 358.5 660.5 c 0
 377.93 733.53 396.92 804.36 413 866 c 1
 219 866 l 1
 225.7 908.88 233.96 952.78 242 997 c 1
 1163 997 l 1
 1154.96 952.78 1148.04 908.88 1140 866 c 1
 970 866 l 1
 941.86 686.44 915.14 513.56 887 334 c 0
 874.94 257.62 872.28 204.01 883 168.5 c 0
 893.72 132.99 920.1 116 967 116 c 0
 1007.2 116 1043.2 123.3 1070 130 c 0
 1085.41 134.02 1099.27 138.97 1112 145 c 1
 1101.28 98.1 1090.72 54.24 1080 6 c 1
 1067.27 0.64 1053.08 -3.65 1037 -7 c 0
 1008.86 -13.7 970.24 -20 922 -20 c 0
 842.94 -20 783.01 3.89 747.5 59.5 c 0
 711.99 115.11 701.24 201.7 720 329 c 1
 805 866 l 1
EndSplineSet
EndChar

StartChar: plus
Encoding: 43 43 195
Width: 848
VWidth: 0
Flags: W
PickledData: "(dp1
S'org.robofab.postScriptHintData'
p2
(dp3
sS'com.typemytype.robofont.layerData'
p4
(dp5
s."
LayerCount: 2
Fore
SplineSet
493 455 m 1
 493 153 l 1
 355 153 l 1
 355 455 l 1
 91 455 l 1
 91 591 l 1
 355 591 l 1
 355 895 l 1
 493 895 l 1
 493 591 l 1
 757 591 l 1
 757 455 l 1
 493 455 l 1
EndSplineSet
EndChar

StartChar: plusminus
Encoding: 177 177 196
Width: 1047
VWidth: 0
Flags: W
PickledData: "(dp1
S'org.robofab.postScriptHintData'
p2
(dp3
sS'com.typemytype.robofont.layerData'
p4
(dp5
s."
LayerCount: 2
Fore
SplineSet
132 -5 m 1
 132 109 l 1
 916 109 l 1
 916 -5 l 1
 132 -5 l 1
598 762 m 1
 598 403 l 1
 453 403 l 1
 453 762 l 1
 132 762 l 1
 132 884 l 1
 453 884 l 1
 453 1247 l 1
 598 1247 l 1
 598 884 l 1
 916 884 l 1
 916 762 l 1
 598 762 l 1
EndSplineSet
EndChar

StartChar: product
Encoding: 8719 8719 197
Width: 1422
VWidth: 0
Flags: W
PickledData: "(dp1
S'org.robofab.postScriptHintData'
p2
(dp3
sS'com.typemytype.robofont.layerData'
p4
(dp5
s."
LayerCount: 2
Fore
SplineSet
1233 1409 m 1
 1233 0 l 1
 1045 0 l 1
 1045 874 l 1
 1056 1286 l 1
 367 1286 l 1
 377 848 l 1
 377 0 l 1
 190 0 l 1
 190 1409 l 1
 1233 1409 l 1
EndSplineSet
EndChar

StartChar: q
Encoding: 113 113 198
Width: 1098
VWidth: 0
Flags: W
PickledData: "(dp1
S'org.robofab.postScriptHintData'
p2
(dp3
sS'com.typemytype.robofont.layerData'
p4
(dp5
s."
LayerCount: 2
Fore
SplineSet
946 974 m 1
 906 985 736 1043 530 1043 c 0
 280 1043 100 862 100 509 c 0
 100 147 293 -18 510 -18 c 0
 645 -18 720 34 761 71 c 1
 761 -417 l 1
 946 -390 l 1
 946 974 l 1
761 880 m 1
 761 196 l 1
 696 158 647 122 551 122 c 0
 389 122 284 249 284 512 c 0
 284 817 412 901 564 901 c 0
 658 901 740 885 761 880 c 1
EndSplineSet
EndChar

StartChar: question
Encoding: 63 63 199
Width: 872
VWidth: 0
Flags: W
PickledData: "(dp1
S'org.robofab.postScriptHintData'
p2
(dp3
sS'com.typemytype.robofont.layerData'
p4
(dp5
s."
LayerCount: 2
Fore
SplineSet
804 1093 m 0
 804 965.7 753.51 883.13 684.5 823.5 c 0
 615.49 763.87 531.51 729.99 462.5 698.5 c 0
 393.49 667.01 343 641.54 343 600 c 2
 343 302 l 1
 192 302 l 1
 192 590 l 2
 192 661.02 219.29 710.31 261.5 748.5 c 0
 303.71 786.69 357.72 813.03 414 840.5 c 0
 470.28 867.97 524.29 894.31 566.5 932.5 c 0
 608.71 970.69 636 1018.98 636 1090 c 0
 636 1161.02 619.69 1209.84 581.5 1242 c 0
 543.31 1274.16 482.78 1288 393 1288 c 0
 321.98 1288 249.62 1276.72 192 1266 c 0
 158.5 1259.3 126.82 1252.04 96 1244 c 1
 96 1246.68 97.83 1281.16 98.5 1316 c 0
 99.17 1350.84 101 1385.32 101 1388 c 1
 131.15 1396.71 162.17 1404.63 195 1412 c 0
 251.28 1424.06 322.98 1437 394 1437 c 0
 550.78 1437 652.85 1397.98 716.5 1335 c 0
 780.15 1272.02 804 1186.8 804 1093 c 0
173 78 m 0
 173 108.82 184.41 136.73 202.5 157.5 c 0
 220.59 178.27 245.86 191 274 191 c 0
 303.48 191 329.07 178.27 348.5 157.5 c 0
 367.93 136.73 379 108.82 379 78 c 0
 379 48.52 367.93 22.93 348.5 3.5 c 0
 329.07 -15.93 303.48 -28 274 -28 c 0
 245.86 -28 220.59 -15.93 202.5 3.5 c 0
 184.41 22.93 173 48.52 173 78 c 0
EndSplineSet
EndChar

StartChar: quotedbl
Encoding: 34 34 201
Width: 606
VWidth: 0
Flags: W
PickledData: "(dp1
S'org.robofab.postScriptHintData'
p2
(dp3
sS'com.typemytype.robofont.layerData'
p4
(dp5
s."
LayerCount: 2
Fore
SplineSet
273 1436 m 1
 273 1336.84 261.06 1232.42 249 1148 c 0
 241.63 1099.09 233.71 1052.56 225 1007 c 1
 152 1007 l 1
 145.97 1043.18 141.02 1083.11 137 1128 c 0
 128.96 1204.38 122.68 1310.04 120 1436 c 1
 273 1436 l 1
497 1436 m 1
 497 1336.84 482.74 1232.42 468 1148 c 0
 459.29 1099.09 449.72 1052.56 439 1007 c 1
 369 1007 l 1
 362.3 1033.8 357.02 1096.11 353 1174.5 c 0
 348.98 1252.89 347 1344.88 347 1436 c 1
 497 1436 l 1
EndSplineSet
EndChar

StartChar: quotedblbase
Encoding: 8222 8222 202
Width: 772
VWidth: 0
Flags: W
PickledData: "(dp1
S'org.robofab.postScriptHintData'
p2
(dp3
sS'com.typemytype.robofont.layerData'
p4
(dp5
s."
LayerCount: 2
Fore
SplineSet
631 205 m 1
 632.34 191.6 633.99 176.75 636 160 c 0
 638.68 131.86 641 94.22 641 50 c 0
 641 -101.42 583.7 -185.94 443 -198 c 1
 443 -196.66 438.02 -181.74 434 -167 c 0
 429.98 -152.26 425 -137.34 425 -136 c 1
 477.26 -127.96 506.58 -111.78 524 -89 c 0
 541.42 -66.22 545 -37.84 545 -3 c 1
 426 -3 l 1
 426 195 l 1
 631 205 l 1
338 205 m 1
 340.01 191.6 341.99 176.75 344 160 c 0
 346.68 131.86 350 94.22 350 50 c 0
 350 -101.42 291.7 -185.94 151 -198 c 1
 151 -196.66 146.02 -181.74 142 -167 c 0
 137.98 -152.26 133 -137.34 133 -136 c 1
 185.26 -127.96 214.75 -111.78 231.5 -89 c 0
 248.25 -66.22 253 -37.84 253 -3 c 1
 133 -3 l 1
 133 195 l 1
 338 205 l 1
EndSplineSet
EndChar

StartChar: quotedblleft
Encoding: 8220 8220 203
Width: 824
VWidth: 0
Flags: W
PickledData: "(dp1
S'org.robofab.postScriptHintData'
p2
(dp3
sS'com.typemytype.robofont.layerData'
p4
(dp5
s."
LayerCount: 2
Fore
SplineSet
712 1129 m 1
 484 1113 l 1
 481.99 1129.75 480.01 1147.57 478 1167 c 0
 475.32 1199.16 473 1243.12 473 1286 c 0
 473 1430.72 535.56 1515.1 691 1562 c 1
 717 1481 l 1
 670.1 1474.3 636.61 1452.8 614.5 1426 c 0
 592.39 1399.2 581 1366.16 581 1334 c 1
 712 1334 l 1
 712 1129 l 1
361 1129 m 1
 133 1113 l 1
 130.99 1129.75 129.01 1147.57 127 1167 c 0
 124.32 1199.16 121 1243.12 121 1286 c 0
 121 1430.72 182.56 1515.1 338 1562 c 1
 366 1481 l 1
 319.1 1474.3 283.78 1452.8 261 1426 c 0
 238.22 1399.2 227 1366.16 227 1334 c 1
 361 1334 l 1
 361 1129 l 1
EndSplineSet
EndChar

StartChar: quotedblright
Encoding: 8221 8221 204
Width: 792
VWidth: 0
Flags: W
PickledData: "(dp1
S'org.robofab.postScriptHintData'
p2
(dp3
sS'com.typemytype.robofont.layerData'
p4
(dp5
s."
LayerCount: 2
Fore
SplineSet
470 1542 m 1
 698 1557 l 1
 699.34 1539.58 700.99 1521.76 703 1503 c 0
 705.68 1470.84 709 1428.88 709 1386 c 0
 709 1239.94 647.44 1155.9 492 1109 c 1
 465 1190 l 1
 511.9 1196.7 546.22 1217.2 569 1244 c 0
 591.78 1270.8 603 1304.84 603 1337 c 1
 470 1337 l 1
 470 1542 l 1
116 1542 m 1
 345 1557 l 1
 346.34 1539.58 347.99 1521.76 350 1503 c 0
 352.68 1470.84 355 1428.88 355 1386 c 0
 355 1239.94 293.44 1155.9 138 1109 c 1
 111 1190 l 1
 157.9 1196.7 191.22 1217.03 214 1244.5 c 0
 236.78 1271.97 247 1304.84 247 1337 c 1
 116 1337 l 1
 116 1542 l 1
EndSplineSet
EndChar

StartChar: quoteleft
Encoding: 8216 8216 205
Width: 471
VWidth: 0
Flags: W
PickledData: "(dp1
S'org.robofab.postScriptHintData'
p2
(dp3
sS'com.typemytype.robofont.layerData'
p4
(dp5
s."
LayerCount: 2
Fore
SplineSet
359 1134 m 1
 131 1118 l 1
 128.99 1135.42 127.01 1153.24 125 1172 c 0
 122.32 1204.16 119 1247.12 119 1290 c 0
 119 1434.72 180.56 1519.1 336 1566 c 1
 364 1486 l 1
 317.1 1479.3 281.78 1458.97 259 1431.5 c 0
 236.22 1404.03 225 1371.16 225 1339 c 1
 359 1339 l 1
 359 1134 l 1
EndSplineSet
EndChar

StartChar: quoteright
Encoding: 8217 8217 206
Width: 441
VWidth: 0
Flags: W
PickledData: "(dp1
S'org.robofab.postScriptHintData'
p2
(dp3
sS'com.typemytype.robofont.layerData'
p4
(dp5
s."
LayerCount: 2
Fore
SplineSet
117 1537 m 1
 345 1553 l 1
 347.01 1535.58 348.99 1517.76 351 1499 c 0
 353.68 1466.84 357 1423.88 357 1381 c 0
 357 1234.94 295.44 1150.9 140 1104 c 1
 112 1185 l 1
 158.9 1191.7 193.22 1212.03 216 1239.5 c 0
 238.78 1266.97 250 1300.84 250 1333 c 1
 117 1333 l 1
 117 1537 l 1
EndSplineSet
EndChar

StartChar: quotesinglbase
Encoding: 8218 8218 207
Width: 481
VWidth: 0
Flags: W
PickledData: "(dp1
S'org.robofab.postScriptHintData'
p2
(dp3
sS'com.typemytype.robofont.layerData'
p4
(dp5
s."
LayerCount: 2
Fore
SplineSet
338 205 m 1
 340.01 191.6 341.99 176.75 344 160 c 0
 346.68 131.86 350 93.9 350 47 c 0
 350 -111.12 287.68 -185.94 151 -198 c 1
 151 -196.66 146.02 -181.74 142 -167 c 0
 137.98 -152.26 134 -137.34 134 -136 c 1
 184.92 -127.96 214.58 -111.61 232 -89.5 c 0
 249.42 -67.39 254 -39.18 254 -3 c 1
 133 -3 l 1
 133 195 l 1
 338 205 l 1
EndSplineSet
EndChar

StartChar: quotesingle
Encoding: 39 39 208
Width: 389
VWidth: 0
Flags: W
PickledData: "(dp1
S'org.robofab.postScriptHintData'
p2
(dp3
sS'com.typemytype.robofont.layerData'
p4
(dp5
s."
LayerCount: 2
Fore
SplineSet
284 1436 m 1
 284 1348.9 267.42 1244.1 250 1157 c 0
 239.95 1106.08 228.73 1056.58 216 1007 c 1
 141 1007 l 1
 138.99 1064.62 137.01 1119.4 135 1173 c 0
 133.66 1218.56 132.34 1268.27 131 1314.5 c 0
 129.66 1360.73 129 1403.84 129 1436 c 1
 284 1436 l 1
EndSplineSet
EndChar

StartChar: r
Encoding: 114 114 209
Width: 740
VWidth: 0
Flags: W
PickledData: "(dp1
S'org.robofab.postScriptHintData'
p2
(dp3
sS'com.typemytype.robofont.layerData'
p4
(dp5
s."
LayerCount: 2
Fore
SplineSet
594 1043 m 0
 620.8 1043 646.9 1037.36 667 1032 c 0
 679.06 1028.65 689.95 1025.02 700 1021 c 1
 678 878 l 1
 675.32 880.01 670.7 882.32 664 885 c 0
 653.28 887.68 634.16 892 602 892 c 0
 525.62 892 460.9 867.78 414 845 c 0
 386.53 831.6 361.78 816.42 339 799 c 1
 339 0 l 1
 154 0 l 1
 154 1025 l 1
 283 1035 l 1
 318 917 l 1
 395.72 997.4 492.16 1043 594 1043 c 0
EndSplineSet
EndChar

StartChar: radical
Encoding: 8730 8730 210
Width: 1153
VWidth: 0
Flags: W
PickledData: "(dp1
S'org.robofab.postScriptHintData'
p2
(dp3
sS'com.typemytype.robofont.layerData'
p4
(dp5
s."
LayerCount: 2
Fore
SplineSet
30 895 m 1
 339 895 l 1
 344.36 874.9 358.9 824.49 379 759.5 c 0
 399.1 694.51 422.71 616.23 447.5 536.5 c 0
 472.29 456.77 496.24 377.49 515 312.5 c 0
 533.76 247.51 548.98 197.44 553 176 c 1
 565.06 216.2 593.65 306.91 630.5 425.5 c 0
 667.35 544.09 712.44 686.45 758 830.5 c 0
 803.56 974.55 847.48 1116.91 885 1235.5 c 0
 922.52 1354.09 950.94 1444.8 963 1485 c 1
 1125 1435 l 1
 1107.58 1388.1 1073.88 1286.81 1031 1157.5 c 0
 988.12 1028.19 938.09 872.78 886.5 716 c 0
 834.91 559.22 784.71 403.98 742.5 274 c 0
 700.29 144.02 666.42 42.9 649 -4 c 1
 458 -4 l 1
 180 812 l 1
 30 812 l 1
 30 895 l 1
EndSplineSet
EndChar

StartChar: registered
Encoding: 174 174 211
Width: 1218
VWidth: 0
Flags: W
PickledData: "(dp1
S'org.robofab.postScriptHintData'
p2
(dp3
sS'com.typemytype.robofont.layerData'
p4
(dp5
s."
LayerCount: 2
Fore
SplineSet
539 1019 m 1
 589 1019 l 2
 638.58 1019 670.24 1024.43 689 1038.5 c 0
 707.76 1052.57 714 1073.84 714 1106 c 0
 714 1135.48 709.27 1155.94 688.5 1168 c 0
 667.73 1180.06 631.32 1185 567 1185 c 2
 539 1185 l 1
 539 1019 l 1
715 720 m 1
 577 947 l 1
 537 947 l 1
 537 720 l 1
 449 720 l 1
 449 1257 l 1
 569 1257 l 2
 662.8 1257 720.16 1244.46 755 1219 c 0
 789.84 1193.54 801 1155.58 801 1106 c 0
 801 1059.1 791.78 1025.95 769 1002.5 c 0
 746.22 979.05 711.26 964.38 659 955 c 1
 667.04 943.61 674.96 931.73 683 919 c 0
 697.74 896.22 716.24 867.48 735 838 c 2
 811 720 l 1
 715 720 l 1
110 981 m 0
 110 1120.36 165.05 1243.88 255.5 1335 c 0
 345.95 1426.12 470.64 1481 610 1481 c 0
 749.36 1481 873.05 1426.12 963.5 1335 c 0
 1053.95 1243.88 1108 1120.36 1108 981 c 0
 1108 841.64 1053.95 717.95 963.5 627.5 c 0
 873.05 537.05 749.36 482 610 482 c 0
 470.64 482 345.95 537.05 255.5 627.5 c 0
 165.05 717.95 110 841.64 110 981 c 0
197 980 m 0
 197 860.74 241.96 757.87 317 683.5 c 0
 392.04 609.13 494.76 565 610 565 c 0
 725.24 565 827.96 609.13 903 683.5 c 0
 978.04 757.87 1023 860.74 1023 980 c 0
 1023 1097.92 978.04 1201.96 903 1277 c 0
 827.96 1352.04 725.24 1397 610 1397 c 0
 494.76 1397 392.04 1352.04 317 1277 c 0
 241.96 1201.96 197 1097.92 197 980 c 0
EndSplineSet
EndChar

StartChar: ring
Encoding: 730 730 212
Width: 579
VWidth: 0
Flags: W
PickledData: "(dp1
S'org.robofab.postScriptHintData'
p2
(dp3
sS'com.typemytype.robofont.layerData'
p4
(dp5
s."
LayerCount: 2
Fore
SplineSet
299 1102 m 0
 223.96 1102 162.39 1124.29 117.5 1166.5 c 0
 72.61 1208.71 47 1269.28 47 1347 c 0
 47 1422.04 72.61 1481.46 117.5 1523 c 0
 162.39 1564.54 223.96 1587 299 1587 c 0
 371.36 1587 431.95 1564.54 475.5 1523 c 0
 519.05 1481.46 545 1422.04 545 1347 c 0
 545 1267.94 519.22 1207.54 475 1166 c 0
 430.78 1124.46 370.02 1102 299 1102 c 0
299 1195 m 0
 353.94 1195 389.39 1216.52 411.5 1246 c 0
 433.61 1275.48 441 1313.5 441 1347 c 0
 441 1377.82 433.61 1414.52 411.5 1444 c 0
 389.39 1473.48 355.28 1495 299 1495 c 0
 232 1495 195.1 1471.65 175 1441.5 c 0
 154.9 1411.35 152 1373.8 152 1347 c 0
 152 1314.84 161.05 1276.65 184.5 1246.5 c 0
 207.95 1216.35 244.06 1195 299 1195 c 0
EndSplineSet
EndChar

StartChar: s
Encoding: 115 115 213
Width: 913
VWidth: 0
Flags: W
PickledData: "(dp1
S'org.robofab.postScriptHintData'
p2
(dp3
sS'com.typemytype.robofont.layerData'
p4
(dp5
s."
LayerCount: 2
Fore
SplineSet
491 1043 m 0
 587 1043 684 1026 755 1001 c 1
 775 854 l 1
 728 868 603 899 492 899 c 0
 372 899 275 883 275 773 c 0
 275 684 315 660 521 607 c 0
 754 547 841 464 841 282 c 0
 841 67 657 -19 446 -19 c 0
 342 -19 233 2 134 38 c 1
 115 189 l 1
 156 172 304 126 435 126 c 0
 560 126 667 155 667 285 c 0
 667 379 617 413 412 465 c 0
 213 515 104 583 104 777 c 0
 104 979 297 1043 491 1043 c 0
EndSplineSet
EndChar

StartChar: section
Encoding: 167 167 215
Width: 1003
VWidth: 0
Flags: W
PickledData: "(dp1
S'org.robofab.postScriptHintData'
p2
(dp3
sS'com.typemytype.robofont.layerData'
p4
(dp5
s."
LayerCount: 2
Fore
SplineSet
123 1091 m 0
 124.34 1202.22 172.32 1268.97 242 1308.5 c 0
 311.68 1348.03 401.24 1360 487 1360 c 0
 574.1 1360 644.08 1345.74 695 1331 c 0
 724.48 1322.29 750.55 1312.72 774 1302 c 1
 774 1297.98 779.64 1265.33 785 1232.5 c 0
 790.36 1199.67 796 1167.02 796 1163 c 1
 773.22 1173.72 737.26 1188.77 685 1201.5 c 0
 632.74 1214.23 566.4 1223 486 1223 c 1
 428.38 1221.66 379.18 1217.76 343 1199 c 0
 306.82 1180.24 286 1148.94 286 1094 c 0
 286 1035.04 316.08 1000.31 367 971.5 c 0
 417.92 942.69 486.6 921.16 567 889 c 0
 659.46 852.82 737.06 823.2 792 783 c 0
 846.94 742.8 878 693.38 878 617 c 0
 878 560.72 855.95 515.16 832.5 483 c 0
 809.05 450.84 785.02 432.68 781 430 c 1
 805.12 412.58 834.39 386.67 856.5 352.5 c 0
 878.61 318.33 894.34 276.58 893 227 c 1
 893 149.28 866.81 81.58 804.5 32 c 0
 742.19 -17.58 646.04 -47 504 -47 c 0
 407.52 -47 329.28 -31.42 273 -14 c 0
 240.17 -4.62 210.8 6.27 184 19 c 1
 162 159 l 1
 192.15 145.6 225.15 134.05 262 124 c 0
 323.64 106.58 406.54 90 499 90 c 0
 570.02 90 624.48 99.39 662 121.5 c 0
 699.52 143.61 719.66 178.4 721 232 c 0
 722.34 293.64 683.13 332.18 623.5 363 c 0
 563.87 393.82 483.72 416.84 406 449 c 0
 294.78 494.56 227.71 533.29 185.5 575.5 c 0
 143.29 617.71 130 662.06 130 717 c 0
 130 757.2 143.24 790.52 162 820 c 0
 180.76 849.48 206.88 873.24 231 892 c 1
 209.56 906.74 182.61 928.84 160.5 961 c 0
 138.39 993.16 121.66 1034.72 123 1091 c 0
751 603 m 0
 751 641.86 734.52 665.39 697 687.5 c 0
 659.48 709.61 602.74 730.84 521 763 c 0
 488.84 775.06 462.16 785.94 430 798 c 0
 397.84 810.06 361.58 824.56 312 846 c 1
 301.28 839.3 286.89 825.42 275.5 808 c 0
 264.11 790.58 255.34 771.1 254 751 c 0
 251.32 713.48 258.69 688.46 287.5 663 c 0
 316.31 637.54 367.9 612.18 455 576 c 0
 499.22 558.58 545.95 540.42 589.5 523 c 0
 633.05 505.58 670.86 489.4 699 476 c 1
 709.05 485.38 717.63 495.94 725 508 c 0
 738.4 529.44 751 560.12 751 603 c 0
EndSplineSet
EndChar

StartChar: semicolon
Encoding: 59 59 216
Width: 514
VWidth: 0
Flags: W
PickledData: "(dp1
S'org.robofab.postScriptHintData'
p2
(dp3
sS'com.typemytype.robofont.layerData'
p4
(dp5
s."
LayerCount: 2
Fore
SplineSet
357 805 m 1
 357 591 l 1
 152 591 l 1
 152 805 l 1
 357 805 l 1
152 189 m 1
 355 195 l 1
 357.01 181.6 358.99 166.75 361 150 c 0
 363.68 121.86 367 84.54 367 43 c 0
 367 -19.98 355.97 -71.95 328.5 -115.5 c 0
 301.03 -159.05 256.34 -191.56 188 -213 c 1
 160 -133 l 1
 221.64 -124.96 250 -71.02 250 0 c 1
 152 0 l 1
 152 189 l 1
EndSplineSet
EndChar

StartChar: seven
Encoding: 55 55 217
Width: 917
VWidth: 0
Flags: W
PickledData: "(dp1
S'org.robofab.postScriptHintData'
p2
(dp3
sS'com.typemytype.robofont.layerData'
p4
(dp5
s."
LayerCount: 2
Fore
SplineSet
205 48 m 1
 528 817 l 1
 678 1174 l 1
 370 1171 l 1
 59 1171 l 1
 69 1317 l 1
 826 1317 l 1
 867 1177 l 1
 365 -24 l 1
 205 48 l 1
EndSplineSet
EndChar

StartChar: six
Encoding: 54 54 218
Width: 1196
VWidth: 0
Flags: W
PickledData: "(dp1
S'org.robofab.postScriptHintData'
p2
(dp3
sS'com.typemytype.robofont.layerData'
p4
(dp5
s."
LayerCount: 2
Fore
SplineSet
941 1191 m 1
 824.42 1205.74 730.08 1207.06 647 1195 c 1
 530.42 1181.6 450.26 1134.57 398 1053.5 c 0
 345.74 972.43 322.34 856.42 321 705 c 1
 354.5 727.78 403.34 762.86 469 791 c 0
 534.66 819.14 613.54 842 706 842 c 0
 823.92 842 923.64 802.36 996 730 c 0
 1068.36 657.64 1110 554.3 1110 427 c 0
 1110 310.42 1072.57 198.42 991.5 114 c 0
 910.43 29.58 788.86 -24 616 -24 c 0
 457.88 -24 336.91 32.8 254.5 140 c 0
 172.09 247.2 130 401.68 130 600 c 0
 130 827.8 161.94 1000.55 241 1124.5 c 0
 320.06 1248.45 444.4 1319.58 632 1337 c 1
 716.42 1349.06 808.12 1348.72 918 1338 c 1
 941 1191 l 1
669 692 m 0
 569.84 692 485.98 662.8 423 636 c 0
 386.15 619.92 353.15 602.1 323 582 c 1
 323 579.32 322 568.06 322 556 c 0
 322 543.94 322 533.02 322 529 c 0
 320.66 267.7 423.66 120 626 120 c 0
 824.32 120 929 216.3 929 424 c 0
 929 507.08 909.71 573.27 867.5 619.5 c 0
 825.29 665.73 760.12 692 669 692 c 0
EndSplineSet
EndChar

StartChar: slash
Encoding: 47 47 219
Width: 698
VWidth: 0
Flags: W
PickledData: "(dp1
S'org.robofab.postScriptHintData'
p2
(dp3
sS'com.typemytype.robofont.layerData'
p4
(dp5
s."
LayerCount: 2
Fore
SplineSet
621 1451 m 1
 247 -202 l 1
 79 -164 l 1
 448 1490 l 1
 621 1451 l 1
EndSplineSet
EndChar

StartChar: sterling
Encoding: 163 163 221
Width: 994
VWidth: 0
Flags: W
PickledData: "(dp1
S'org.robofab.postScriptHintData'
p2
(dp3
sS'com.typemytype.robofont.layerData'
p4
(dp5
s."
LayerCount: 2
Fore
SplineSet
874 -3 m 1
 89 -3 l 1
 89 140 l 1
 185 140 l 1
 201.75 158.76 216.27 191.1 229 238 c 0
 239.72 278.2 250.79 331.96 259.5 407 c 0
 268.21 482.04 274 576.4 274 697 c 1
 108 697 l 1
 108 814 l 1
 274 814 l 1
 274 1059 l 2
 274 1179.6 300.55 1278.49 357.5 1347.5 c 0
 414.45 1416.51 501.06 1454.34 623 1453 c 0
 694.02 1451.66 753.78 1438.74 798 1424 c 0
 824.13 1415.96 847.23 1406.72 868 1396 c 1
 868 1257 l 1
 847.23 1265.04 825.78 1272.63 803 1280 c 0
 764.14 1292.06 710.28 1302.66 654 1304 c 1
 545.46 1304 497.44 1261.25 476 1177.5 c 0
 454.56 1093.75 460 972.12 460 814 c 1
 821 814 l 1
 821 697 l 1
 460 697 l 1
 460 569.7 452.72 472.38 442 396 c 0
 431.28 319.62 416.4 266.52 403 229 c 0
 386.25 184.11 367.77 155.07 347 141 c 1
 885 141 l 1
 874 -3 l 1
EndSplineSet
EndChar

StartChar: summation
Encoding: 8721 8721 222
Width: 1062
VWidth: 0
Flags: W
PickledData: "(dp1
S'org.robofab.postScriptHintData'
p2
(dp3
sS'com.typemytype.robofont.layerData'
p4
(dp5
s."
LayerCount: 2
Fore
SplineSet
683 707 m 1
 449 338 l 1
 319 151 l 1
 491 160 l 1
 972 160 l 1
 972 -3 l 1
 59 -3 l 1
 497 707 l 1
 72 1398 l 1
 948 1398 l 1
 949 1248 l 1
 496 1248 l 1
 315 1253 l 1
 455 1059 l 1
 683 707 l 1
EndSplineSet
EndChar

StartChar: t
Encoding: 116 116 223
Width: 738
VWidth: 0
Flags: W
PickledData: "(dp1
S'org.robofab.postScriptHintData'
p2
(dp3
sS'com.typemytype.robofont.layerData'
p4
(dp5
S'b'
(dp6
S'name'
p7
S't'
sS'lib'
p8
(dp9
sS'unicodes'
p10
(tsS'width'
p11
I738
sS'contours'
p12
((dp13
S'points'
p14
((dp15
S'segmentType'
p16
S'curve'
p17
sS'x'
F457
sS'smooth'
p18
I00
sS'y'
F-18
s(dp19
S'y'
F-18
sS'x'
F274.75999999999999
sg18
I00
s(dp20
S'y'
F63.639999999999986
sS'x'
F210
sg18
I00
s(dp21
g16
S'curve'
p22
sS'x'
F210
sg18
I00
sS'y'
F337
s(dp23
g16
S'line'
p24
sS'x'
F210
sg18
I00
sS'y'
F921
s(dp25
g16
S'line'
p26
sS'x'
F68
sg18
I00
sS'y'
F921
s(dp27
g16
S'line'
p28
sS'x'
F68
sg18
I00
sS'y'
F1031
s(dp29
g16
S'line'
p30
sS'x'
F217
sg18
I00
sS'y'
F1031
s(dp31
g16
S'line'
p32
sS'x'
F243
sg18
I00
sS'y'
F1345
s(dp33
g16
S'line'
p34
sS'x'
F392
sg18
I00
sS'y'
F1374
s(dp35
g16
S'line'
p36
sS'x'
F392
sg18
I00
sS'y'
F1031
s(dp37
g16
S'line'
p38
sS'x'
F648
sg18
I00
sS'y'
F1031
s(dp39
g16
S'line'
p40
sS'x'
F648
sg18
I00
sS'y'
F921
s(dp41
g16
S'line'
p42
sS'x'
F395
sg18
I00
sS'y'
F921
s(dp43
g16
S'line'
p44
sS'x'
F395
sg18
I00
sS'y'
F298
s(dp45
S'y'
F154.3666008301079
sS'x'
F395
sg18
I00
s(dp46
S'y'
F114
sS'x'
F405.08412656356779
sg18
I00
s(dp47
g16
S'curve'
p48
sS'x'
F505
sg18
I00
sS'y'
F114
s(dp49
S'y'
F114
sS'x'
F541.17999999999995
sg18
I00
s(dp50
S'y'
F117.64
sS'x'
F575.20000000000005
sg18
I00
s(dp51
g16
S'curve'
p52
sS'x'
F602
sg18
I00
sS'y'
F123
s(dp53
S'y'
F125.68000000000001
sS'x'
F617.40999999999997
sg7
S'inserted'
p54
s(dp55
S'y'
F128.65000000000001
sS'x'
F631.26999999999998
s(dp56
g16
S'curve'
p57
sS'x'
F644
sg18
I00
sS'y'
F132
s(dp58
g16
S'line'
p59
sS'x'
F628
sg18
I00
sS'y'
F3
s(dp60
S'y'
F-1.6900000000000004
sS'x'
F615.94000000000005
sg7
S'inserted'
p61
s(dp62
S'y'
F-5.3200000000000003
sS'x'
F601.41999999999996
s(dp63
g16
S'curve'
p64
sS'x'
F584
sg18
I00
sS'y'
F-8
s(dp65
S'y'
F-13.359999999999999
sS'x'
F554.51999999999998
sg18
I00
s(dp66
S'y'
F-18
sS'x'
F513.27999999999997
sg18
I00
stp67
stp68
sS'components'
p69
(tsS'anchors'
p70
(tsss."
LayerCount: 2
Fore
SplineSet
210 314 m 2
 210 918 l 1
 68 918 l 1
 68 1028 l 1
 217 1028 l 1
 243 1345 l 1
 392 1374 l 1
 392 1028 l 1
 648 1028 l 1
 648 918 l 1
 395 918 l 1
 395 295 l 2
 395 123 469 114 644 140 c 1
 638 0 l 1
 394 -47 210 -13 210 314 c 2
EndSplineSet
EndChar

StartChar: thorn
Encoding: 254 254 224
Width: 1134
VWidth: 0
Flags: W
PickledData: "(dp1
S'org.robofab.postScriptHintData'
p2
(dp3
sS'com.typemytype.robofont.layerData'
p4
(dp5
s."
LayerCount: 2
Fore
SplineSet
158 -340 m 1
 158 1473 l 1
 343 1499 l 1
 343 958 l 1
 367.12 974.08 394.18 988.27 425 1001 c 0
 477.26 1023.78 548.56 1045 637 1045 c 0
 742.86 1045 839.81 1006.1 911.5 919 c 0
 983.19 831.9 1028 698.62 1028 507 c 0
 1028 311.36 975.89 181.08 897.5 98 c 0
 819.11 14.92 717.84 -18 616 -18 c 0
 524.88 -18 457.9 10.18 411 41 c 0
 384.2 58.42 361.1 78.22 341 101 c 1
 341 -349 l 1
 158 -340 l 1
343 217 m 1
 363.1 198.91 385.54 183.07 411 169 c 0
 453.88 144.88 515.3 122 589 122 c 0
 658.68 122 721.27 147.53 767.5 208.5 c 0
 813.73 269.47 843 363.64 843 503 c 0
 843 758.94 764.48 903 601 903 c 0
 527.3 903 464.9 883.1 418 863 c 0
 391.2 850.94 366.45 838.07 343 824 c 1
 343 217 l 1
EndSplineSet
EndChar

StartChar: three
Encoding: 51 51 225
Width: 1061
VWidth: 0
Flags: W
PickledData: "(dp1
S'org.robofab.postScriptHintData'
p2
(dp3
sS'com.typemytype.robofont.layerData'
p4
(dp5
s."
LayerCount: 2
Fore
SplineSet
125 189 m 1
 142.42 184.98 192.51 171.57 257.5 157.5 c 0
 322.49 143.43 402.62 132 479 132 c 0
 556.72 132 620.78 151.31 665 189.5 c 0
 709.22 227.69 734 285.26 734 367 c 0
 734 451.42 709.98 516.61 647 561.5 c 0
 584.02 606.39 484.1 628 330 628 c 1
 330 789 l 1
 472.04 789 564.55 801.33 621.5 835.5 c 0
 678.45 869.67 700 925.24 700 1011 c 0
 700 1090.06 673.39 1141.5 628.5 1175 c 0
 583.61 1208.5 521.68 1221 452 1221 c 0
 389.02 1221 314.15 1211.06 250.5 1199 c 0
 186.85 1186.94 133.76 1172.36 115 1167 c 1
 140 1320 l 1
 161.44 1326.7 203.06 1338.28 258 1349 c 0
 312.94 1359.72 379.64 1370 452 1370 c 0
 586 1370 694.62 1344.28 771 1288 c 0
 847.38 1231.72 889 1147.92 889 1030 c 0
 889 957.64 873.78 902.22 851 858 c 0
 828.22 813.78 797.48 785.12 768 761 c 1
 732.49 736.21 692.89 720.04 648 712 c 1
 702.27 707.98 749.79 694.12 792 670 c 1
 828.18 645.88 864.2 616.07 891 568.5 c 0
 917.8 520.93 936 457.74 936 376 c 0
 936 217.88 885.25 119.64 801.5 58 c 0
 717.75 -3.64 603.3 -24 476 -24 c 0
 392.92 -24 307.85 -10.74 237.5 4 c 0
 167.15 18.74 112.44 34.64 91 40 c 1
 125 189 l 1
EndSplineSet
EndChar

StartChar: threesuperior
Encoding: 179 179 227
Width: 886
VWidth: 0
Flags: W
PickledData: "(dp1
S'org.robofab.postScriptHintData'
p2
(dp3
sS'com.typemytype.robofont.layerData'
p4
(dp5
s."
LayerCount: 2
Fore
SplineSet
120 155 m 1
 148.14 145.62 177.18 137.37 208 130 c 0
 260.26 116.6 328 105 395 105 c 0
 535.03 105 604 152.85 604 250 c 0
 604 303.6 584.09 342.37 532.5 368.5 c 0
 480.91 394.63 400.28 407 277 407 c 1
 277 536 l 1
 392.24 536 465.44 546.88 511 571 c 0
 556.56 595.12 573 631.08 573 682 c 0
 573 786.52 505 820 371 820 c 0
 321.42 820 263.58 812.21 214 803.5 c 0
 164.42 794.79 125.06 785.68 113 783 c 1
 134 910 l 1
 159.46 916.7 185.53 922.97 213 929 c 0
 259.9 938.38 319.72 948 376 948 c 0
 627.92 948 732 861.14 732 699 c 0
 732 614.58 691.56 562.33 646 529.5 c 0
 600.44 496.67 553.08 482.7 537 476 c 1
 550.4 474.66 579.99 470.89 615.5 459.5 c 0
 651.01 448.11 690.18 429.67 721 395.5 c 0
 751.82 361.33 774 313.68 774 244 c 0
 774 144.84 730.85 78.88 660.5 36 c 0
 590.15 -6.88 496.52 -25 392 -25 c 0
 319.64 -25 250.11 -12.4 194.5 1 c 0
 138.89 14.4 100.38 28.32 91 31 c 1
 120 155 l 1
EndSplineSet
EndChar

StartChar: tilde
Encoding: 732 732 228
Width: 893
VWidth: 0
Flags: W
PickledData: "(dp1
S'org.robofab.postScriptHintData'
p2
(dp3
sS'com.typemytype.robofont.layerData'
p4
(dp5
s."
LayerCount: 2
Fore
SplineSet
297 1414 m 0
 354.62 1414 408.42 1385.97 458 1358.5 c 0
 507.58 1331.03 551.14 1303 590 1303 c 0
 611.44 1303 625.3 1315.41 632 1333.5 c 0
 638.7 1351.59 641 1375.54 641 1401 c 1
 772 1401 l 1
 772 1394 l 2
 772 1306.9 751.16 1253.33 719 1220.5 c 0
 686.84 1187.67 645.22 1177 601 1177 c 1
 586.26 1178.34 575.06 1178.32 563 1181 c 0
 510.74 1191.72 459.22 1217.05 415 1240.5 c 0
 370.78 1263.95 332.46 1285 307 1285 c 0
 285.56 1285 273.04 1273.59 265 1255.5 c 0
 256.96 1237.41 255 1212.14 255 1184 c 1
 123 1184 l 1
 123 1198 l 2
 123 1283.76 144.84 1336.67 177 1369.5 c 0
 209.16 1402.33 251.44 1414 297 1414 c 0
EndSplineSet
EndChar

StartChar: trademark
Encoding: 8482 8482 229
Width: 1169
VWidth: 0
Flags: W
PickledData: "(dp1
S'org.robofab.postScriptHintData'
p2
(dp3
sS'com.typemytype.robofont.layerData'
p4
(dp5
s."
LayerCount: 2
Fore
SplineSet
345 1330 m 1
 345 897 l 1
 248 897 l 1
 248 1330 l 1
 116 1330 l 1
 116 1405 l 1
 478 1405 l 1
 478 1330 l 1
 345 1330 l 1
928 897 m 1
 928 1172 l 1
 940 1368 l 1
 900 1186 l 1
 874.54 1090.86 850.8 1001.48 824 905 c 1
 728 905 l 1
 683.78 1057.76 647.5 1207.56 614 1363 c 1
 626 1172 l 1
 626 1127 l 1
 626 897 l 1
 537 897 l 1
 537 1405 l 1
 677 1405 l 1
 697.1 1321.92 720.24 1243.42 739 1159 c 2
 777 986 l 1
 814 1184 l 1
 818.02 1196.06 821.98 1209.6 826 1223 c 2
 877 1405 l 1
 1017 1405 l 1
 1017 897 l 1
 928 897 l 1
EndSplineSet
EndChar

StartChar: two
Encoding: 50 50 230
Width: 988
VWidth: 0
Flags: W
PickledData: "(dp1
S'org.robofab.postScriptHintData'
p2
(dp3
sS'com.typemytype.robofont.layerData'
p4
(dp5
s."
LayerCount: 2
Fore
SplineSet
488 1363 m 0
 619.32 1363 713.85 1326.66 777.5 1261 c 0
 841.15 1195.34 871 1104.54 871 996 c 0
 871 912.92 850.5 845 817 778 c 0
 783.5 711 735.6 649.32 682 585 c 1
 304 144 l 1
 856 144 l 1
 836 0 l 1
 120 0 l 1
 90 146 l 1
 553 700 l 2
 585.16 738.86 620.37 784.25 646.5 834.5 c 0
 672.63 884.75 691 935.38 691 993 c 0
 691 1055.98 672.69 1112.63 634.5 1153.5 c 0
 596.31 1194.37 538.4 1217 458 1217 c 0
 382.96 1217 300.34 1197.76 232 1179 c 1
 192.47 1166.27 154.52 1153.4 117 1140 c 1
 137 1296 l 1
 171.84 1308.06 208.14 1318.95 247 1329 c 0
 314 1346.42 399.56 1363 488 1363 c 0
EndSplineSet
EndChar

StartChar: twosuperior
Encoding: 178 178 231
Width: 843
VWidth: 0
Flags: W
PickledData: "(dp1
S'org.robofab.postScriptHintData'
p2
(dp3
sS'com.typemytype.robofont.layerData'
p4
(dp5
s."
LayerCount: 2
Fore
SplineSet
414 988 m 0
 522.54 988 602.23 961.73 656.5 915.5 c 0
 710.77 869.27 737 803.72 737 726 c 0
 737 668.38 720.8 618.07 694 570.5 c 0
 667.2 522.93 628.22 478.22 584 434 c 2
 292 136 l 1
 722 136 l 1
 710 0 l 1
 113 0 l 1
 93 136 l 1
 474 542 l 2
 495.44 566.12 518.41 595.18 536.5 626 c 0
 554.59 656.82 566 689.84 566 722 c 0
 566 795.7 512.92 849 395 849 c 0
 333.36 849 264.28 832.74 208 818 c 0
 175.17 808.62 143.49 798.39 112 787 c 1
 131 933 l 1
 158.47 943.05 187.51 951.96 219 960 c 0
 272.6 974.74 341.64 988 414 988 c 0
EndSplineSet
EndChar

StartChar: u
Encoding: 117 117 232
Width: 1144
VWidth: 0
Flags: W
PickledData: "(dp1
S'org.robofab.postScriptHintData'
p2
(dp3
sS'com.typemytype.robofont.layerData'
p4
(dp5
s."
LayerCount: 2
Fore
SplineSet
992 0 m 1
 858 -11 l 1
 833 118 l 1
 761.696095295 48.5244005435 658 -18 478 -18 c 0
 245 -18 143 123.1 143 438 c 2
 143 1028 l 1
 327 1028 l 1
 327 445 l 2
 327 211.154709283 374.030697997 122 521 122 c 0
 655.004052357 122 743.624884849 168.110625455 807 217 c 1
 807 1028 l 1
 992 1028 l 1
 992 0 l 1
EndSplineSet
EndChar

StartChar: underscore
Encoding: 95 95 237
Width: 1156
VWidth: 0
Flags: W
PickledData: "(dp1
S'org.robofab.postScriptHintData'
p2
(dp3
sS'com.typemytype.robofont.layerData'
p4
(dp5
s."
LayerCount: 2
Fore
SplineSet
121 -1 m 1
 121 149 l 1
 1035 149 l 1
 1035 -1 l 1
 121 -1 l 1
EndSplineSet
EndChar

StartChar: uni030F
Encoding: 783 783 267
Width: 714
VWidth: 0
Flags: W
PickledData: "(dp1
S'org.robofab.postScriptHintData'
p2
(dp3
sS'com.typemytype.robofont.layerData'
p4
(dp5
s."
LayerCount: 2
Fore
SplineSet
373 1183 m 1
 273 1183 l 1
 70 1687 l 1
 265 1687 l 1
 373 1183 l 1
612 1183 m 1
 509 1183 l 1
 372 1687 l 1
 556 1687 l 1
 612 1183 l 1
EndSplineSet
EndChar

StartChar: uni0311
Encoding: 785 785 268
Width: 861
VWidth: 0
Flags: W
PickledData: "(dp1
S'org.robofab.postScriptHintData'
p2
(dp3
sS'com.typemytype.robofont.layerData'
p4
(dp5
s."
LayerCount: 2
Fore
SplineSet
431 1456 m 0
 526.14 1456 599.55 1428.69 656.5 1390.5 c 0
 713.45 1352.31 750.88 1303.54 775 1262 c 1
 700 1190 l 1
 673.2 1226.18 638.39 1258.71 593.5 1283.5 c 0
 548.61 1308.29 495.32 1324 431 1324 c 0
 306.38 1324 220.96 1266.38 162 1190 c 1
 85 1262 l 1
 113.14 1308.9 154.38 1357.65 212 1394.5 c 0
 269.62 1431.35 342.56 1456 431 1456 c 0
EndSplineSet
EndChar

StartChar: uni0326
Encoding: 806 806 269
Width: 441
VWidth: 0
Flags: W
PickledData: "(dp1
S'org.robofab.postScriptHintData'
p2
(dp3
sS'com.typemytype.robofont.layerData'
p4
(dp5
s."
LayerCount: 2
Fore
SplineSet
119 -125 m 1
 344 -109 l 1
 346.01 -125.08 347.99 -142.24 350 -161 c 0
 352.68 -193.16 356 -235.1 356 -282 c 0
 356 -343.64 343.82 -397.12 313 -440 c 0
 282.18 -482.88 231.38 -516.56 155 -538 c 1
 127 -458 l 1
 202.04 -448.62 239 -396.02 239 -325 c 1
 119 -325 l 1
 119 -125 l 1
EndSplineSet
EndChar

StartChar: v
Encoding: 118 118 270
Width: 965
VWidth: 0
Flags: W
PickledData: "(dp1
S'org.robofab.postScriptHintData'
p2
(dp3
sS'com.typemytype.robofont.layerData'
p4
(dp5
s."
LayerCount: 2
Fore
SplineSet
373 0 m 1
 34 1028 l 1
 228 1028 l 1
 485 149 l 1
 742 1028 l 1
 931 1028 l 1
 594 0 l 1
 373 0 l 1
EndSplineSet
EndChar

StartChar: w
Encoding: 119 119 271
Width: 1485
VWidth: 0
Flags: W
PickledData: "(dp1
S'org.robofab.postScriptHintData'
p2
(dp3
sS'com.typemytype.robofont.layerData'
p4
(dp5
s."
LayerCount: 2
Fore
SplineSet
567 0 m 1
 321 0 l 1
 64 1028 l 1
 264 1028 l 1
 451 93 l 1
 618 1014 l 1
 853 1014 l 1
 1051 93 l 1
 1213 1028 l 1
 1414 1028 l 1
 1175 0 l 1
 931 0 l 1
 735 880 l 1
 567 0 l 1
EndSplineSet
EndChar

StartChar: x
Encoding: 120 120 272
Width: 997
VWidth: 0
Flags: W
PickledData: "(dp1
S'org.robofab.postScriptHintData'
p2
(dp3
sS'com.typemytype.robofont.layerData'
p4
(dp5
s."
LayerCount: 2
Fore
SplineSet
395 516 m 1
 53 1028 l 1
 247 1028 l 1
 499 620 l 1
 749 1028 l 1
 945 1028 l 1
 601 516 l 1
 945 0 l 1
 738 0 l 1
 499 405 l 1
 258 0 l 1
 53 0 l 1
 395 516 l 1
EndSplineSet
EndChar

StartChar: y
Encoding: 121 121 273
Width: 979
VWidth: 0
Flags: W
PickledData: "(dp1
S'org.robofab.postScriptHintData'
p2
(dp3
sS'com.typemytype.robofont.layerData'
p4
(dp5
s."
LayerCount: 2
Fore
SplineSet
491 136 m 1
 738 1028 l 1
 934 1028 l 1
 581 -60 l 2
 542.14 -179.26 513.03 -271.02 473.5 -334 c 0
 433.97 -396.98 386.04 -429 311 -429 c 0
 227.92 -429 159.58 -410.1 110 -390 c 0
 81.19 -378.61 55.45 -365.74 32 -351 c 1
 45 -225 l 1
 71.8 -235.72 98.2 -244.63 125 -252 c 0
 171.9 -265.4 228.08 -278 279 -278 c 0
 308.48 -278 327.43 -266.27 341.5 -245.5 c 0
 355.57 -224.73 364.28 -194.2 375 -154 c 1
 399 -47 l 1
 43 1028 l 1
 242 1028 l 1
 491 136 l 1
EndSplineSet
EndChar

StartChar: yen
Encoding: 165 165 276
Width: 1061
VWidth: 0
Flags: W
PickledData: "(dp1
S'org.robofab.postScriptHintData'
p2
(dp3
sS'com.typemytype.robofont.layerData'
p4
(dp5
s."
LayerCount: 2
Fore
SplineSet
170 550 m 1
 406 550 l 1
 400.64 560.72 377.16 616.11 345 694.5 c 0
 312.84 772.89 271.54 873.33 230 974.5 c 0
 188.46 1075.67 147.16 1175.11 115 1253.5 c 0
 82.84 1331.89 60.36 1387.28 55 1398 c 1
 246 1398 l 1
 447 879 l 1
 448.34 870.96 456.94 841.52 469 804 c 0
 481.06 766.48 493.94 722.52 506 685 c 0
 518.06 647.48 526.66 617.04 528 609 c 1
 529.34 613.02 538.94 642.14 551 681 c 0
 563.06 719.86 577.94 766.14 590 805 c 0
 602.06 843.86 611.66 873.64 613 879 c 0
 613 883.02 624.41 915.93 642.5 963.5 c 0
 660.59 1011.07 683.88 1073.19 708 1135.5 c 0
 732.12 1197.81 756.24 1259.59 775 1308.5 c 0
 793.76 1357.41 806.32 1391.3 809 1398 c 1
 1001 1398 l 1
 995.64 1387.28 973.33 1331.89 940.5 1253.5 c 0
 907.67 1175.11 866.54 1075.67 825 974.5 c 0
 783.46 873.33 742.16 772.89 710 694.5 c 0
 677.84 616.11 654.36 560.72 649 550 c 1
 899 550 l 1
 899 460 l 1
 628 460 l 1
 626.66 453.3 626.34 425.8 625 399 c 0
 623.66 372.2 623 344.36 623 339 c 1
 902 339 l 1
 902 254 l 1
 618 254 l 1
 618 -3 l 1
 437 -3 l 1
 437 254 l 1
 170 254 l 1
 170 339 l 1
 433 339 l 1
 427 460 l 1
 170 460 l 1
 170 550 l 1
EndSplineSet
EndChar

StartChar: z
Encoding: 122 122 277
Width: 862
VWidth: 0
Flags: W
PickledData: "(dp1
S'org.robofab.postScriptHintData'
p2
(dp3
sS'com.typemytype.robofont.layerData'
p4
(dp5
s."
LayerCount: 2
Fore
SplineSet
795 885 m 1
 286 134 l 1
 465 138 l 1
 783 138 l 1
 783 0 l 1
 102 0 l 1
 102 153 l 1
 604 893 l 1
 382 888 l 1
 118 888 l 1
 118 1028 l 1
 764 1028 l 1
 795 885 l 1
EndSplineSet
EndChar

StartChar: zero
Encoding: 48 48 279
Width: 1280
VWidth: 0
Flags: W
PickledData: "(dp1
S'org.robofab.postScriptHintData'
p2
(dp3
sS'com.typemytype.robofont.layerData'
p4
(dp5
s."
LayerCount: 2
Fore
SplineSet
639 123 m 0
 771.66 123 851.27 177.69 897.5 273.5 c 0
 943.73 369.31 957 505.16 957 674 c 0
 957 837.48 942.07 975.35 894.5 1072.5 c 0
 846.93 1169.65 767.64 1227 639 1227 c 0
 510.36 1227 432.07 1170.65 384.5 1073.5 c 0
 336.93 976.35 323 838.82 323 674 c 0
 323 505.16 337.93 369.31 385.5 273.5 c 0
 433.07 177.69 511.7 123 639 123 c 0
133 673 m 0
 133 888.74 162.94 1063.4 242 1184 c 0
 321.06 1304.6 446.04 1369 639 1369 c 0
 833.3 1369 958.94 1304.6 1038 1184 c 0
 1117.06 1063.4 1147 888.74 1147 673 c 0
 1147 453.24 1115.4 279.26 1035 160 c 0
 954.6 40.74 829.28 -24 639 -24 c 0
 448.72 -24 324.23 40.74 244.5 160 c 0
 164.77 279.26 133 453.24 133 673 c 0
EndSplineSet
EndChar
